G04 #@! TF.GenerationSoftware,KiCad,Pcbnew,5.1.3-ffb9f22~84~ubuntu18.04.1*
G04 #@! TF.CreationDate,2019-08-01T16:23:33-04:00*
G04 #@! TF.ProjectId,firstPCB,66697273-7450-4434-922e-6b696361645f,rev?*
G04 #@! TF.SameCoordinates,Original*
G04 #@! TF.FileFunction,Legend,Top*
G04 #@! TF.FilePolarity,Positive*
%FSLAX46Y46*%
G04 Gerber Fmt 4.6, Leading zero omitted, Abs format (unit mm)*
G04 Created by KiCad (PCBNEW 5.1.3-ffb9f22~84~ubuntu18.04.1) date 2019-08-01 16:23:33*
%MOMM*%
%LPD*%
G04 APERTURE LIST*
%ADD10C,0.150000*%
%ADD11C,0.120000*%
%ADD12C,0.350000*%
G04 APERTURE END LIST*
D10*
X158512380Y-222702380D02*
X157940952Y-222702380D01*
X158226666Y-222702380D02*
X158226666Y-221702380D01*
X158131428Y-221845238D01*
X158036190Y-221940476D01*
X157940952Y-221988095D01*
X159417142Y-221702380D02*
X158940952Y-221702380D01*
X158893333Y-222178571D01*
X158940952Y-222130952D01*
X159036190Y-222083333D01*
X159274285Y-222083333D01*
X159369523Y-222130952D01*
X159417142Y-222178571D01*
X159464761Y-222273809D01*
X159464761Y-222511904D01*
X159417142Y-222607142D01*
X159369523Y-222654761D01*
X159274285Y-222702380D01*
X159036190Y-222702380D01*
X158940952Y-222654761D01*
X158893333Y-222607142D01*
X160321904Y-222035714D02*
X160321904Y-222702380D01*
X160083809Y-221654761D02*
X159845714Y-222369047D01*
X160464761Y-222369047D01*
X160845714Y-222607142D02*
X160893333Y-222654761D01*
X160845714Y-222702380D01*
X160798095Y-222654761D01*
X160845714Y-222607142D01*
X160845714Y-222702380D01*
X161369523Y-222702380D02*
X161560000Y-222702380D01*
X161655238Y-222654761D01*
X161702857Y-222607142D01*
X161798095Y-222464285D01*
X161845714Y-222273809D01*
X161845714Y-221892857D01*
X161798095Y-221797619D01*
X161750476Y-221750000D01*
X161655238Y-221702380D01*
X161464761Y-221702380D01*
X161369523Y-221750000D01*
X161321904Y-221797619D01*
X161274285Y-221892857D01*
X161274285Y-222130952D01*
X161321904Y-222226190D01*
X161369523Y-222273809D01*
X161464761Y-222321428D01*
X161655238Y-222321428D01*
X161750476Y-222273809D01*
X161798095Y-222226190D01*
X161845714Y-222130952D01*
X162702857Y-222035714D02*
X162702857Y-222702380D01*
X162464761Y-221654761D02*
X162226666Y-222369047D01*
X162845714Y-222369047D01*
X163417142Y-221702380D02*
X163512380Y-221702380D01*
X163607619Y-221750000D01*
X163655238Y-221797619D01*
X163702857Y-221892857D01*
X163750476Y-222083333D01*
X163750476Y-222321428D01*
X163702857Y-222511904D01*
X163655238Y-222607142D01*
X163607619Y-222654761D01*
X163512380Y-222702380D01*
X163417142Y-222702380D01*
X163321904Y-222654761D01*
X163274285Y-222607142D01*
X163226666Y-222511904D01*
X163179047Y-222321428D01*
X163179047Y-222083333D01*
X163226666Y-221892857D01*
X163274285Y-221797619D01*
X163321904Y-221750000D01*
X163417142Y-221702380D01*
X164940952Y-222702380D02*
X164940952Y-222035714D01*
X164940952Y-222130952D02*
X164988571Y-222083333D01*
X165083809Y-222035714D01*
X165226666Y-222035714D01*
X165321904Y-222083333D01*
X165369523Y-222178571D01*
X165369523Y-222702380D01*
X165369523Y-222178571D02*
X165417142Y-222083333D01*
X165512380Y-222035714D01*
X165655238Y-222035714D01*
X165750476Y-222083333D01*
X165798095Y-222178571D01*
X165798095Y-222702380D01*
X166274285Y-222702380D02*
X166274285Y-222035714D01*
X166274285Y-222130952D02*
X166321904Y-222083333D01*
X166417142Y-222035714D01*
X166560000Y-222035714D01*
X166655238Y-222083333D01*
X166702857Y-222178571D01*
X166702857Y-222702380D01*
X166702857Y-222178571D02*
X166750476Y-222083333D01*
X166845714Y-222035714D01*
X166988571Y-222035714D01*
X167083809Y-222083333D01*
X167131428Y-222178571D01*
X167131428Y-222702380D01*
D11*
X85090000Y-220980000D02*
X240030000Y-220980000D01*
X85090000Y-215900000D02*
X85090000Y-221566421D01*
X240030000Y-215900000D02*
X240030000Y-221566421D01*
X240030000Y-220980000D02*
X238903496Y-221566421D01*
X240030000Y-220980000D02*
X238903496Y-220393579D01*
X85090000Y-220980000D02*
X86216504Y-221566421D01*
X85090000Y-220980000D02*
X86216504Y-220393579D01*
D10*
X257357619Y-139462380D02*
X257357619Y-138890952D01*
X257357619Y-139176666D02*
X258357619Y-139176666D01*
X258214761Y-139081428D01*
X258119523Y-138986190D01*
X258071904Y-138890952D01*
X258024285Y-140319523D02*
X257357619Y-140319523D01*
X258405238Y-140081428D02*
X257690952Y-139843333D01*
X257690952Y-140462380D01*
X258024285Y-141271904D02*
X257357619Y-141271904D01*
X258405238Y-141033809D02*
X257690952Y-140795714D01*
X257690952Y-141414761D01*
X257452857Y-141795714D02*
X257405238Y-141843333D01*
X257357619Y-141795714D01*
X257405238Y-141748095D01*
X257452857Y-141795714D01*
X257357619Y-141795714D01*
X258357619Y-142176666D02*
X258357619Y-142843333D01*
X257357619Y-142414761D01*
X257929047Y-143367142D02*
X257976666Y-143271904D01*
X258024285Y-143224285D01*
X258119523Y-143176666D01*
X258167142Y-143176666D01*
X258262380Y-143224285D01*
X258310000Y-143271904D01*
X258357619Y-143367142D01*
X258357619Y-143557619D01*
X258310000Y-143652857D01*
X258262380Y-143700476D01*
X258167142Y-143748095D01*
X258119523Y-143748095D01*
X258024285Y-143700476D01*
X257976666Y-143652857D01*
X257929047Y-143557619D01*
X257929047Y-143367142D01*
X257881428Y-143271904D01*
X257833809Y-143224285D01*
X257738571Y-143176666D01*
X257548095Y-143176666D01*
X257452857Y-143224285D01*
X257405238Y-143271904D01*
X257357619Y-143367142D01*
X257357619Y-143557619D01*
X257405238Y-143652857D01*
X257452857Y-143700476D01*
X257548095Y-143748095D01*
X257738571Y-143748095D01*
X257833809Y-143700476D01*
X257881428Y-143652857D01*
X257929047Y-143557619D01*
X258357619Y-144367142D02*
X258357619Y-144462380D01*
X258310000Y-144557619D01*
X258262380Y-144605238D01*
X258167142Y-144652857D01*
X257976666Y-144700476D01*
X257738571Y-144700476D01*
X257548095Y-144652857D01*
X257452857Y-144605238D01*
X257405238Y-144557619D01*
X257357619Y-144462380D01*
X257357619Y-144367142D01*
X257405238Y-144271904D01*
X257452857Y-144224285D01*
X257548095Y-144176666D01*
X257738571Y-144129047D01*
X257976666Y-144129047D01*
X258167142Y-144176666D01*
X258262380Y-144224285D01*
X258310000Y-144271904D01*
X258357619Y-144367142D01*
X257357619Y-145890952D02*
X258024285Y-145890952D01*
X257929047Y-145890952D02*
X257976666Y-145938571D01*
X258024285Y-146033809D01*
X258024285Y-146176666D01*
X257976666Y-146271904D01*
X257881428Y-146319523D01*
X257357619Y-146319523D01*
X257881428Y-146319523D02*
X257976666Y-146367142D01*
X258024285Y-146462380D01*
X258024285Y-146605238D01*
X257976666Y-146700476D01*
X257881428Y-146748095D01*
X257357619Y-146748095D01*
X257357619Y-147224285D02*
X258024285Y-147224285D01*
X257929047Y-147224285D02*
X257976666Y-147271904D01*
X258024285Y-147367142D01*
X258024285Y-147510000D01*
X257976666Y-147605238D01*
X257881428Y-147652857D01*
X257357619Y-147652857D01*
X257881428Y-147652857D02*
X257976666Y-147700476D01*
X258024285Y-147795714D01*
X258024285Y-147938571D01*
X257976666Y-148033809D01*
X257881428Y-148081428D01*
X257357619Y-148081428D01*
D11*
X256540000Y-71120000D02*
X256540000Y-215900000D01*
X240030000Y-71120000D02*
X257126421Y-71120000D01*
X240030000Y-215900000D02*
X257126421Y-215900000D01*
X256540000Y-215900000D02*
X255953579Y-214773496D01*
X256540000Y-215900000D02*
X257126421Y-214773496D01*
X256540000Y-71120000D02*
X255953579Y-72246504D01*
X256540000Y-71120000D02*
X257126421Y-72246504D01*
D12*
X127303333Y-205898333D02*
X128255714Y-205898333D01*
X127112857Y-206469761D02*
X127779523Y-204469761D01*
X128446190Y-206469761D01*
X129112857Y-206469761D02*
X129112857Y-205136428D01*
X129112857Y-205326904D02*
X129208095Y-205231666D01*
X129398571Y-205136428D01*
X129684285Y-205136428D01*
X129874761Y-205231666D01*
X129970000Y-205422142D01*
X129970000Y-206469761D01*
X129970000Y-205422142D02*
X130065238Y-205231666D01*
X130255714Y-205136428D01*
X130541428Y-205136428D01*
X130731904Y-205231666D01*
X130827142Y-205422142D01*
X130827142Y-206469761D01*
X131779523Y-205136428D02*
X131779523Y-207136428D01*
X131779523Y-205231666D02*
X131970000Y-205136428D01*
X132350952Y-205136428D01*
X132541428Y-205231666D01*
X132636666Y-205326904D01*
X132731904Y-205517380D01*
X132731904Y-206088809D01*
X132636666Y-206279285D01*
X132541428Y-206374523D01*
X132350952Y-206469761D01*
X131970000Y-206469761D01*
X131779523Y-206374523D01*
X133874761Y-206469761D02*
X133684285Y-206374523D01*
X133589047Y-206184047D01*
X133589047Y-204469761D01*
X134636666Y-206469761D02*
X134636666Y-205136428D01*
X134636666Y-204469761D02*
X134541428Y-204565000D01*
X134636666Y-204660238D01*
X134731904Y-204565000D01*
X134636666Y-204469761D01*
X134636666Y-204660238D01*
X135303333Y-205136428D02*
X136065238Y-205136428D01*
X135589047Y-204469761D02*
X135589047Y-206184047D01*
X135684285Y-206374523D01*
X135874761Y-206469761D01*
X136065238Y-206469761D01*
X137589047Y-205136428D02*
X137589047Y-206469761D01*
X136731904Y-205136428D02*
X136731904Y-206184047D01*
X136827142Y-206374523D01*
X137017619Y-206469761D01*
X137303333Y-206469761D01*
X137493809Y-206374523D01*
X137589047Y-206279285D01*
X139398571Y-206469761D02*
X139398571Y-204469761D01*
X139398571Y-206374523D02*
X139208095Y-206469761D01*
X138827142Y-206469761D01*
X138636666Y-206374523D01*
X138541428Y-206279285D01*
X138446190Y-206088809D01*
X138446190Y-205517380D01*
X138541428Y-205326904D01*
X138636666Y-205231666D01*
X138827142Y-205136428D01*
X139208095Y-205136428D01*
X139398571Y-205231666D01*
X141112857Y-206374523D02*
X140922380Y-206469761D01*
X140541428Y-206469761D01*
X140350952Y-206374523D01*
X140255714Y-206184047D01*
X140255714Y-205422142D01*
X140350952Y-205231666D01*
X140541428Y-205136428D01*
X140922380Y-205136428D01*
X141112857Y-205231666D01*
X141208095Y-205422142D01*
X141208095Y-205612619D01*
X140255714Y-205803095D01*
X144541428Y-206469761D02*
X143589047Y-206469761D01*
X143589047Y-204469761D01*
X145208095Y-206469761D02*
X145208095Y-205136428D01*
X145208095Y-204469761D02*
X145112857Y-204565000D01*
X145208095Y-204660238D01*
X145303333Y-204565000D01*
X145208095Y-204469761D01*
X145208095Y-204660238D01*
X147017619Y-205136428D02*
X147017619Y-206755476D01*
X146922380Y-206945952D01*
X146827142Y-207041190D01*
X146636666Y-207136428D01*
X146350952Y-207136428D01*
X146160476Y-207041190D01*
X147017619Y-206374523D02*
X146827142Y-206469761D01*
X146446190Y-206469761D01*
X146255714Y-206374523D01*
X146160476Y-206279285D01*
X146065238Y-206088809D01*
X146065238Y-205517380D01*
X146160476Y-205326904D01*
X146255714Y-205231666D01*
X146446190Y-205136428D01*
X146827142Y-205136428D01*
X147017619Y-205231666D01*
X147970000Y-206469761D02*
X147970000Y-204469761D01*
X148827142Y-206469761D02*
X148827142Y-205422142D01*
X148731904Y-205231666D01*
X148541428Y-205136428D01*
X148255714Y-205136428D01*
X148065238Y-205231666D01*
X147970000Y-205326904D01*
X149493809Y-205136428D02*
X150255714Y-205136428D01*
X149779523Y-204469761D02*
X149779523Y-206184047D01*
X149874761Y-206374523D01*
X150065238Y-206469761D01*
X150255714Y-206469761D01*
X150922380Y-206469761D02*
X150922380Y-205136428D01*
X150922380Y-204469761D02*
X150827142Y-204565000D01*
X150922380Y-204660238D01*
X151017619Y-204565000D01*
X150922380Y-204469761D01*
X150922380Y-204660238D01*
X151874761Y-205136428D02*
X151874761Y-206469761D01*
X151874761Y-205326904D02*
X151970000Y-205231666D01*
X152160476Y-205136428D01*
X152446190Y-205136428D01*
X152636666Y-205231666D01*
X152731904Y-205422142D01*
X152731904Y-206469761D01*
X154541428Y-205136428D02*
X154541428Y-206755476D01*
X154446190Y-206945952D01*
X154350952Y-207041190D01*
X154160476Y-207136428D01*
X153874761Y-207136428D01*
X153684285Y-207041190D01*
X154541428Y-206374523D02*
X154350952Y-206469761D01*
X153970000Y-206469761D01*
X153779523Y-206374523D01*
X153684285Y-206279285D01*
X153589047Y-206088809D01*
X153589047Y-205517380D01*
X153684285Y-205326904D01*
X153779523Y-205231666D01*
X153970000Y-205136428D01*
X154350952Y-205136428D01*
X154541428Y-205231666D01*
X129303333Y-208772142D02*
X129589047Y-208867380D01*
X129684285Y-208962619D01*
X129779523Y-209153095D01*
X129779523Y-209438809D01*
X129684285Y-209629285D01*
X129589047Y-209724523D01*
X129398571Y-209819761D01*
X128636666Y-209819761D01*
X128636666Y-207819761D01*
X129303333Y-207819761D01*
X129493809Y-207915000D01*
X129589047Y-208010238D01*
X129684285Y-208200714D01*
X129684285Y-208391190D01*
X129589047Y-208581666D01*
X129493809Y-208676904D01*
X129303333Y-208772142D01*
X128636666Y-208772142D01*
X130636666Y-209819761D02*
X130636666Y-208486428D01*
X130636666Y-207819761D02*
X130541428Y-207915000D01*
X130636666Y-208010238D01*
X130731904Y-207915000D01*
X130636666Y-207819761D01*
X130636666Y-208010238D01*
X132446190Y-208486428D02*
X132446190Y-210105476D01*
X132350952Y-210295952D01*
X132255714Y-210391190D01*
X132065238Y-210486428D01*
X131779523Y-210486428D01*
X131589047Y-210391190D01*
X132446190Y-209724523D02*
X132255714Y-209819761D01*
X131874761Y-209819761D01*
X131684285Y-209724523D01*
X131589047Y-209629285D01*
X131493809Y-209438809D01*
X131493809Y-208867380D01*
X131589047Y-208676904D01*
X131684285Y-208581666D01*
X131874761Y-208486428D01*
X132255714Y-208486428D01*
X132446190Y-208581666D01*
X135589047Y-208772142D02*
X135874761Y-208867380D01*
X135970000Y-208962619D01*
X136065238Y-209153095D01*
X136065238Y-209438809D01*
X135970000Y-209629285D01*
X135874761Y-209724523D01*
X135684285Y-209819761D01*
X134922380Y-209819761D01*
X134922380Y-207819761D01*
X135589047Y-207819761D01*
X135779523Y-207915000D01*
X135874761Y-208010238D01*
X135970000Y-208200714D01*
X135970000Y-208391190D01*
X135874761Y-208581666D01*
X135779523Y-208676904D01*
X135589047Y-208772142D01*
X134922380Y-208772142D01*
X137208095Y-209819761D02*
X137017619Y-209724523D01*
X136922380Y-209629285D01*
X136827142Y-209438809D01*
X136827142Y-208867380D01*
X136922380Y-208676904D01*
X137017619Y-208581666D01*
X137208095Y-208486428D01*
X137493809Y-208486428D01*
X137684285Y-208581666D01*
X137779523Y-208676904D01*
X137874761Y-208867380D01*
X137874761Y-209438809D01*
X137779523Y-209629285D01*
X137684285Y-209724523D01*
X137493809Y-209819761D01*
X137208095Y-209819761D01*
X138541428Y-208486428D02*
X139017619Y-209819761D01*
X139493809Y-208486428D02*
X139017619Y-209819761D01*
X138827142Y-210295952D01*
X138731904Y-210391190D01*
X138541428Y-210486428D01*
X142922380Y-209819761D02*
X142255714Y-208867380D01*
X141779523Y-209819761D02*
X141779523Y-207819761D01*
X142541428Y-207819761D01*
X142731904Y-207915000D01*
X142827142Y-208010238D01*
X142922380Y-208200714D01*
X142922380Y-208486428D01*
X142827142Y-208676904D01*
X142731904Y-208772142D01*
X142541428Y-208867380D01*
X141779523Y-208867380D01*
X144541428Y-209724523D02*
X144350952Y-209819761D01*
X143970000Y-209819761D01*
X143779523Y-209724523D01*
X143684285Y-209534047D01*
X143684285Y-208772142D01*
X143779523Y-208581666D01*
X143970000Y-208486428D01*
X144350952Y-208486428D01*
X144541428Y-208581666D01*
X144636666Y-208772142D01*
X144636666Y-208962619D01*
X143684285Y-209153095D01*
X145303333Y-208486428D02*
X145779523Y-209819761D01*
X146255714Y-208486428D01*
X147017619Y-209629285D02*
X147112857Y-209724523D01*
X147017619Y-209819761D01*
X146922380Y-209724523D01*
X147017619Y-209629285D01*
X147017619Y-209819761D01*
X150541428Y-209819761D02*
X149398571Y-209819761D01*
X149970000Y-209819761D02*
X149970000Y-207819761D01*
X149779523Y-208105476D01*
X149589047Y-208295952D01*
X149398571Y-208391190D01*
X151398571Y-209629285D02*
X151493809Y-209724523D01*
X151398571Y-209819761D01*
X151303333Y-209724523D01*
X151398571Y-209629285D01*
X151398571Y-209819761D01*
X153398571Y-209819761D02*
X152255714Y-209819761D01*
X152827142Y-209819761D02*
X152827142Y-207819761D01*
X152636666Y-208105476D01*
X152446190Y-208295952D01*
X152255714Y-208391190D01*
X135112857Y-213169761D02*
X134446190Y-212217380D01*
X133970000Y-213169761D02*
X133970000Y-211169761D01*
X134731904Y-211169761D01*
X134922380Y-211265000D01*
X135017619Y-211360238D01*
X135112857Y-211550714D01*
X135112857Y-211836428D01*
X135017619Y-212026904D01*
X134922380Y-212122142D01*
X134731904Y-212217380D01*
X133970000Y-212217380D01*
X135970000Y-212979285D02*
X136065238Y-213074523D01*
X135970000Y-213169761D01*
X135874761Y-213074523D01*
X135970000Y-212979285D01*
X135970000Y-213169761D01*
X139589047Y-212979285D02*
X139493809Y-213074523D01*
X139208095Y-213169761D01*
X139017619Y-213169761D01*
X138731904Y-213074523D01*
X138541428Y-212884047D01*
X138446190Y-212693571D01*
X138350952Y-212312619D01*
X138350952Y-212026904D01*
X138446190Y-211645952D01*
X138541428Y-211455476D01*
X138731904Y-211265000D01*
X139017619Y-211169761D01*
X139208095Y-211169761D01*
X139493809Y-211265000D01*
X139589047Y-211360238D01*
X140446190Y-213169761D02*
X140446190Y-211169761D01*
X141303333Y-213169761D02*
X141303333Y-212122142D01*
X141208095Y-211931666D01*
X141017619Y-211836428D01*
X140731904Y-211836428D01*
X140541428Y-211931666D01*
X140446190Y-212026904D01*
X143112857Y-213169761D02*
X143112857Y-212122142D01*
X143017619Y-211931666D01*
X142827142Y-211836428D01*
X142446190Y-211836428D01*
X142255714Y-211931666D01*
X143112857Y-213074523D02*
X142922380Y-213169761D01*
X142446190Y-213169761D01*
X142255714Y-213074523D01*
X142160476Y-212884047D01*
X142160476Y-212693571D01*
X142255714Y-212503095D01*
X142446190Y-212407857D01*
X142922380Y-212407857D01*
X143112857Y-212312619D01*
X143874761Y-211836428D02*
X144350952Y-213169761D01*
X144827142Y-211836428D01*
X146350952Y-213074523D02*
X146160476Y-213169761D01*
X145779523Y-213169761D01*
X145589047Y-213074523D01*
X145493809Y-212884047D01*
X145493809Y-212122142D01*
X145589047Y-211931666D01*
X145779523Y-211836428D01*
X146160476Y-211836428D01*
X146350952Y-211931666D01*
X146446190Y-212122142D01*
X146446190Y-212312619D01*
X145493809Y-212503095D01*
X147112857Y-211836428D02*
X148160476Y-211836428D01*
X147112857Y-213169761D01*
X148160476Y-213169761D01*
D11*
X95250000Y-171838401D02*
X95250000Y-166758401D01*
X105410000Y-171838401D02*
X95250000Y-171838401D01*
X105410000Y-166758401D02*
X105410000Y-171838401D01*
X95250000Y-166758401D02*
X105410000Y-166758401D01*
X224790000Y-167640000D02*
X228600000Y-167640000D01*
X224790000Y-203200000D02*
X224790000Y-167640000D01*
X228600000Y-203200000D02*
X224790000Y-203200000D01*
X240030000Y-203200000D02*
X228600000Y-203200000D01*
X240030000Y-167640000D02*
X240030000Y-203200000D01*
X228600000Y-167640000D02*
X240030000Y-167640000D01*
X224790000Y-127000000D02*
X228600000Y-127000000D01*
X224790000Y-162560000D02*
X224790000Y-127000000D01*
X228600000Y-162560000D02*
X224790000Y-162560000D01*
X240030000Y-162560000D02*
X228600000Y-162560000D01*
X240030000Y-127000000D02*
X240030000Y-162560000D01*
X228600000Y-127000000D02*
X240030000Y-127000000D01*
X224790000Y-86360000D02*
X228600000Y-86360000D01*
X224790000Y-121920000D02*
X224790000Y-86360000D01*
X228600000Y-121920000D02*
X224790000Y-121920000D01*
X240030000Y-121920000D02*
X228600000Y-121920000D01*
X240030000Y-86360000D02*
X240030000Y-121920000D01*
X228600000Y-86360000D02*
X240030000Y-86360000D01*
X186690000Y-105540000D02*
X189230000Y-105540000D01*
X198620000Y-108840000D02*
X196360000Y-108840000D01*
X198620000Y-106600000D02*
X196760000Y-106600000D01*
X198620000Y-122000000D02*
X198620000Y-106600000D01*
X165420000Y-122000000D02*
X198620000Y-122000000D01*
X165420000Y-106600000D02*
X165420000Y-122000000D01*
X191860000Y-106600000D02*
X165420000Y-106600000D01*
X195210000Y-107290000D02*
G75*
G03X195210000Y-107290000I-900000J0D01*
G01*
X196860000Y-107290000D02*
G75*
G03X196860000Y-107290000I-2550000J0D01*
G01*
X126359543Y-85975000D02*
X126359543Y-84575000D01*
X127059543Y-85275000D02*
X125659543Y-85275000D01*
X112359000Y-81994000D02*
X112359000Y-80566000D01*
X112399000Y-82305000D02*
X112399000Y-80255000D01*
X112439000Y-82542000D02*
X112439000Y-80018000D01*
X112479000Y-82741000D02*
X112479000Y-79819000D01*
X112519000Y-82916000D02*
X112519000Y-79644000D01*
X112559000Y-83074000D02*
X112559000Y-79486000D01*
X112599000Y-83218000D02*
X112599000Y-79342000D01*
X112639000Y-83351000D02*
X112639000Y-79209000D01*
X112679000Y-83476000D02*
X112679000Y-79084000D01*
X112719000Y-83593000D02*
X112719000Y-78967000D01*
X112759000Y-83705000D02*
X112759000Y-78855000D01*
X112799000Y-83810000D02*
X112799000Y-78750000D01*
X112839000Y-83912000D02*
X112839000Y-78648000D01*
X112879000Y-84008000D02*
X112879000Y-78552000D01*
X112919000Y-84101000D02*
X112919000Y-78459000D01*
X112959000Y-84191000D02*
X112959000Y-78369000D01*
X112999000Y-84277000D02*
X112999000Y-78283000D01*
X113039000Y-84360000D02*
X113039000Y-78200000D01*
X113079000Y-84441000D02*
X113079000Y-78119000D01*
X113119000Y-84520000D02*
X113119000Y-78040000D01*
X113159000Y-84595000D02*
X113159000Y-77965000D01*
X113199000Y-84669000D02*
X113199000Y-77891000D01*
X113239000Y-84741000D02*
X113239000Y-77819000D01*
X113279000Y-84811000D02*
X113279000Y-77749000D01*
X113319000Y-84879000D02*
X113319000Y-77681000D01*
X113359000Y-84946000D02*
X113359000Y-77614000D01*
X113399000Y-85010000D02*
X113399000Y-77550000D01*
X113439000Y-85074000D02*
X113439000Y-77486000D01*
X113479000Y-85136000D02*
X113479000Y-77424000D01*
X113519000Y-85196000D02*
X113519000Y-77364000D01*
X113559000Y-85255000D02*
X113559000Y-77305000D01*
X113599000Y-85313000D02*
X113599000Y-77247000D01*
X113639000Y-85370000D02*
X113639000Y-77190000D01*
X113679000Y-85426000D02*
X113679000Y-77134000D01*
X113719000Y-85480000D02*
X113719000Y-77080000D01*
X113759000Y-85534000D02*
X113759000Y-77026000D01*
X113799000Y-85586000D02*
X113799000Y-76974000D01*
X113839000Y-85638000D02*
X113839000Y-76922000D01*
X113879000Y-85688000D02*
X113879000Y-76872000D01*
X113919000Y-85738000D02*
X113919000Y-76822000D01*
X113959000Y-85786000D02*
X113959000Y-76774000D01*
X113999000Y-85834000D02*
X113999000Y-76726000D01*
X114039000Y-85881000D02*
X114039000Y-76679000D01*
X114079000Y-85927000D02*
X114079000Y-76633000D01*
X114119000Y-85973000D02*
X114119000Y-76587000D01*
X114159000Y-86017000D02*
X114159000Y-76543000D01*
X114199000Y-86061000D02*
X114199000Y-76499000D01*
X114239000Y-86104000D02*
X114239000Y-76456000D01*
X114279000Y-79840000D02*
X114279000Y-76414000D01*
X114279000Y-86146000D02*
X114279000Y-82720000D01*
X114319000Y-79840000D02*
X114319000Y-76372000D01*
X114319000Y-86188000D02*
X114319000Y-82720000D01*
X114359000Y-79840000D02*
X114359000Y-76331000D01*
X114359000Y-86229000D02*
X114359000Y-82720000D01*
X114399000Y-79840000D02*
X114399000Y-76290000D01*
X114399000Y-86270000D02*
X114399000Y-82720000D01*
X114439000Y-79840000D02*
X114439000Y-76251000D01*
X114439000Y-86309000D02*
X114439000Y-82720000D01*
X114479000Y-79840000D02*
X114479000Y-76211000D01*
X114479000Y-86349000D02*
X114479000Y-82720000D01*
X114519000Y-79840000D02*
X114519000Y-76173000D01*
X114519000Y-86387000D02*
X114519000Y-82720000D01*
X114559000Y-79840000D02*
X114559000Y-76135000D01*
X114559000Y-86425000D02*
X114559000Y-82720000D01*
X114599000Y-79840000D02*
X114599000Y-76098000D01*
X114599000Y-86462000D02*
X114599000Y-82720000D01*
X114639000Y-79840000D02*
X114639000Y-76061000D01*
X114639000Y-86499000D02*
X114639000Y-82720000D01*
X114679000Y-79840000D02*
X114679000Y-76025000D01*
X114679000Y-86535000D02*
X114679000Y-82720000D01*
X114719000Y-79840000D02*
X114719000Y-75989000D01*
X114719000Y-86571000D02*
X114719000Y-82720000D01*
X114759000Y-79840000D02*
X114759000Y-75954000D01*
X114759000Y-86606000D02*
X114759000Y-82720000D01*
X114799000Y-79840000D02*
X114799000Y-75919000D01*
X114799000Y-86641000D02*
X114799000Y-82720000D01*
X114839000Y-79840000D02*
X114839000Y-75885000D01*
X114839000Y-86675000D02*
X114839000Y-82720000D01*
X114879000Y-79840000D02*
X114879000Y-75851000D01*
X114879000Y-86709000D02*
X114879000Y-82720000D01*
X114919000Y-79840000D02*
X114919000Y-75818000D01*
X114919000Y-86742000D02*
X114919000Y-82720000D01*
X114959000Y-79840000D02*
X114959000Y-75786000D01*
X114959000Y-86774000D02*
X114959000Y-82720000D01*
X114999000Y-79840000D02*
X114999000Y-75753000D01*
X114999000Y-86807000D02*
X114999000Y-82720000D01*
X115039000Y-79840000D02*
X115039000Y-75722000D01*
X115039000Y-86838000D02*
X115039000Y-82720000D01*
X115079000Y-79840000D02*
X115079000Y-75691000D01*
X115079000Y-86869000D02*
X115079000Y-82720000D01*
X115119000Y-79840000D02*
X115119000Y-75660000D01*
X115119000Y-86900000D02*
X115119000Y-82720000D01*
X115159000Y-79840000D02*
X115159000Y-75630000D01*
X115159000Y-86930000D02*
X115159000Y-82720000D01*
X115199000Y-79840000D02*
X115199000Y-75600000D01*
X115199000Y-86960000D02*
X115199000Y-82720000D01*
X115239000Y-79840000D02*
X115239000Y-75570000D01*
X115239000Y-86990000D02*
X115239000Y-82720000D01*
X115279000Y-79840000D02*
X115279000Y-75541000D01*
X115279000Y-87019000D02*
X115279000Y-82720000D01*
X115319000Y-79840000D02*
X115319000Y-75513000D01*
X115319000Y-87047000D02*
X115319000Y-82720000D01*
X115359000Y-79840000D02*
X115359000Y-75484000D01*
X115359000Y-87076000D02*
X115359000Y-82720000D01*
X115399000Y-79840000D02*
X115399000Y-75457000D01*
X115399000Y-87103000D02*
X115399000Y-82720000D01*
X115439000Y-79840000D02*
X115439000Y-75429000D01*
X115439000Y-87131000D02*
X115439000Y-82720000D01*
X115479000Y-79840000D02*
X115479000Y-75402000D01*
X115479000Y-87158000D02*
X115479000Y-82720000D01*
X115519000Y-79840000D02*
X115519000Y-75376000D01*
X115519000Y-87184000D02*
X115519000Y-82720000D01*
X115559000Y-79840000D02*
X115559000Y-75350000D01*
X115559000Y-87210000D02*
X115559000Y-82720000D01*
X115599000Y-79840000D02*
X115599000Y-75324000D01*
X115599000Y-87236000D02*
X115599000Y-82720000D01*
X115639000Y-79840000D02*
X115639000Y-75298000D01*
X115639000Y-87262000D02*
X115639000Y-82720000D01*
X115679000Y-79840000D02*
X115679000Y-75273000D01*
X115679000Y-87287000D02*
X115679000Y-82720000D01*
X115719000Y-79840000D02*
X115719000Y-75249000D01*
X115719000Y-87311000D02*
X115719000Y-82720000D01*
X115759000Y-79840000D02*
X115759000Y-75224000D01*
X115759000Y-87336000D02*
X115759000Y-82720000D01*
X115799000Y-79840000D02*
X115799000Y-75200000D01*
X115799000Y-87360000D02*
X115799000Y-82720000D01*
X115839000Y-79840000D02*
X115839000Y-75177000D01*
X115839000Y-87383000D02*
X115839000Y-82720000D01*
X115879000Y-79840000D02*
X115879000Y-75153000D01*
X115879000Y-87407000D02*
X115879000Y-82720000D01*
X115919000Y-79840000D02*
X115919000Y-75130000D01*
X115919000Y-87430000D02*
X115919000Y-82720000D01*
X115959000Y-79840000D02*
X115959000Y-75108000D01*
X115959000Y-87452000D02*
X115959000Y-82720000D01*
X115999000Y-79840000D02*
X115999000Y-75086000D01*
X115999000Y-87474000D02*
X115999000Y-82720000D01*
X116039000Y-79840000D02*
X116039000Y-75064000D01*
X116039000Y-87496000D02*
X116039000Y-82720000D01*
X116079000Y-79840000D02*
X116079000Y-75042000D01*
X116079000Y-87518000D02*
X116079000Y-82720000D01*
X116119000Y-79840000D02*
X116119000Y-75021000D01*
X116119000Y-87539000D02*
X116119000Y-82720000D01*
X116159000Y-79840000D02*
X116159000Y-75000000D01*
X116159000Y-87560000D02*
X116159000Y-82720000D01*
X116199000Y-79840000D02*
X116199000Y-74979000D01*
X116199000Y-87581000D02*
X116199000Y-82720000D01*
X116239000Y-79840000D02*
X116239000Y-74959000D01*
X116239000Y-87601000D02*
X116239000Y-82720000D01*
X116279000Y-79840000D02*
X116279000Y-74939000D01*
X116279000Y-87621000D02*
X116279000Y-82720000D01*
X116319000Y-79840000D02*
X116319000Y-74920000D01*
X116319000Y-87640000D02*
X116319000Y-82720000D01*
X116359000Y-79840000D02*
X116359000Y-74900000D01*
X116359000Y-87660000D02*
X116359000Y-82720000D01*
X116399000Y-79840000D02*
X116399000Y-74881000D01*
X116399000Y-87679000D02*
X116399000Y-82720000D01*
X116439000Y-79840000D02*
X116439000Y-74862000D01*
X116439000Y-87698000D02*
X116439000Y-82720000D01*
X116479000Y-79840000D02*
X116479000Y-74844000D01*
X116479000Y-87716000D02*
X116479000Y-82720000D01*
X116519000Y-79840000D02*
X116519000Y-74826000D01*
X116519000Y-87734000D02*
X116519000Y-82720000D01*
X116559000Y-79840000D02*
X116559000Y-74808000D01*
X116559000Y-87752000D02*
X116559000Y-82720000D01*
X116599000Y-79840000D02*
X116599000Y-74790000D01*
X116599000Y-87770000D02*
X116599000Y-82720000D01*
X116639000Y-79840000D02*
X116639000Y-74773000D01*
X116639000Y-87787000D02*
X116639000Y-82720000D01*
X116679000Y-79840000D02*
X116679000Y-74756000D01*
X116679000Y-87804000D02*
X116679000Y-82720000D01*
X116719000Y-79840000D02*
X116719000Y-74740000D01*
X116719000Y-87820000D02*
X116719000Y-82720000D01*
X116759000Y-79840000D02*
X116759000Y-74723000D01*
X116759000Y-87837000D02*
X116759000Y-82720000D01*
X116799000Y-79840000D02*
X116799000Y-74707000D01*
X116799000Y-87853000D02*
X116799000Y-82720000D01*
X116839000Y-79840000D02*
X116839000Y-74691000D01*
X116839000Y-87869000D02*
X116839000Y-82720000D01*
X116879000Y-79840000D02*
X116879000Y-74676000D01*
X116879000Y-87884000D02*
X116879000Y-82720000D01*
X116919000Y-79840000D02*
X116919000Y-74660000D01*
X116919000Y-87900000D02*
X116919000Y-82720000D01*
X116959000Y-79840000D02*
X116959000Y-74645000D01*
X116959000Y-87915000D02*
X116959000Y-82720000D01*
X116999000Y-79840000D02*
X116999000Y-74631000D01*
X116999000Y-87929000D02*
X116999000Y-82720000D01*
X117039000Y-79840000D02*
X117039000Y-74616000D01*
X117039000Y-87944000D02*
X117039000Y-82720000D01*
X117079000Y-79840000D02*
X117079000Y-74602000D01*
X117079000Y-87958000D02*
X117079000Y-82720000D01*
X117119000Y-79840000D02*
X117119000Y-74588000D01*
X117119000Y-87972000D02*
X117119000Y-82720000D01*
X117159000Y-87986000D02*
X117159000Y-74574000D01*
X117199000Y-87999000D02*
X117199000Y-74561000D01*
X117239000Y-88012000D02*
X117239000Y-74548000D01*
X117279000Y-88025000D02*
X117279000Y-74535000D01*
X117319000Y-88038000D02*
X117319000Y-74522000D01*
X117359000Y-88050000D02*
X117359000Y-74510000D01*
X117399000Y-88062000D02*
X117399000Y-74498000D01*
X117439000Y-88074000D02*
X117439000Y-74486000D01*
X117479000Y-88085000D02*
X117479000Y-74475000D01*
X117519000Y-88097000D02*
X117519000Y-74463000D01*
X117559000Y-88108000D02*
X117559000Y-74452000D01*
X117599000Y-88119000D02*
X117599000Y-74441000D01*
X117639000Y-88129000D02*
X117639000Y-74431000D01*
X117679000Y-88140000D02*
X117679000Y-74420000D01*
X117719000Y-88150000D02*
X117719000Y-74410000D01*
X117759000Y-88159000D02*
X117759000Y-74401000D01*
X117799000Y-88169000D02*
X117799000Y-74391000D01*
X117839000Y-88178000D02*
X117839000Y-74382000D01*
X117879000Y-88187000D02*
X117879000Y-74373000D01*
X117919000Y-88196000D02*
X117919000Y-74364000D01*
X117959000Y-88205000D02*
X117959000Y-74355000D01*
X117999000Y-88213000D02*
X117999000Y-74347000D01*
X118039000Y-88222000D02*
X118039000Y-74338000D01*
X118079000Y-88229000D02*
X118079000Y-74331000D01*
X118119000Y-88237000D02*
X118119000Y-74323000D01*
X118159000Y-88244000D02*
X118159000Y-74316000D01*
X118199000Y-88252000D02*
X118199000Y-74308000D01*
X118239000Y-88259000D02*
X118239000Y-74301000D01*
X118279000Y-88265000D02*
X118279000Y-74295000D01*
X118319000Y-88272000D02*
X118319000Y-74288000D01*
X118359000Y-88278000D02*
X118359000Y-74282000D01*
X118399000Y-88284000D02*
X118399000Y-74276000D01*
X118439000Y-88290000D02*
X118439000Y-74270000D01*
X118479000Y-88295000D02*
X118479000Y-74265000D01*
X118519000Y-88301000D02*
X118519000Y-74259000D01*
X118559000Y-88306000D02*
X118559000Y-74254000D01*
X118599000Y-88311000D02*
X118599000Y-74249000D01*
X118639000Y-88315000D02*
X118639000Y-74245000D01*
X118679000Y-88320000D02*
X118679000Y-74240000D01*
X118719000Y-88324000D02*
X118719000Y-74236000D01*
X118760000Y-88328000D02*
X118760000Y-74232000D01*
X118800000Y-88332000D02*
X118800000Y-74228000D01*
X118840000Y-88335000D02*
X118840000Y-74225000D01*
X118880000Y-88338000D02*
X118880000Y-74222000D01*
X118920000Y-88341000D02*
X118920000Y-74219000D01*
X118960000Y-88344000D02*
X118960000Y-74216000D01*
X119000000Y-88347000D02*
X119000000Y-74213000D01*
X119040000Y-88349000D02*
X119040000Y-74211000D01*
X119080000Y-88351000D02*
X119080000Y-74209000D01*
X119120000Y-88353000D02*
X119120000Y-74207000D01*
X119160000Y-88355000D02*
X119160000Y-74205000D01*
X119200000Y-88356000D02*
X119200000Y-74204000D01*
X119240000Y-88358000D02*
X119240000Y-74202000D01*
X119280000Y-88359000D02*
X119280000Y-74201000D01*
X119320000Y-88359000D02*
X119320000Y-74201000D01*
X119360000Y-88360000D02*
X119360000Y-74200000D01*
X119400000Y-88360000D02*
X119400000Y-74200000D01*
X119440000Y-88360000D02*
X119440000Y-74200000D01*
X126560000Y-81280000D02*
G75*
G03X126560000Y-81280000I-7120000J0D01*
G01*
X94645241Y-172334000D02*
X94645241Y-171704000D01*
X94960241Y-172019000D02*
X94330241Y-172019000D01*
X88219000Y-170582000D02*
X88219000Y-169778000D01*
X88259000Y-170813000D02*
X88259000Y-169547000D01*
X88299000Y-170982000D02*
X88299000Y-169378000D01*
X88339000Y-171120000D02*
X88339000Y-169240000D01*
X88379000Y-171239000D02*
X88379000Y-169121000D01*
X88419000Y-171345000D02*
X88419000Y-169015000D01*
X88459000Y-171442000D02*
X88459000Y-168918000D01*
X88499000Y-171530000D02*
X88499000Y-168830000D01*
X88539000Y-171612000D02*
X88539000Y-168748000D01*
X88579000Y-171689000D02*
X88579000Y-168671000D01*
X88619000Y-171761000D02*
X88619000Y-168599000D01*
X88659000Y-171830000D02*
X88659000Y-168530000D01*
X88699000Y-171894000D02*
X88699000Y-168466000D01*
X88739000Y-171956000D02*
X88739000Y-168404000D01*
X88779000Y-172014000D02*
X88779000Y-168346000D01*
X88819000Y-172070000D02*
X88819000Y-168290000D01*
X88859000Y-172124000D02*
X88859000Y-168236000D01*
X88899000Y-172175000D02*
X88899000Y-168185000D01*
X88939000Y-172224000D02*
X88939000Y-168136000D01*
X88979000Y-172272000D02*
X88979000Y-168088000D01*
X89019000Y-172317000D02*
X89019000Y-168043000D01*
X89059000Y-172362000D02*
X89059000Y-167998000D01*
X89099000Y-172404000D02*
X89099000Y-167956000D01*
X89139000Y-172445000D02*
X89139000Y-167915000D01*
X89179000Y-169140000D02*
X89179000Y-167875000D01*
X89179000Y-172485000D02*
X89179000Y-171220000D01*
X89219000Y-169140000D02*
X89219000Y-167837000D01*
X89219000Y-172523000D02*
X89219000Y-171220000D01*
X89259000Y-169140000D02*
X89259000Y-167800000D01*
X89259000Y-172560000D02*
X89259000Y-171220000D01*
X89299000Y-169140000D02*
X89299000Y-167764000D01*
X89299000Y-172596000D02*
X89299000Y-171220000D01*
X89339000Y-169140000D02*
X89339000Y-167730000D01*
X89339000Y-172630000D02*
X89339000Y-171220000D01*
X89379000Y-169140000D02*
X89379000Y-167696000D01*
X89379000Y-172664000D02*
X89379000Y-171220000D01*
X89419000Y-169140000D02*
X89419000Y-167664000D01*
X89419000Y-172696000D02*
X89419000Y-171220000D01*
X89459000Y-169140000D02*
X89459000Y-167632000D01*
X89459000Y-172728000D02*
X89459000Y-171220000D01*
X89499000Y-169140000D02*
X89499000Y-167602000D01*
X89499000Y-172758000D02*
X89499000Y-171220000D01*
X89539000Y-169140000D02*
X89539000Y-167573000D01*
X89539000Y-172787000D02*
X89539000Y-171220000D01*
X89579000Y-169140000D02*
X89579000Y-167544000D01*
X89579000Y-172816000D02*
X89579000Y-171220000D01*
X89619000Y-169140000D02*
X89619000Y-167516000D01*
X89619000Y-172844000D02*
X89619000Y-171220000D01*
X89659000Y-169140000D02*
X89659000Y-167490000D01*
X89659000Y-172870000D02*
X89659000Y-171220000D01*
X89699000Y-169140000D02*
X89699000Y-167464000D01*
X89699000Y-172896000D02*
X89699000Y-171220000D01*
X89739000Y-169140000D02*
X89739000Y-167438000D01*
X89739000Y-172922000D02*
X89739000Y-171220000D01*
X89779000Y-169140000D02*
X89779000Y-167414000D01*
X89779000Y-172946000D02*
X89779000Y-171220000D01*
X89819000Y-169140000D02*
X89819000Y-167390000D01*
X89819000Y-172970000D02*
X89819000Y-171220000D01*
X89859000Y-169140000D02*
X89859000Y-167368000D01*
X89859000Y-172992000D02*
X89859000Y-171220000D01*
X89899000Y-169140000D02*
X89899000Y-167346000D01*
X89899000Y-173014000D02*
X89899000Y-171220000D01*
X89939000Y-169140000D02*
X89939000Y-167324000D01*
X89939000Y-173036000D02*
X89939000Y-171220000D01*
X89979000Y-169140000D02*
X89979000Y-167304000D01*
X89979000Y-173056000D02*
X89979000Y-171220000D01*
X90019000Y-169140000D02*
X90019000Y-167284000D01*
X90019000Y-173076000D02*
X90019000Y-171220000D01*
X90059000Y-169140000D02*
X90059000Y-167264000D01*
X90059000Y-173096000D02*
X90059000Y-171220000D01*
X90099000Y-169140000D02*
X90099000Y-167246000D01*
X90099000Y-173114000D02*
X90099000Y-171220000D01*
X90139000Y-169140000D02*
X90139000Y-167228000D01*
X90139000Y-173132000D02*
X90139000Y-171220000D01*
X90179000Y-169140000D02*
X90179000Y-167210000D01*
X90179000Y-173150000D02*
X90179000Y-171220000D01*
X90219000Y-169140000D02*
X90219000Y-167194000D01*
X90219000Y-173166000D02*
X90219000Y-171220000D01*
X90259000Y-169140000D02*
X90259000Y-167178000D01*
X90259000Y-173182000D02*
X90259000Y-171220000D01*
X90299000Y-169140000D02*
X90299000Y-167162000D01*
X90299000Y-173198000D02*
X90299000Y-171220000D01*
X90339000Y-169140000D02*
X90339000Y-167147000D01*
X90339000Y-173213000D02*
X90339000Y-171220000D01*
X90379000Y-169140000D02*
X90379000Y-167133000D01*
X90379000Y-173227000D02*
X90379000Y-171220000D01*
X90419000Y-169140000D02*
X90419000Y-167119000D01*
X90419000Y-173241000D02*
X90419000Y-171220000D01*
X90459000Y-169140000D02*
X90459000Y-167106000D01*
X90459000Y-173254000D02*
X90459000Y-171220000D01*
X90499000Y-169140000D02*
X90499000Y-167094000D01*
X90499000Y-173266000D02*
X90499000Y-171220000D01*
X90539000Y-169140000D02*
X90539000Y-167082000D01*
X90539000Y-173278000D02*
X90539000Y-171220000D01*
X90579000Y-169140000D02*
X90579000Y-167070000D01*
X90579000Y-173290000D02*
X90579000Y-171220000D01*
X90619000Y-169140000D02*
X90619000Y-167059000D01*
X90619000Y-173301000D02*
X90619000Y-171220000D01*
X90659000Y-169140000D02*
X90659000Y-167049000D01*
X90659000Y-173311000D02*
X90659000Y-171220000D01*
X90699000Y-169140000D02*
X90699000Y-167039000D01*
X90699000Y-173321000D02*
X90699000Y-171220000D01*
X90739000Y-169140000D02*
X90739000Y-167030000D01*
X90739000Y-173330000D02*
X90739000Y-171220000D01*
X90780000Y-169140000D02*
X90780000Y-167021000D01*
X90780000Y-173339000D02*
X90780000Y-171220000D01*
X90820000Y-169140000D02*
X90820000Y-167013000D01*
X90820000Y-173347000D02*
X90820000Y-171220000D01*
X90860000Y-169140000D02*
X90860000Y-167005000D01*
X90860000Y-173355000D02*
X90860000Y-171220000D01*
X90900000Y-169140000D02*
X90900000Y-166998000D01*
X90900000Y-173362000D02*
X90900000Y-171220000D01*
X90940000Y-169140000D02*
X90940000Y-166991000D01*
X90940000Y-173369000D02*
X90940000Y-171220000D01*
X90980000Y-169140000D02*
X90980000Y-166985000D01*
X90980000Y-173375000D02*
X90980000Y-171220000D01*
X91020000Y-169140000D02*
X91020000Y-166979000D01*
X91020000Y-173381000D02*
X91020000Y-171220000D01*
X91060000Y-169140000D02*
X91060000Y-166974000D01*
X91060000Y-173386000D02*
X91060000Y-171220000D01*
X91100000Y-169140000D02*
X91100000Y-166969000D01*
X91100000Y-173391000D02*
X91100000Y-171220000D01*
X91140000Y-169140000D02*
X91140000Y-166965000D01*
X91140000Y-173395000D02*
X91140000Y-171220000D01*
X91180000Y-169140000D02*
X91180000Y-166962000D01*
X91180000Y-173398000D02*
X91180000Y-171220000D01*
X91220000Y-169140000D02*
X91220000Y-166958000D01*
X91220000Y-173402000D02*
X91220000Y-171220000D01*
X91260000Y-173404000D02*
X91260000Y-166956000D01*
X91300000Y-173407000D02*
X91300000Y-166953000D01*
X91340000Y-173408000D02*
X91340000Y-166952000D01*
X91380000Y-173410000D02*
X91380000Y-166950000D01*
X91420000Y-173410000D02*
X91420000Y-166950000D01*
X91460000Y-173410000D02*
X91460000Y-166950000D01*
X94730000Y-170180000D02*
G75*
G03X94730000Y-170180000I-3270000J0D01*
G01*
X146330302Y-164925000D02*
X146330302Y-165725000D01*
X145930302Y-165325000D02*
X146730302Y-165325000D01*
X154421000Y-167107000D02*
X154421000Y-168173000D01*
X154381000Y-166872000D02*
X154381000Y-168408000D01*
X154341000Y-166692000D02*
X154341000Y-168588000D01*
X154301000Y-166542000D02*
X154301000Y-168738000D01*
X154261000Y-166411000D02*
X154261000Y-168869000D01*
X154221000Y-166294000D02*
X154221000Y-168986000D01*
X154181000Y-166187000D02*
X154181000Y-169093000D01*
X154141000Y-166088000D02*
X154141000Y-169192000D01*
X154101000Y-165995000D02*
X154101000Y-169285000D01*
X154061000Y-165909000D02*
X154061000Y-169371000D01*
X154021000Y-165827000D02*
X154021000Y-169453000D01*
X153981000Y-165750000D02*
X153981000Y-169530000D01*
X153941000Y-165676000D02*
X153941000Y-169604000D01*
X153901000Y-165606000D02*
X153901000Y-169674000D01*
X153861000Y-165538000D02*
X153861000Y-169742000D01*
X153821000Y-165474000D02*
X153821000Y-169806000D01*
X153781000Y-165412000D02*
X153781000Y-169868000D01*
X153741000Y-165353000D02*
X153741000Y-169927000D01*
X153701000Y-165295000D02*
X153701000Y-169985000D01*
X153661000Y-165240000D02*
X153661000Y-170040000D01*
X153621000Y-165186000D02*
X153621000Y-170094000D01*
X153581000Y-165135000D02*
X153581000Y-170145000D01*
X153541000Y-165084000D02*
X153541000Y-170196000D01*
X153501000Y-165036000D02*
X153501000Y-170244000D01*
X153461000Y-164989000D02*
X153461000Y-170291000D01*
X153421000Y-164943000D02*
X153421000Y-170337000D01*
X153381000Y-164899000D02*
X153381000Y-170381000D01*
X153341000Y-164856000D02*
X153341000Y-170424000D01*
X153301000Y-164814000D02*
X153301000Y-170466000D01*
X153261000Y-164773000D02*
X153261000Y-170507000D01*
X153221000Y-164733000D02*
X153221000Y-170547000D01*
X153181000Y-164695000D02*
X153181000Y-170585000D01*
X153141000Y-164657000D02*
X153141000Y-170623000D01*
X153101000Y-168680000D02*
X153101000Y-170659000D01*
X153101000Y-164621000D02*
X153101000Y-166600000D01*
X153061000Y-168680000D02*
X153061000Y-170695000D01*
X153061000Y-164585000D02*
X153061000Y-166600000D01*
X153021000Y-168680000D02*
X153021000Y-170730000D01*
X153021000Y-164550000D02*
X153021000Y-166600000D01*
X152981000Y-168680000D02*
X152981000Y-170764000D01*
X152981000Y-164516000D02*
X152981000Y-166600000D01*
X152941000Y-168680000D02*
X152941000Y-170796000D01*
X152941000Y-164484000D02*
X152941000Y-166600000D01*
X152901000Y-168680000D02*
X152901000Y-170829000D01*
X152901000Y-164451000D02*
X152901000Y-166600000D01*
X152861000Y-168680000D02*
X152861000Y-170860000D01*
X152861000Y-164420000D02*
X152861000Y-166600000D01*
X152821000Y-168680000D02*
X152821000Y-170890000D01*
X152821000Y-164390000D02*
X152821000Y-166600000D01*
X152781000Y-168680000D02*
X152781000Y-170920000D01*
X152781000Y-164360000D02*
X152781000Y-166600000D01*
X152741000Y-168680000D02*
X152741000Y-170949000D01*
X152741000Y-164331000D02*
X152741000Y-166600000D01*
X152701000Y-168680000D02*
X152701000Y-170978000D01*
X152701000Y-164302000D02*
X152701000Y-166600000D01*
X152661000Y-168680000D02*
X152661000Y-171005000D01*
X152661000Y-164275000D02*
X152661000Y-166600000D01*
X152621000Y-168680000D02*
X152621000Y-171032000D01*
X152621000Y-164248000D02*
X152621000Y-166600000D01*
X152581000Y-168680000D02*
X152581000Y-171058000D01*
X152581000Y-164222000D02*
X152581000Y-166600000D01*
X152541000Y-168680000D02*
X152541000Y-171084000D01*
X152541000Y-164196000D02*
X152541000Y-166600000D01*
X152501000Y-168680000D02*
X152501000Y-171109000D01*
X152501000Y-164171000D02*
X152501000Y-166600000D01*
X152461000Y-168680000D02*
X152461000Y-171133000D01*
X152461000Y-164147000D02*
X152461000Y-166600000D01*
X152421000Y-168680000D02*
X152421000Y-171157000D01*
X152421000Y-164123000D02*
X152421000Y-166600000D01*
X152381000Y-168680000D02*
X152381000Y-171180000D01*
X152381000Y-164100000D02*
X152381000Y-166600000D01*
X152341000Y-168680000D02*
X152341000Y-171202000D01*
X152341000Y-164078000D02*
X152341000Y-166600000D01*
X152301000Y-168680000D02*
X152301000Y-171224000D01*
X152301000Y-164056000D02*
X152301000Y-166600000D01*
X152261000Y-168680000D02*
X152261000Y-171246000D01*
X152261000Y-164034000D02*
X152261000Y-166600000D01*
X152221000Y-168680000D02*
X152221000Y-171267000D01*
X152221000Y-164013000D02*
X152221000Y-166600000D01*
X152181000Y-168680000D02*
X152181000Y-171287000D01*
X152181000Y-163993000D02*
X152181000Y-166600000D01*
X152141000Y-168680000D02*
X152141000Y-171306000D01*
X152141000Y-163974000D02*
X152141000Y-166600000D01*
X152101000Y-168680000D02*
X152101000Y-171326000D01*
X152101000Y-163954000D02*
X152101000Y-166600000D01*
X152061000Y-168680000D02*
X152061000Y-171344000D01*
X152061000Y-163936000D02*
X152061000Y-166600000D01*
X152021000Y-168680000D02*
X152021000Y-171362000D01*
X152021000Y-163918000D02*
X152021000Y-166600000D01*
X151981000Y-168680000D02*
X151981000Y-171380000D01*
X151981000Y-163900000D02*
X151981000Y-166600000D01*
X151941000Y-168680000D02*
X151941000Y-171397000D01*
X151941000Y-163883000D02*
X151941000Y-166600000D01*
X151901000Y-168680000D02*
X151901000Y-171414000D01*
X151901000Y-163866000D02*
X151901000Y-166600000D01*
X151861000Y-168680000D02*
X151861000Y-171430000D01*
X151861000Y-163850000D02*
X151861000Y-166600000D01*
X151821000Y-168680000D02*
X151821000Y-171445000D01*
X151821000Y-163835000D02*
X151821000Y-166600000D01*
X151781000Y-168680000D02*
X151781000Y-171461000D01*
X151781000Y-163819000D02*
X151781000Y-166600000D01*
X151741000Y-168680000D02*
X151741000Y-171475000D01*
X151741000Y-163805000D02*
X151741000Y-166600000D01*
X151701000Y-168680000D02*
X151701000Y-171490000D01*
X151701000Y-163790000D02*
X151701000Y-166600000D01*
X151661000Y-168680000D02*
X151661000Y-171503000D01*
X151661000Y-163777000D02*
X151661000Y-166600000D01*
X151621000Y-168680000D02*
X151621000Y-171517000D01*
X151621000Y-163763000D02*
X151621000Y-166600000D01*
X151581000Y-168680000D02*
X151581000Y-171529000D01*
X151581000Y-163751000D02*
X151581000Y-166600000D01*
X151541000Y-168680000D02*
X151541000Y-171542000D01*
X151541000Y-163738000D02*
X151541000Y-166600000D01*
X151501000Y-168680000D02*
X151501000Y-171554000D01*
X151501000Y-163726000D02*
X151501000Y-166600000D01*
X151461000Y-168680000D02*
X151461000Y-171565000D01*
X151461000Y-163715000D02*
X151461000Y-166600000D01*
X151421000Y-168680000D02*
X151421000Y-171576000D01*
X151421000Y-163704000D02*
X151421000Y-166600000D01*
X151381000Y-168680000D02*
X151381000Y-171587000D01*
X151381000Y-163693000D02*
X151381000Y-166600000D01*
X151341000Y-168680000D02*
X151341000Y-171597000D01*
X151341000Y-163683000D02*
X151341000Y-166600000D01*
X151301000Y-168680000D02*
X151301000Y-171607000D01*
X151301000Y-163673000D02*
X151301000Y-166600000D01*
X151261000Y-168680000D02*
X151261000Y-171616000D01*
X151261000Y-163664000D02*
X151261000Y-166600000D01*
X151221000Y-168680000D02*
X151221000Y-171625000D01*
X151221000Y-163655000D02*
X151221000Y-166600000D01*
X151181000Y-168680000D02*
X151181000Y-171634000D01*
X151181000Y-163646000D02*
X151181000Y-166600000D01*
X151141000Y-168680000D02*
X151141000Y-171642000D01*
X151141000Y-163638000D02*
X151141000Y-166600000D01*
X151101000Y-168680000D02*
X151101000Y-171650000D01*
X151101000Y-163630000D02*
X151101000Y-166600000D01*
X151061000Y-168680000D02*
X151061000Y-171657000D01*
X151061000Y-163623000D02*
X151061000Y-166600000D01*
X151020000Y-163616000D02*
X151020000Y-171664000D01*
X150980000Y-163610000D02*
X150980000Y-171670000D01*
X150940000Y-163603000D02*
X150940000Y-171677000D01*
X150900000Y-163598000D02*
X150900000Y-171682000D01*
X150860000Y-163592000D02*
X150860000Y-171688000D01*
X150820000Y-163588000D02*
X150820000Y-171692000D01*
X150780000Y-163583000D02*
X150780000Y-171697000D01*
X150740000Y-163579000D02*
X150740000Y-171701000D01*
X150700000Y-163575000D02*
X150700000Y-171705000D01*
X150660000Y-163572000D02*
X150660000Y-171708000D01*
X150620000Y-163569000D02*
X150620000Y-171711000D01*
X150580000Y-163566000D02*
X150580000Y-171714000D01*
X150540000Y-163564000D02*
X150540000Y-171716000D01*
X150500000Y-163563000D02*
X150500000Y-171717000D01*
X150460000Y-163561000D02*
X150460000Y-171719000D01*
X150420000Y-163560000D02*
X150420000Y-171720000D01*
X150380000Y-163560000D02*
X150380000Y-171720000D01*
X150340000Y-163560000D02*
X150340000Y-171720000D01*
X154460000Y-167640000D02*
G75*
G03X154460000Y-167640000I-4120000J0D01*
G01*
X143790302Y-124285000D02*
X143790302Y-125085000D01*
X143390302Y-124685000D02*
X144190302Y-124685000D01*
X151881000Y-126467000D02*
X151881000Y-127533000D01*
X151841000Y-126232000D02*
X151841000Y-127768000D01*
X151801000Y-126052000D02*
X151801000Y-127948000D01*
X151761000Y-125902000D02*
X151761000Y-128098000D01*
X151721000Y-125771000D02*
X151721000Y-128229000D01*
X151681000Y-125654000D02*
X151681000Y-128346000D01*
X151641000Y-125547000D02*
X151641000Y-128453000D01*
X151601000Y-125448000D02*
X151601000Y-128552000D01*
X151561000Y-125355000D02*
X151561000Y-128645000D01*
X151521000Y-125269000D02*
X151521000Y-128731000D01*
X151481000Y-125187000D02*
X151481000Y-128813000D01*
X151441000Y-125110000D02*
X151441000Y-128890000D01*
X151401000Y-125036000D02*
X151401000Y-128964000D01*
X151361000Y-124966000D02*
X151361000Y-129034000D01*
X151321000Y-124898000D02*
X151321000Y-129102000D01*
X151281000Y-124834000D02*
X151281000Y-129166000D01*
X151241000Y-124772000D02*
X151241000Y-129228000D01*
X151201000Y-124713000D02*
X151201000Y-129287000D01*
X151161000Y-124655000D02*
X151161000Y-129345000D01*
X151121000Y-124600000D02*
X151121000Y-129400000D01*
X151081000Y-124546000D02*
X151081000Y-129454000D01*
X151041000Y-124495000D02*
X151041000Y-129505000D01*
X151001000Y-124444000D02*
X151001000Y-129556000D01*
X150961000Y-124396000D02*
X150961000Y-129604000D01*
X150921000Y-124349000D02*
X150921000Y-129651000D01*
X150881000Y-124303000D02*
X150881000Y-129697000D01*
X150841000Y-124259000D02*
X150841000Y-129741000D01*
X150801000Y-124216000D02*
X150801000Y-129784000D01*
X150761000Y-124174000D02*
X150761000Y-129826000D01*
X150721000Y-124133000D02*
X150721000Y-129867000D01*
X150681000Y-124093000D02*
X150681000Y-129907000D01*
X150641000Y-124055000D02*
X150641000Y-129945000D01*
X150601000Y-124017000D02*
X150601000Y-129983000D01*
X150561000Y-128040000D02*
X150561000Y-130019000D01*
X150561000Y-123981000D02*
X150561000Y-125960000D01*
X150521000Y-128040000D02*
X150521000Y-130055000D01*
X150521000Y-123945000D02*
X150521000Y-125960000D01*
X150481000Y-128040000D02*
X150481000Y-130090000D01*
X150481000Y-123910000D02*
X150481000Y-125960000D01*
X150441000Y-128040000D02*
X150441000Y-130124000D01*
X150441000Y-123876000D02*
X150441000Y-125960000D01*
X150401000Y-128040000D02*
X150401000Y-130156000D01*
X150401000Y-123844000D02*
X150401000Y-125960000D01*
X150361000Y-128040000D02*
X150361000Y-130189000D01*
X150361000Y-123811000D02*
X150361000Y-125960000D01*
X150321000Y-128040000D02*
X150321000Y-130220000D01*
X150321000Y-123780000D02*
X150321000Y-125960000D01*
X150281000Y-128040000D02*
X150281000Y-130250000D01*
X150281000Y-123750000D02*
X150281000Y-125960000D01*
X150241000Y-128040000D02*
X150241000Y-130280000D01*
X150241000Y-123720000D02*
X150241000Y-125960000D01*
X150201000Y-128040000D02*
X150201000Y-130309000D01*
X150201000Y-123691000D02*
X150201000Y-125960000D01*
X150161000Y-128040000D02*
X150161000Y-130338000D01*
X150161000Y-123662000D02*
X150161000Y-125960000D01*
X150121000Y-128040000D02*
X150121000Y-130365000D01*
X150121000Y-123635000D02*
X150121000Y-125960000D01*
X150081000Y-128040000D02*
X150081000Y-130392000D01*
X150081000Y-123608000D02*
X150081000Y-125960000D01*
X150041000Y-128040000D02*
X150041000Y-130418000D01*
X150041000Y-123582000D02*
X150041000Y-125960000D01*
X150001000Y-128040000D02*
X150001000Y-130444000D01*
X150001000Y-123556000D02*
X150001000Y-125960000D01*
X149961000Y-128040000D02*
X149961000Y-130469000D01*
X149961000Y-123531000D02*
X149961000Y-125960000D01*
X149921000Y-128040000D02*
X149921000Y-130493000D01*
X149921000Y-123507000D02*
X149921000Y-125960000D01*
X149881000Y-128040000D02*
X149881000Y-130517000D01*
X149881000Y-123483000D02*
X149881000Y-125960000D01*
X149841000Y-128040000D02*
X149841000Y-130540000D01*
X149841000Y-123460000D02*
X149841000Y-125960000D01*
X149801000Y-128040000D02*
X149801000Y-130562000D01*
X149801000Y-123438000D02*
X149801000Y-125960000D01*
X149761000Y-128040000D02*
X149761000Y-130584000D01*
X149761000Y-123416000D02*
X149761000Y-125960000D01*
X149721000Y-128040000D02*
X149721000Y-130606000D01*
X149721000Y-123394000D02*
X149721000Y-125960000D01*
X149681000Y-128040000D02*
X149681000Y-130627000D01*
X149681000Y-123373000D02*
X149681000Y-125960000D01*
X149641000Y-128040000D02*
X149641000Y-130647000D01*
X149641000Y-123353000D02*
X149641000Y-125960000D01*
X149601000Y-128040000D02*
X149601000Y-130666000D01*
X149601000Y-123334000D02*
X149601000Y-125960000D01*
X149561000Y-128040000D02*
X149561000Y-130686000D01*
X149561000Y-123314000D02*
X149561000Y-125960000D01*
X149521000Y-128040000D02*
X149521000Y-130704000D01*
X149521000Y-123296000D02*
X149521000Y-125960000D01*
X149481000Y-128040000D02*
X149481000Y-130722000D01*
X149481000Y-123278000D02*
X149481000Y-125960000D01*
X149441000Y-128040000D02*
X149441000Y-130740000D01*
X149441000Y-123260000D02*
X149441000Y-125960000D01*
X149401000Y-128040000D02*
X149401000Y-130757000D01*
X149401000Y-123243000D02*
X149401000Y-125960000D01*
X149361000Y-128040000D02*
X149361000Y-130774000D01*
X149361000Y-123226000D02*
X149361000Y-125960000D01*
X149321000Y-128040000D02*
X149321000Y-130790000D01*
X149321000Y-123210000D02*
X149321000Y-125960000D01*
X149281000Y-128040000D02*
X149281000Y-130805000D01*
X149281000Y-123195000D02*
X149281000Y-125960000D01*
X149241000Y-128040000D02*
X149241000Y-130821000D01*
X149241000Y-123179000D02*
X149241000Y-125960000D01*
X149201000Y-128040000D02*
X149201000Y-130835000D01*
X149201000Y-123165000D02*
X149201000Y-125960000D01*
X149161000Y-128040000D02*
X149161000Y-130850000D01*
X149161000Y-123150000D02*
X149161000Y-125960000D01*
X149121000Y-128040000D02*
X149121000Y-130863000D01*
X149121000Y-123137000D02*
X149121000Y-125960000D01*
X149081000Y-128040000D02*
X149081000Y-130877000D01*
X149081000Y-123123000D02*
X149081000Y-125960000D01*
X149041000Y-128040000D02*
X149041000Y-130889000D01*
X149041000Y-123111000D02*
X149041000Y-125960000D01*
X149001000Y-128040000D02*
X149001000Y-130902000D01*
X149001000Y-123098000D02*
X149001000Y-125960000D01*
X148961000Y-128040000D02*
X148961000Y-130914000D01*
X148961000Y-123086000D02*
X148961000Y-125960000D01*
X148921000Y-128040000D02*
X148921000Y-130925000D01*
X148921000Y-123075000D02*
X148921000Y-125960000D01*
X148881000Y-128040000D02*
X148881000Y-130936000D01*
X148881000Y-123064000D02*
X148881000Y-125960000D01*
X148841000Y-128040000D02*
X148841000Y-130947000D01*
X148841000Y-123053000D02*
X148841000Y-125960000D01*
X148801000Y-128040000D02*
X148801000Y-130957000D01*
X148801000Y-123043000D02*
X148801000Y-125960000D01*
X148761000Y-128040000D02*
X148761000Y-130967000D01*
X148761000Y-123033000D02*
X148761000Y-125960000D01*
X148721000Y-128040000D02*
X148721000Y-130976000D01*
X148721000Y-123024000D02*
X148721000Y-125960000D01*
X148681000Y-128040000D02*
X148681000Y-130985000D01*
X148681000Y-123015000D02*
X148681000Y-125960000D01*
X148641000Y-128040000D02*
X148641000Y-130994000D01*
X148641000Y-123006000D02*
X148641000Y-125960000D01*
X148601000Y-128040000D02*
X148601000Y-131002000D01*
X148601000Y-122998000D02*
X148601000Y-125960000D01*
X148561000Y-128040000D02*
X148561000Y-131010000D01*
X148561000Y-122990000D02*
X148561000Y-125960000D01*
X148521000Y-128040000D02*
X148521000Y-131017000D01*
X148521000Y-122983000D02*
X148521000Y-125960000D01*
X148480000Y-122976000D02*
X148480000Y-131024000D01*
X148440000Y-122970000D02*
X148440000Y-131030000D01*
X148400000Y-122963000D02*
X148400000Y-131037000D01*
X148360000Y-122958000D02*
X148360000Y-131042000D01*
X148320000Y-122952000D02*
X148320000Y-131048000D01*
X148280000Y-122948000D02*
X148280000Y-131052000D01*
X148240000Y-122943000D02*
X148240000Y-131057000D01*
X148200000Y-122939000D02*
X148200000Y-131061000D01*
X148160000Y-122935000D02*
X148160000Y-131065000D01*
X148120000Y-122932000D02*
X148120000Y-131068000D01*
X148080000Y-122929000D02*
X148080000Y-131071000D01*
X148040000Y-122926000D02*
X148040000Y-131074000D01*
X148000000Y-122924000D02*
X148000000Y-131076000D01*
X147960000Y-122923000D02*
X147960000Y-131077000D01*
X147920000Y-122921000D02*
X147920000Y-131079000D01*
X147880000Y-122920000D02*
X147880000Y-131080000D01*
X147840000Y-122920000D02*
X147840000Y-131080000D01*
X147800000Y-122920000D02*
X147800000Y-131080000D01*
X151920000Y-127000000D02*
G75*
G03X151920000Y-127000000I-4120000J0D01*
G01*
X192865000Y-107669698D02*
X193665000Y-107669698D01*
X193265000Y-108069698D02*
X193265000Y-107269698D01*
X195047000Y-99579000D02*
X196113000Y-99579000D01*
X194812000Y-99619000D02*
X196348000Y-99619000D01*
X194632000Y-99659000D02*
X196528000Y-99659000D01*
X194482000Y-99699000D02*
X196678000Y-99699000D01*
X194351000Y-99739000D02*
X196809000Y-99739000D01*
X194234000Y-99779000D02*
X196926000Y-99779000D01*
X194127000Y-99819000D02*
X197033000Y-99819000D01*
X194028000Y-99859000D02*
X197132000Y-99859000D01*
X193935000Y-99899000D02*
X197225000Y-99899000D01*
X193849000Y-99939000D02*
X197311000Y-99939000D01*
X193767000Y-99979000D02*
X197393000Y-99979000D01*
X193690000Y-100019000D02*
X197470000Y-100019000D01*
X193616000Y-100059000D02*
X197544000Y-100059000D01*
X193546000Y-100099000D02*
X197614000Y-100099000D01*
X193478000Y-100139000D02*
X197682000Y-100139000D01*
X193414000Y-100179000D02*
X197746000Y-100179000D01*
X193352000Y-100219000D02*
X197808000Y-100219000D01*
X193293000Y-100259000D02*
X197867000Y-100259000D01*
X193235000Y-100299000D02*
X197925000Y-100299000D01*
X193180000Y-100339000D02*
X197980000Y-100339000D01*
X193126000Y-100379000D02*
X198034000Y-100379000D01*
X193075000Y-100419000D02*
X198085000Y-100419000D01*
X193024000Y-100459000D02*
X198136000Y-100459000D01*
X192976000Y-100499000D02*
X198184000Y-100499000D01*
X192929000Y-100539000D02*
X198231000Y-100539000D01*
X192883000Y-100579000D02*
X198277000Y-100579000D01*
X192839000Y-100619000D02*
X198321000Y-100619000D01*
X192796000Y-100659000D02*
X198364000Y-100659000D01*
X192754000Y-100699000D02*
X198406000Y-100699000D01*
X192713000Y-100739000D02*
X198447000Y-100739000D01*
X192673000Y-100779000D02*
X198487000Y-100779000D01*
X192635000Y-100819000D02*
X198525000Y-100819000D01*
X192597000Y-100859000D02*
X198563000Y-100859000D01*
X196620000Y-100899000D02*
X198599000Y-100899000D01*
X192561000Y-100899000D02*
X194540000Y-100899000D01*
X196620000Y-100939000D02*
X198635000Y-100939000D01*
X192525000Y-100939000D02*
X194540000Y-100939000D01*
X196620000Y-100979000D02*
X198670000Y-100979000D01*
X192490000Y-100979000D02*
X194540000Y-100979000D01*
X196620000Y-101019000D02*
X198704000Y-101019000D01*
X192456000Y-101019000D02*
X194540000Y-101019000D01*
X196620000Y-101059000D02*
X198736000Y-101059000D01*
X192424000Y-101059000D02*
X194540000Y-101059000D01*
X196620000Y-101099000D02*
X198769000Y-101099000D01*
X192391000Y-101099000D02*
X194540000Y-101099000D01*
X196620000Y-101139000D02*
X198800000Y-101139000D01*
X192360000Y-101139000D02*
X194540000Y-101139000D01*
X196620000Y-101179000D02*
X198830000Y-101179000D01*
X192330000Y-101179000D02*
X194540000Y-101179000D01*
X196620000Y-101219000D02*
X198860000Y-101219000D01*
X192300000Y-101219000D02*
X194540000Y-101219000D01*
X196620000Y-101259000D02*
X198889000Y-101259000D01*
X192271000Y-101259000D02*
X194540000Y-101259000D01*
X196620000Y-101299000D02*
X198918000Y-101299000D01*
X192242000Y-101299000D02*
X194540000Y-101299000D01*
X196620000Y-101339000D02*
X198945000Y-101339000D01*
X192215000Y-101339000D02*
X194540000Y-101339000D01*
X196620000Y-101379000D02*
X198972000Y-101379000D01*
X192188000Y-101379000D02*
X194540000Y-101379000D01*
X196620000Y-101419000D02*
X198998000Y-101419000D01*
X192162000Y-101419000D02*
X194540000Y-101419000D01*
X196620000Y-101459000D02*
X199024000Y-101459000D01*
X192136000Y-101459000D02*
X194540000Y-101459000D01*
X196620000Y-101499000D02*
X199049000Y-101499000D01*
X192111000Y-101499000D02*
X194540000Y-101499000D01*
X196620000Y-101539000D02*
X199073000Y-101539000D01*
X192087000Y-101539000D02*
X194540000Y-101539000D01*
X196620000Y-101579000D02*
X199097000Y-101579000D01*
X192063000Y-101579000D02*
X194540000Y-101579000D01*
X196620000Y-101619000D02*
X199120000Y-101619000D01*
X192040000Y-101619000D02*
X194540000Y-101619000D01*
X196620000Y-101659000D02*
X199142000Y-101659000D01*
X192018000Y-101659000D02*
X194540000Y-101659000D01*
X196620000Y-101699000D02*
X199164000Y-101699000D01*
X191996000Y-101699000D02*
X194540000Y-101699000D01*
X196620000Y-101739000D02*
X199186000Y-101739000D01*
X191974000Y-101739000D02*
X194540000Y-101739000D01*
X196620000Y-101779000D02*
X199207000Y-101779000D01*
X191953000Y-101779000D02*
X194540000Y-101779000D01*
X196620000Y-101819000D02*
X199227000Y-101819000D01*
X191933000Y-101819000D02*
X194540000Y-101819000D01*
X196620000Y-101859000D02*
X199246000Y-101859000D01*
X191914000Y-101859000D02*
X194540000Y-101859000D01*
X196620000Y-101899000D02*
X199266000Y-101899000D01*
X191894000Y-101899000D02*
X194540000Y-101899000D01*
X196620000Y-101939000D02*
X199284000Y-101939000D01*
X191876000Y-101939000D02*
X194540000Y-101939000D01*
X196620000Y-101979000D02*
X199302000Y-101979000D01*
X191858000Y-101979000D02*
X194540000Y-101979000D01*
X196620000Y-102019000D02*
X199320000Y-102019000D01*
X191840000Y-102019000D02*
X194540000Y-102019000D01*
X196620000Y-102059000D02*
X199337000Y-102059000D01*
X191823000Y-102059000D02*
X194540000Y-102059000D01*
X196620000Y-102099000D02*
X199354000Y-102099000D01*
X191806000Y-102099000D02*
X194540000Y-102099000D01*
X196620000Y-102139000D02*
X199370000Y-102139000D01*
X191790000Y-102139000D02*
X194540000Y-102139000D01*
X196620000Y-102179000D02*
X199385000Y-102179000D01*
X191775000Y-102179000D02*
X194540000Y-102179000D01*
X196620000Y-102219000D02*
X199401000Y-102219000D01*
X191759000Y-102219000D02*
X194540000Y-102219000D01*
X196620000Y-102259000D02*
X199415000Y-102259000D01*
X191745000Y-102259000D02*
X194540000Y-102259000D01*
X196620000Y-102299000D02*
X199430000Y-102299000D01*
X191730000Y-102299000D02*
X194540000Y-102299000D01*
X196620000Y-102339000D02*
X199443000Y-102339000D01*
X191717000Y-102339000D02*
X194540000Y-102339000D01*
X196620000Y-102379000D02*
X199457000Y-102379000D01*
X191703000Y-102379000D02*
X194540000Y-102379000D01*
X196620000Y-102419000D02*
X199469000Y-102419000D01*
X191691000Y-102419000D02*
X194540000Y-102419000D01*
X196620000Y-102459000D02*
X199482000Y-102459000D01*
X191678000Y-102459000D02*
X194540000Y-102459000D01*
X196620000Y-102499000D02*
X199494000Y-102499000D01*
X191666000Y-102499000D02*
X194540000Y-102499000D01*
X196620000Y-102539000D02*
X199505000Y-102539000D01*
X191655000Y-102539000D02*
X194540000Y-102539000D01*
X196620000Y-102579000D02*
X199516000Y-102579000D01*
X191644000Y-102579000D02*
X194540000Y-102579000D01*
X196620000Y-102619000D02*
X199527000Y-102619000D01*
X191633000Y-102619000D02*
X194540000Y-102619000D01*
X196620000Y-102659000D02*
X199537000Y-102659000D01*
X191623000Y-102659000D02*
X194540000Y-102659000D01*
X196620000Y-102699000D02*
X199547000Y-102699000D01*
X191613000Y-102699000D02*
X194540000Y-102699000D01*
X196620000Y-102739000D02*
X199556000Y-102739000D01*
X191604000Y-102739000D02*
X194540000Y-102739000D01*
X196620000Y-102779000D02*
X199565000Y-102779000D01*
X191595000Y-102779000D02*
X194540000Y-102779000D01*
X196620000Y-102819000D02*
X199574000Y-102819000D01*
X191586000Y-102819000D02*
X194540000Y-102819000D01*
X196620000Y-102859000D02*
X199582000Y-102859000D01*
X191578000Y-102859000D02*
X194540000Y-102859000D01*
X196620000Y-102899000D02*
X199590000Y-102899000D01*
X191570000Y-102899000D02*
X194540000Y-102899000D01*
X196620000Y-102939000D02*
X199597000Y-102939000D01*
X191563000Y-102939000D02*
X194540000Y-102939000D01*
X191556000Y-102980000D02*
X199604000Y-102980000D01*
X191550000Y-103020000D02*
X199610000Y-103020000D01*
X191543000Y-103060000D02*
X199617000Y-103060000D01*
X191538000Y-103100000D02*
X199622000Y-103100000D01*
X191532000Y-103140000D02*
X199628000Y-103140000D01*
X191528000Y-103180000D02*
X199632000Y-103180000D01*
X191523000Y-103220000D02*
X199637000Y-103220000D01*
X191519000Y-103260000D02*
X199641000Y-103260000D01*
X191515000Y-103300000D02*
X199645000Y-103300000D01*
X191512000Y-103340000D02*
X199648000Y-103340000D01*
X191509000Y-103380000D02*
X199651000Y-103380000D01*
X191506000Y-103420000D02*
X199654000Y-103420000D01*
X191504000Y-103460000D02*
X199656000Y-103460000D01*
X191503000Y-103500000D02*
X199657000Y-103500000D01*
X191501000Y-103540000D02*
X199659000Y-103540000D01*
X191500000Y-103580000D02*
X199660000Y-103580000D01*
X191500000Y-103620000D02*
X199660000Y-103620000D01*
X191500000Y-103660000D02*
X199660000Y-103660000D01*
X199700000Y-103660000D02*
G75*
G03X199700000Y-103660000I-4120000J0D01*
G01*
X192865000Y-168629698D02*
X193665000Y-168629698D01*
X193265000Y-169029698D02*
X193265000Y-168229698D01*
X195047000Y-160539000D02*
X196113000Y-160539000D01*
X194812000Y-160579000D02*
X196348000Y-160579000D01*
X194632000Y-160619000D02*
X196528000Y-160619000D01*
X194482000Y-160659000D02*
X196678000Y-160659000D01*
X194351000Y-160699000D02*
X196809000Y-160699000D01*
X194234000Y-160739000D02*
X196926000Y-160739000D01*
X194127000Y-160779000D02*
X197033000Y-160779000D01*
X194028000Y-160819000D02*
X197132000Y-160819000D01*
X193935000Y-160859000D02*
X197225000Y-160859000D01*
X193849000Y-160899000D02*
X197311000Y-160899000D01*
X193767000Y-160939000D02*
X197393000Y-160939000D01*
X193690000Y-160979000D02*
X197470000Y-160979000D01*
X193616000Y-161019000D02*
X197544000Y-161019000D01*
X193546000Y-161059000D02*
X197614000Y-161059000D01*
X193478000Y-161099000D02*
X197682000Y-161099000D01*
X193414000Y-161139000D02*
X197746000Y-161139000D01*
X193352000Y-161179000D02*
X197808000Y-161179000D01*
X193293000Y-161219000D02*
X197867000Y-161219000D01*
X193235000Y-161259000D02*
X197925000Y-161259000D01*
X193180000Y-161299000D02*
X197980000Y-161299000D01*
X193126000Y-161339000D02*
X198034000Y-161339000D01*
X193075000Y-161379000D02*
X198085000Y-161379000D01*
X193024000Y-161419000D02*
X198136000Y-161419000D01*
X192976000Y-161459000D02*
X198184000Y-161459000D01*
X192929000Y-161499000D02*
X198231000Y-161499000D01*
X192883000Y-161539000D02*
X198277000Y-161539000D01*
X192839000Y-161579000D02*
X198321000Y-161579000D01*
X192796000Y-161619000D02*
X198364000Y-161619000D01*
X192754000Y-161659000D02*
X198406000Y-161659000D01*
X192713000Y-161699000D02*
X198447000Y-161699000D01*
X192673000Y-161739000D02*
X198487000Y-161739000D01*
X192635000Y-161779000D02*
X198525000Y-161779000D01*
X192597000Y-161819000D02*
X198563000Y-161819000D01*
X196620000Y-161859000D02*
X198599000Y-161859000D01*
X192561000Y-161859000D02*
X194540000Y-161859000D01*
X196620000Y-161899000D02*
X198635000Y-161899000D01*
X192525000Y-161899000D02*
X194540000Y-161899000D01*
X196620000Y-161939000D02*
X198670000Y-161939000D01*
X192490000Y-161939000D02*
X194540000Y-161939000D01*
X196620000Y-161979000D02*
X198704000Y-161979000D01*
X192456000Y-161979000D02*
X194540000Y-161979000D01*
X196620000Y-162019000D02*
X198736000Y-162019000D01*
X192424000Y-162019000D02*
X194540000Y-162019000D01*
X196620000Y-162059000D02*
X198769000Y-162059000D01*
X192391000Y-162059000D02*
X194540000Y-162059000D01*
X196620000Y-162099000D02*
X198800000Y-162099000D01*
X192360000Y-162099000D02*
X194540000Y-162099000D01*
X196620000Y-162139000D02*
X198830000Y-162139000D01*
X192330000Y-162139000D02*
X194540000Y-162139000D01*
X196620000Y-162179000D02*
X198860000Y-162179000D01*
X192300000Y-162179000D02*
X194540000Y-162179000D01*
X196620000Y-162219000D02*
X198889000Y-162219000D01*
X192271000Y-162219000D02*
X194540000Y-162219000D01*
X196620000Y-162259000D02*
X198918000Y-162259000D01*
X192242000Y-162259000D02*
X194540000Y-162259000D01*
X196620000Y-162299000D02*
X198945000Y-162299000D01*
X192215000Y-162299000D02*
X194540000Y-162299000D01*
X196620000Y-162339000D02*
X198972000Y-162339000D01*
X192188000Y-162339000D02*
X194540000Y-162339000D01*
X196620000Y-162379000D02*
X198998000Y-162379000D01*
X192162000Y-162379000D02*
X194540000Y-162379000D01*
X196620000Y-162419000D02*
X199024000Y-162419000D01*
X192136000Y-162419000D02*
X194540000Y-162419000D01*
X196620000Y-162459000D02*
X199049000Y-162459000D01*
X192111000Y-162459000D02*
X194540000Y-162459000D01*
X196620000Y-162499000D02*
X199073000Y-162499000D01*
X192087000Y-162499000D02*
X194540000Y-162499000D01*
X196620000Y-162539000D02*
X199097000Y-162539000D01*
X192063000Y-162539000D02*
X194540000Y-162539000D01*
X196620000Y-162579000D02*
X199120000Y-162579000D01*
X192040000Y-162579000D02*
X194540000Y-162579000D01*
X196620000Y-162619000D02*
X199142000Y-162619000D01*
X192018000Y-162619000D02*
X194540000Y-162619000D01*
X196620000Y-162659000D02*
X199164000Y-162659000D01*
X191996000Y-162659000D02*
X194540000Y-162659000D01*
X196620000Y-162699000D02*
X199186000Y-162699000D01*
X191974000Y-162699000D02*
X194540000Y-162699000D01*
X196620000Y-162739000D02*
X199207000Y-162739000D01*
X191953000Y-162739000D02*
X194540000Y-162739000D01*
X196620000Y-162779000D02*
X199227000Y-162779000D01*
X191933000Y-162779000D02*
X194540000Y-162779000D01*
X196620000Y-162819000D02*
X199246000Y-162819000D01*
X191914000Y-162819000D02*
X194540000Y-162819000D01*
X196620000Y-162859000D02*
X199266000Y-162859000D01*
X191894000Y-162859000D02*
X194540000Y-162859000D01*
X196620000Y-162899000D02*
X199284000Y-162899000D01*
X191876000Y-162899000D02*
X194540000Y-162899000D01*
X196620000Y-162939000D02*
X199302000Y-162939000D01*
X191858000Y-162939000D02*
X194540000Y-162939000D01*
X196620000Y-162979000D02*
X199320000Y-162979000D01*
X191840000Y-162979000D02*
X194540000Y-162979000D01*
X196620000Y-163019000D02*
X199337000Y-163019000D01*
X191823000Y-163019000D02*
X194540000Y-163019000D01*
X196620000Y-163059000D02*
X199354000Y-163059000D01*
X191806000Y-163059000D02*
X194540000Y-163059000D01*
X196620000Y-163099000D02*
X199370000Y-163099000D01*
X191790000Y-163099000D02*
X194540000Y-163099000D01*
X196620000Y-163139000D02*
X199385000Y-163139000D01*
X191775000Y-163139000D02*
X194540000Y-163139000D01*
X196620000Y-163179000D02*
X199401000Y-163179000D01*
X191759000Y-163179000D02*
X194540000Y-163179000D01*
X196620000Y-163219000D02*
X199415000Y-163219000D01*
X191745000Y-163219000D02*
X194540000Y-163219000D01*
X196620000Y-163259000D02*
X199430000Y-163259000D01*
X191730000Y-163259000D02*
X194540000Y-163259000D01*
X196620000Y-163299000D02*
X199443000Y-163299000D01*
X191717000Y-163299000D02*
X194540000Y-163299000D01*
X196620000Y-163339000D02*
X199457000Y-163339000D01*
X191703000Y-163339000D02*
X194540000Y-163339000D01*
X196620000Y-163379000D02*
X199469000Y-163379000D01*
X191691000Y-163379000D02*
X194540000Y-163379000D01*
X196620000Y-163419000D02*
X199482000Y-163419000D01*
X191678000Y-163419000D02*
X194540000Y-163419000D01*
X196620000Y-163459000D02*
X199494000Y-163459000D01*
X191666000Y-163459000D02*
X194540000Y-163459000D01*
X196620000Y-163499000D02*
X199505000Y-163499000D01*
X191655000Y-163499000D02*
X194540000Y-163499000D01*
X196620000Y-163539000D02*
X199516000Y-163539000D01*
X191644000Y-163539000D02*
X194540000Y-163539000D01*
X196620000Y-163579000D02*
X199527000Y-163579000D01*
X191633000Y-163579000D02*
X194540000Y-163579000D01*
X196620000Y-163619000D02*
X199537000Y-163619000D01*
X191623000Y-163619000D02*
X194540000Y-163619000D01*
X196620000Y-163659000D02*
X199547000Y-163659000D01*
X191613000Y-163659000D02*
X194540000Y-163659000D01*
X196620000Y-163699000D02*
X199556000Y-163699000D01*
X191604000Y-163699000D02*
X194540000Y-163699000D01*
X196620000Y-163739000D02*
X199565000Y-163739000D01*
X191595000Y-163739000D02*
X194540000Y-163739000D01*
X196620000Y-163779000D02*
X199574000Y-163779000D01*
X191586000Y-163779000D02*
X194540000Y-163779000D01*
X196620000Y-163819000D02*
X199582000Y-163819000D01*
X191578000Y-163819000D02*
X194540000Y-163819000D01*
X196620000Y-163859000D02*
X199590000Y-163859000D01*
X191570000Y-163859000D02*
X194540000Y-163859000D01*
X196620000Y-163899000D02*
X199597000Y-163899000D01*
X191563000Y-163899000D02*
X194540000Y-163899000D01*
X191556000Y-163940000D02*
X199604000Y-163940000D01*
X191550000Y-163980000D02*
X199610000Y-163980000D01*
X191543000Y-164020000D02*
X199617000Y-164020000D01*
X191538000Y-164060000D02*
X199622000Y-164060000D01*
X191532000Y-164100000D02*
X199628000Y-164100000D01*
X191528000Y-164140000D02*
X199632000Y-164140000D01*
X191523000Y-164180000D02*
X199637000Y-164180000D01*
X191519000Y-164220000D02*
X199641000Y-164220000D01*
X191515000Y-164260000D02*
X199645000Y-164260000D01*
X191512000Y-164300000D02*
X199648000Y-164300000D01*
X191509000Y-164340000D02*
X199651000Y-164340000D01*
X191506000Y-164380000D02*
X199654000Y-164380000D01*
X191504000Y-164420000D02*
X199656000Y-164420000D01*
X191503000Y-164460000D02*
X199657000Y-164460000D01*
X191501000Y-164500000D02*
X199659000Y-164500000D01*
X191500000Y-164540000D02*
X199660000Y-164540000D01*
X191500000Y-164580000D02*
X199660000Y-164580000D01*
X191500000Y-164620000D02*
X199660000Y-164620000D01*
X199700000Y-164620000D02*
G75*
G03X199700000Y-164620000I-4120000J0D01*
G01*
X192865000Y-127989698D02*
X193665000Y-127989698D01*
X193265000Y-128389698D02*
X193265000Y-127589698D01*
X195047000Y-119899000D02*
X196113000Y-119899000D01*
X194812000Y-119939000D02*
X196348000Y-119939000D01*
X194632000Y-119979000D02*
X196528000Y-119979000D01*
X194482000Y-120019000D02*
X196678000Y-120019000D01*
X194351000Y-120059000D02*
X196809000Y-120059000D01*
X194234000Y-120099000D02*
X196926000Y-120099000D01*
X194127000Y-120139000D02*
X197033000Y-120139000D01*
X194028000Y-120179000D02*
X197132000Y-120179000D01*
X193935000Y-120219000D02*
X197225000Y-120219000D01*
X193849000Y-120259000D02*
X197311000Y-120259000D01*
X193767000Y-120299000D02*
X197393000Y-120299000D01*
X193690000Y-120339000D02*
X197470000Y-120339000D01*
X193616000Y-120379000D02*
X197544000Y-120379000D01*
X193546000Y-120419000D02*
X197614000Y-120419000D01*
X193478000Y-120459000D02*
X197682000Y-120459000D01*
X193414000Y-120499000D02*
X197746000Y-120499000D01*
X193352000Y-120539000D02*
X197808000Y-120539000D01*
X193293000Y-120579000D02*
X197867000Y-120579000D01*
X193235000Y-120619000D02*
X197925000Y-120619000D01*
X193180000Y-120659000D02*
X197980000Y-120659000D01*
X193126000Y-120699000D02*
X198034000Y-120699000D01*
X193075000Y-120739000D02*
X198085000Y-120739000D01*
X193024000Y-120779000D02*
X198136000Y-120779000D01*
X192976000Y-120819000D02*
X198184000Y-120819000D01*
X192929000Y-120859000D02*
X198231000Y-120859000D01*
X192883000Y-120899000D02*
X198277000Y-120899000D01*
X192839000Y-120939000D02*
X198321000Y-120939000D01*
X192796000Y-120979000D02*
X198364000Y-120979000D01*
X192754000Y-121019000D02*
X198406000Y-121019000D01*
X192713000Y-121059000D02*
X198447000Y-121059000D01*
X192673000Y-121099000D02*
X198487000Y-121099000D01*
X192635000Y-121139000D02*
X198525000Y-121139000D01*
X192597000Y-121179000D02*
X198563000Y-121179000D01*
X196620000Y-121219000D02*
X198599000Y-121219000D01*
X192561000Y-121219000D02*
X194540000Y-121219000D01*
X196620000Y-121259000D02*
X198635000Y-121259000D01*
X192525000Y-121259000D02*
X194540000Y-121259000D01*
X196620000Y-121299000D02*
X198670000Y-121299000D01*
X192490000Y-121299000D02*
X194540000Y-121299000D01*
X196620000Y-121339000D02*
X198704000Y-121339000D01*
X192456000Y-121339000D02*
X194540000Y-121339000D01*
X196620000Y-121379000D02*
X198736000Y-121379000D01*
X192424000Y-121379000D02*
X194540000Y-121379000D01*
X196620000Y-121419000D02*
X198769000Y-121419000D01*
X192391000Y-121419000D02*
X194540000Y-121419000D01*
X196620000Y-121459000D02*
X198800000Y-121459000D01*
X192360000Y-121459000D02*
X194540000Y-121459000D01*
X196620000Y-121499000D02*
X198830000Y-121499000D01*
X192330000Y-121499000D02*
X194540000Y-121499000D01*
X196620000Y-121539000D02*
X198860000Y-121539000D01*
X192300000Y-121539000D02*
X194540000Y-121539000D01*
X196620000Y-121579000D02*
X198889000Y-121579000D01*
X192271000Y-121579000D02*
X194540000Y-121579000D01*
X196620000Y-121619000D02*
X198918000Y-121619000D01*
X192242000Y-121619000D02*
X194540000Y-121619000D01*
X196620000Y-121659000D02*
X198945000Y-121659000D01*
X192215000Y-121659000D02*
X194540000Y-121659000D01*
X196620000Y-121699000D02*
X198972000Y-121699000D01*
X192188000Y-121699000D02*
X194540000Y-121699000D01*
X196620000Y-121739000D02*
X198998000Y-121739000D01*
X192162000Y-121739000D02*
X194540000Y-121739000D01*
X196620000Y-121779000D02*
X199024000Y-121779000D01*
X192136000Y-121779000D02*
X194540000Y-121779000D01*
X196620000Y-121819000D02*
X199049000Y-121819000D01*
X192111000Y-121819000D02*
X194540000Y-121819000D01*
X196620000Y-121859000D02*
X199073000Y-121859000D01*
X192087000Y-121859000D02*
X194540000Y-121859000D01*
X196620000Y-121899000D02*
X199097000Y-121899000D01*
X192063000Y-121899000D02*
X194540000Y-121899000D01*
X196620000Y-121939000D02*
X199120000Y-121939000D01*
X192040000Y-121939000D02*
X194540000Y-121939000D01*
X196620000Y-121979000D02*
X199142000Y-121979000D01*
X192018000Y-121979000D02*
X194540000Y-121979000D01*
X196620000Y-122019000D02*
X199164000Y-122019000D01*
X191996000Y-122019000D02*
X194540000Y-122019000D01*
X196620000Y-122059000D02*
X199186000Y-122059000D01*
X191974000Y-122059000D02*
X194540000Y-122059000D01*
X196620000Y-122099000D02*
X199207000Y-122099000D01*
X191953000Y-122099000D02*
X194540000Y-122099000D01*
X196620000Y-122139000D02*
X199227000Y-122139000D01*
X191933000Y-122139000D02*
X194540000Y-122139000D01*
X196620000Y-122179000D02*
X199246000Y-122179000D01*
X191914000Y-122179000D02*
X194540000Y-122179000D01*
X196620000Y-122219000D02*
X199266000Y-122219000D01*
X191894000Y-122219000D02*
X194540000Y-122219000D01*
X196620000Y-122259000D02*
X199284000Y-122259000D01*
X191876000Y-122259000D02*
X194540000Y-122259000D01*
X196620000Y-122299000D02*
X199302000Y-122299000D01*
X191858000Y-122299000D02*
X194540000Y-122299000D01*
X196620000Y-122339000D02*
X199320000Y-122339000D01*
X191840000Y-122339000D02*
X194540000Y-122339000D01*
X196620000Y-122379000D02*
X199337000Y-122379000D01*
X191823000Y-122379000D02*
X194540000Y-122379000D01*
X196620000Y-122419000D02*
X199354000Y-122419000D01*
X191806000Y-122419000D02*
X194540000Y-122419000D01*
X196620000Y-122459000D02*
X199370000Y-122459000D01*
X191790000Y-122459000D02*
X194540000Y-122459000D01*
X196620000Y-122499000D02*
X199385000Y-122499000D01*
X191775000Y-122499000D02*
X194540000Y-122499000D01*
X196620000Y-122539000D02*
X199401000Y-122539000D01*
X191759000Y-122539000D02*
X194540000Y-122539000D01*
X196620000Y-122579000D02*
X199415000Y-122579000D01*
X191745000Y-122579000D02*
X194540000Y-122579000D01*
X196620000Y-122619000D02*
X199430000Y-122619000D01*
X191730000Y-122619000D02*
X194540000Y-122619000D01*
X196620000Y-122659000D02*
X199443000Y-122659000D01*
X191717000Y-122659000D02*
X194540000Y-122659000D01*
X196620000Y-122699000D02*
X199457000Y-122699000D01*
X191703000Y-122699000D02*
X194540000Y-122699000D01*
X196620000Y-122739000D02*
X199469000Y-122739000D01*
X191691000Y-122739000D02*
X194540000Y-122739000D01*
X196620000Y-122779000D02*
X199482000Y-122779000D01*
X191678000Y-122779000D02*
X194540000Y-122779000D01*
X196620000Y-122819000D02*
X199494000Y-122819000D01*
X191666000Y-122819000D02*
X194540000Y-122819000D01*
X196620000Y-122859000D02*
X199505000Y-122859000D01*
X191655000Y-122859000D02*
X194540000Y-122859000D01*
X196620000Y-122899000D02*
X199516000Y-122899000D01*
X191644000Y-122899000D02*
X194540000Y-122899000D01*
X196620000Y-122939000D02*
X199527000Y-122939000D01*
X191633000Y-122939000D02*
X194540000Y-122939000D01*
X196620000Y-122979000D02*
X199537000Y-122979000D01*
X191623000Y-122979000D02*
X194540000Y-122979000D01*
X196620000Y-123019000D02*
X199547000Y-123019000D01*
X191613000Y-123019000D02*
X194540000Y-123019000D01*
X196620000Y-123059000D02*
X199556000Y-123059000D01*
X191604000Y-123059000D02*
X194540000Y-123059000D01*
X196620000Y-123099000D02*
X199565000Y-123099000D01*
X191595000Y-123099000D02*
X194540000Y-123099000D01*
X196620000Y-123139000D02*
X199574000Y-123139000D01*
X191586000Y-123139000D02*
X194540000Y-123139000D01*
X196620000Y-123179000D02*
X199582000Y-123179000D01*
X191578000Y-123179000D02*
X194540000Y-123179000D01*
X196620000Y-123219000D02*
X199590000Y-123219000D01*
X191570000Y-123219000D02*
X194540000Y-123219000D01*
X196620000Y-123259000D02*
X199597000Y-123259000D01*
X191563000Y-123259000D02*
X194540000Y-123259000D01*
X191556000Y-123300000D02*
X199604000Y-123300000D01*
X191550000Y-123340000D02*
X199610000Y-123340000D01*
X191543000Y-123380000D02*
X199617000Y-123380000D01*
X191538000Y-123420000D02*
X199622000Y-123420000D01*
X191532000Y-123460000D02*
X199628000Y-123460000D01*
X191528000Y-123500000D02*
X199632000Y-123500000D01*
X191523000Y-123540000D02*
X199637000Y-123540000D01*
X191519000Y-123580000D02*
X199641000Y-123580000D01*
X191515000Y-123620000D02*
X199645000Y-123620000D01*
X191512000Y-123660000D02*
X199648000Y-123660000D01*
X191509000Y-123700000D02*
X199651000Y-123700000D01*
X191506000Y-123740000D02*
X199654000Y-123740000D01*
X191504000Y-123780000D02*
X199656000Y-123780000D01*
X191503000Y-123820000D02*
X199657000Y-123820000D01*
X191501000Y-123860000D02*
X199659000Y-123860000D01*
X191500000Y-123900000D02*
X199660000Y-123900000D01*
X191500000Y-123940000D02*
X199660000Y-123940000D01*
X191500000Y-123980000D02*
X199660000Y-123980000D01*
X199700000Y-123980000D02*
G75*
G03X199700000Y-123980000I-4120000J0D01*
G01*
X194770000Y-189584698D02*
X195570000Y-189584698D01*
X195170000Y-189984698D02*
X195170000Y-189184698D01*
X196952000Y-181494000D02*
X198018000Y-181494000D01*
X196717000Y-181534000D02*
X198253000Y-181534000D01*
X196537000Y-181574000D02*
X198433000Y-181574000D01*
X196387000Y-181614000D02*
X198583000Y-181614000D01*
X196256000Y-181654000D02*
X198714000Y-181654000D01*
X196139000Y-181694000D02*
X198831000Y-181694000D01*
X196032000Y-181734000D02*
X198938000Y-181734000D01*
X195933000Y-181774000D02*
X199037000Y-181774000D01*
X195840000Y-181814000D02*
X199130000Y-181814000D01*
X195754000Y-181854000D02*
X199216000Y-181854000D01*
X195672000Y-181894000D02*
X199298000Y-181894000D01*
X195595000Y-181934000D02*
X199375000Y-181934000D01*
X195521000Y-181974000D02*
X199449000Y-181974000D01*
X195451000Y-182014000D02*
X199519000Y-182014000D01*
X195383000Y-182054000D02*
X199587000Y-182054000D01*
X195319000Y-182094000D02*
X199651000Y-182094000D01*
X195257000Y-182134000D02*
X199713000Y-182134000D01*
X195198000Y-182174000D02*
X199772000Y-182174000D01*
X195140000Y-182214000D02*
X199830000Y-182214000D01*
X195085000Y-182254000D02*
X199885000Y-182254000D01*
X195031000Y-182294000D02*
X199939000Y-182294000D01*
X194980000Y-182334000D02*
X199990000Y-182334000D01*
X194929000Y-182374000D02*
X200041000Y-182374000D01*
X194881000Y-182414000D02*
X200089000Y-182414000D01*
X194834000Y-182454000D02*
X200136000Y-182454000D01*
X194788000Y-182494000D02*
X200182000Y-182494000D01*
X194744000Y-182534000D02*
X200226000Y-182534000D01*
X194701000Y-182574000D02*
X200269000Y-182574000D01*
X194659000Y-182614000D02*
X200311000Y-182614000D01*
X194618000Y-182654000D02*
X200352000Y-182654000D01*
X194578000Y-182694000D02*
X200392000Y-182694000D01*
X194540000Y-182734000D02*
X200430000Y-182734000D01*
X194502000Y-182774000D02*
X200468000Y-182774000D01*
X198525000Y-182814000D02*
X200504000Y-182814000D01*
X194466000Y-182814000D02*
X196445000Y-182814000D01*
X198525000Y-182854000D02*
X200540000Y-182854000D01*
X194430000Y-182854000D02*
X196445000Y-182854000D01*
X198525000Y-182894000D02*
X200575000Y-182894000D01*
X194395000Y-182894000D02*
X196445000Y-182894000D01*
X198525000Y-182934000D02*
X200609000Y-182934000D01*
X194361000Y-182934000D02*
X196445000Y-182934000D01*
X198525000Y-182974000D02*
X200641000Y-182974000D01*
X194329000Y-182974000D02*
X196445000Y-182974000D01*
X198525000Y-183014000D02*
X200674000Y-183014000D01*
X194296000Y-183014000D02*
X196445000Y-183014000D01*
X198525000Y-183054000D02*
X200705000Y-183054000D01*
X194265000Y-183054000D02*
X196445000Y-183054000D01*
X198525000Y-183094000D02*
X200735000Y-183094000D01*
X194235000Y-183094000D02*
X196445000Y-183094000D01*
X198525000Y-183134000D02*
X200765000Y-183134000D01*
X194205000Y-183134000D02*
X196445000Y-183134000D01*
X198525000Y-183174000D02*
X200794000Y-183174000D01*
X194176000Y-183174000D02*
X196445000Y-183174000D01*
X198525000Y-183214000D02*
X200823000Y-183214000D01*
X194147000Y-183214000D02*
X196445000Y-183214000D01*
X198525000Y-183254000D02*
X200850000Y-183254000D01*
X194120000Y-183254000D02*
X196445000Y-183254000D01*
X198525000Y-183294000D02*
X200877000Y-183294000D01*
X194093000Y-183294000D02*
X196445000Y-183294000D01*
X198525000Y-183334000D02*
X200903000Y-183334000D01*
X194067000Y-183334000D02*
X196445000Y-183334000D01*
X198525000Y-183374000D02*
X200929000Y-183374000D01*
X194041000Y-183374000D02*
X196445000Y-183374000D01*
X198525000Y-183414000D02*
X200954000Y-183414000D01*
X194016000Y-183414000D02*
X196445000Y-183414000D01*
X198525000Y-183454000D02*
X200978000Y-183454000D01*
X193992000Y-183454000D02*
X196445000Y-183454000D01*
X198525000Y-183494000D02*
X201002000Y-183494000D01*
X193968000Y-183494000D02*
X196445000Y-183494000D01*
X198525000Y-183534000D02*
X201025000Y-183534000D01*
X193945000Y-183534000D02*
X196445000Y-183534000D01*
X198525000Y-183574000D02*
X201047000Y-183574000D01*
X193923000Y-183574000D02*
X196445000Y-183574000D01*
X198525000Y-183614000D02*
X201069000Y-183614000D01*
X193901000Y-183614000D02*
X196445000Y-183614000D01*
X198525000Y-183654000D02*
X201091000Y-183654000D01*
X193879000Y-183654000D02*
X196445000Y-183654000D01*
X198525000Y-183694000D02*
X201112000Y-183694000D01*
X193858000Y-183694000D02*
X196445000Y-183694000D01*
X198525000Y-183734000D02*
X201132000Y-183734000D01*
X193838000Y-183734000D02*
X196445000Y-183734000D01*
X198525000Y-183774000D02*
X201151000Y-183774000D01*
X193819000Y-183774000D02*
X196445000Y-183774000D01*
X198525000Y-183814000D02*
X201171000Y-183814000D01*
X193799000Y-183814000D02*
X196445000Y-183814000D01*
X198525000Y-183854000D02*
X201189000Y-183854000D01*
X193781000Y-183854000D02*
X196445000Y-183854000D01*
X198525000Y-183894000D02*
X201207000Y-183894000D01*
X193763000Y-183894000D02*
X196445000Y-183894000D01*
X198525000Y-183934000D02*
X201225000Y-183934000D01*
X193745000Y-183934000D02*
X196445000Y-183934000D01*
X198525000Y-183974000D02*
X201242000Y-183974000D01*
X193728000Y-183974000D02*
X196445000Y-183974000D01*
X198525000Y-184014000D02*
X201259000Y-184014000D01*
X193711000Y-184014000D02*
X196445000Y-184014000D01*
X198525000Y-184054000D02*
X201275000Y-184054000D01*
X193695000Y-184054000D02*
X196445000Y-184054000D01*
X198525000Y-184094000D02*
X201290000Y-184094000D01*
X193680000Y-184094000D02*
X196445000Y-184094000D01*
X198525000Y-184134000D02*
X201306000Y-184134000D01*
X193664000Y-184134000D02*
X196445000Y-184134000D01*
X198525000Y-184174000D02*
X201320000Y-184174000D01*
X193650000Y-184174000D02*
X196445000Y-184174000D01*
X198525000Y-184214000D02*
X201335000Y-184214000D01*
X193635000Y-184214000D02*
X196445000Y-184214000D01*
X198525000Y-184254000D02*
X201348000Y-184254000D01*
X193622000Y-184254000D02*
X196445000Y-184254000D01*
X198525000Y-184294000D02*
X201362000Y-184294000D01*
X193608000Y-184294000D02*
X196445000Y-184294000D01*
X198525000Y-184334000D02*
X201374000Y-184334000D01*
X193596000Y-184334000D02*
X196445000Y-184334000D01*
X198525000Y-184374000D02*
X201387000Y-184374000D01*
X193583000Y-184374000D02*
X196445000Y-184374000D01*
X198525000Y-184414000D02*
X201399000Y-184414000D01*
X193571000Y-184414000D02*
X196445000Y-184414000D01*
X198525000Y-184454000D02*
X201410000Y-184454000D01*
X193560000Y-184454000D02*
X196445000Y-184454000D01*
X198525000Y-184494000D02*
X201421000Y-184494000D01*
X193549000Y-184494000D02*
X196445000Y-184494000D01*
X198525000Y-184534000D02*
X201432000Y-184534000D01*
X193538000Y-184534000D02*
X196445000Y-184534000D01*
X198525000Y-184574000D02*
X201442000Y-184574000D01*
X193528000Y-184574000D02*
X196445000Y-184574000D01*
X198525000Y-184614000D02*
X201452000Y-184614000D01*
X193518000Y-184614000D02*
X196445000Y-184614000D01*
X198525000Y-184654000D02*
X201461000Y-184654000D01*
X193509000Y-184654000D02*
X196445000Y-184654000D01*
X198525000Y-184694000D02*
X201470000Y-184694000D01*
X193500000Y-184694000D02*
X196445000Y-184694000D01*
X198525000Y-184734000D02*
X201479000Y-184734000D01*
X193491000Y-184734000D02*
X196445000Y-184734000D01*
X198525000Y-184774000D02*
X201487000Y-184774000D01*
X193483000Y-184774000D02*
X196445000Y-184774000D01*
X198525000Y-184814000D02*
X201495000Y-184814000D01*
X193475000Y-184814000D02*
X196445000Y-184814000D01*
X198525000Y-184854000D02*
X201502000Y-184854000D01*
X193468000Y-184854000D02*
X196445000Y-184854000D01*
X193461000Y-184895000D02*
X201509000Y-184895000D01*
X193455000Y-184935000D02*
X201515000Y-184935000D01*
X193448000Y-184975000D02*
X201522000Y-184975000D01*
X193443000Y-185015000D02*
X201527000Y-185015000D01*
X193437000Y-185055000D02*
X201533000Y-185055000D01*
X193433000Y-185095000D02*
X201537000Y-185095000D01*
X193428000Y-185135000D02*
X201542000Y-185135000D01*
X193424000Y-185175000D02*
X201546000Y-185175000D01*
X193420000Y-185215000D02*
X201550000Y-185215000D01*
X193417000Y-185255000D02*
X201553000Y-185255000D01*
X193414000Y-185295000D02*
X201556000Y-185295000D01*
X193411000Y-185335000D02*
X201559000Y-185335000D01*
X193409000Y-185375000D02*
X201561000Y-185375000D01*
X193408000Y-185415000D02*
X201562000Y-185415000D01*
X193406000Y-185455000D02*
X201564000Y-185455000D01*
X193405000Y-185495000D02*
X201565000Y-185495000D01*
X193405000Y-185535000D02*
X201565000Y-185535000D01*
X193405000Y-185575000D02*
X201565000Y-185575000D01*
X201605000Y-185575000D02*
G75*
G03X201605000Y-185575000I-4120000J0D01*
G01*
X192865000Y-147674698D02*
X193665000Y-147674698D01*
X193265000Y-148074698D02*
X193265000Y-147274698D01*
X195047000Y-139584000D02*
X196113000Y-139584000D01*
X194812000Y-139624000D02*
X196348000Y-139624000D01*
X194632000Y-139664000D02*
X196528000Y-139664000D01*
X194482000Y-139704000D02*
X196678000Y-139704000D01*
X194351000Y-139744000D02*
X196809000Y-139744000D01*
X194234000Y-139784000D02*
X196926000Y-139784000D01*
X194127000Y-139824000D02*
X197033000Y-139824000D01*
X194028000Y-139864000D02*
X197132000Y-139864000D01*
X193935000Y-139904000D02*
X197225000Y-139904000D01*
X193849000Y-139944000D02*
X197311000Y-139944000D01*
X193767000Y-139984000D02*
X197393000Y-139984000D01*
X193690000Y-140024000D02*
X197470000Y-140024000D01*
X193616000Y-140064000D02*
X197544000Y-140064000D01*
X193546000Y-140104000D02*
X197614000Y-140104000D01*
X193478000Y-140144000D02*
X197682000Y-140144000D01*
X193414000Y-140184000D02*
X197746000Y-140184000D01*
X193352000Y-140224000D02*
X197808000Y-140224000D01*
X193293000Y-140264000D02*
X197867000Y-140264000D01*
X193235000Y-140304000D02*
X197925000Y-140304000D01*
X193180000Y-140344000D02*
X197980000Y-140344000D01*
X193126000Y-140384000D02*
X198034000Y-140384000D01*
X193075000Y-140424000D02*
X198085000Y-140424000D01*
X193024000Y-140464000D02*
X198136000Y-140464000D01*
X192976000Y-140504000D02*
X198184000Y-140504000D01*
X192929000Y-140544000D02*
X198231000Y-140544000D01*
X192883000Y-140584000D02*
X198277000Y-140584000D01*
X192839000Y-140624000D02*
X198321000Y-140624000D01*
X192796000Y-140664000D02*
X198364000Y-140664000D01*
X192754000Y-140704000D02*
X198406000Y-140704000D01*
X192713000Y-140744000D02*
X198447000Y-140744000D01*
X192673000Y-140784000D02*
X198487000Y-140784000D01*
X192635000Y-140824000D02*
X198525000Y-140824000D01*
X192597000Y-140864000D02*
X198563000Y-140864000D01*
X196620000Y-140904000D02*
X198599000Y-140904000D01*
X192561000Y-140904000D02*
X194540000Y-140904000D01*
X196620000Y-140944000D02*
X198635000Y-140944000D01*
X192525000Y-140944000D02*
X194540000Y-140944000D01*
X196620000Y-140984000D02*
X198670000Y-140984000D01*
X192490000Y-140984000D02*
X194540000Y-140984000D01*
X196620000Y-141024000D02*
X198704000Y-141024000D01*
X192456000Y-141024000D02*
X194540000Y-141024000D01*
X196620000Y-141064000D02*
X198736000Y-141064000D01*
X192424000Y-141064000D02*
X194540000Y-141064000D01*
X196620000Y-141104000D02*
X198769000Y-141104000D01*
X192391000Y-141104000D02*
X194540000Y-141104000D01*
X196620000Y-141144000D02*
X198800000Y-141144000D01*
X192360000Y-141144000D02*
X194540000Y-141144000D01*
X196620000Y-141184000D02*
X198830000Y-141184000D01*
X192330000Y-141184000D02*
X194540000Y-141184000D01*
X196620000Y-141224000D02*
X198860000Y-141224000D01*
X192300000Y-141224000D02*
X194540000Y-141224000D01*
X196620000Y-141264000D02*
X198889000Y-141264000D01*
X192271000Y-141264000D02*
X194540000Y-141264000D01*
X196620000Y-141304000D02*
X198918000Y-141304000D01*
X192242000Y-141304000D02*
X194540000Y-141304000D01*
X196620000Y-141344000D02*
X198945000Y-141344000D01*
X192215000Y-141344000D02*
X194540000Y-141344000D01*
X196620000Y-141384000D02*
X198972000Y-141384000D01*
X192188000Y-141384000D02*
X194540000Y-141384000D01*
X196620000Y-141424000D02*
X198998000Y-141424000D01*
X192162000Y-141424000D02*
X194540000Y-141424000D01*
X196620000Y-141464000D02*
X199024000Y-141464000D01*
X192136000Y-141464000D02*
X194540000Y-141464000D01*
X196620000Y-141504000D02*
X199049000Y-141504000D01*
X192111000Y-141504000D02*
X194540000Y-141504000D01*
X196620000Y-141544000D02*
X199073000Y-141544000D01*
X192087000Y-141544000D02*
X194540000Y-141544000D01*
X196620000Y-141584000D02*
X199097000Y-141584000D01*
X192063000Y-141584000D02*
X194540000Y-141584000D01*
X196620000Y-141624000D02*
X199120000Y-141624000D01*
X192040000Y-141624000D02*
X194540000Y-141624000D01*
X196620000Y-141664000D02*
X199142000Y-141664000D01*
X192018000Y-141664000D02*
X194540000Y-141664000D01*
X196620000Y-141704000D02*
X199164000Y-141704000D01*
X191996000Y-141704000D02*
X194540000Y-141704000D01*
X196620000Y-141744000D02*
X199186000Y-141744000D01*
X191974000Y-141744000D02*
X194540000Y-141744000D01*
X196620000Y-141784000D02*
X199207000Y-141784000D01*
X191953000Y-141784000D02*
X194540000Y-141784000D01*
X196620000Y-141824000D02*
X199227000Y-141824000D01*
X191933000Y-141824000D02*
X194540000Y-141824000D01*
X196620000Y-141864000D02*
X199246000Y-141864000D01*
X191914000Y-141864000D02*
X194540000Y-141864000D01*
X196620000Y-141904000D02*
X199266000Y-141904000D01*
X191894000Y-141904000D02*
X194540000Y-141904000D01*
X196620000Y-141944000D02*
X199284000Y-141944000D01*
X191876000Y-141944000D02*
X194540000Y-141944000D01*
X196620000Y-141984000D02*
X199302000Y-141984000D01*
X191858000Y-141984000D02*
X194540000Y-141984000D01*
X196620000Y-142024000D02*
X199320000Y-142024000D01*
X191840000Y-142024000D02*
X194540000Y-142024000D01*
X196620000Y-142064000D02*
X199337000Y-142064000D01*
X191823000Y-142064000D02*
X194540000Y-142064000D01*
X196620000Y-142104000D02*
X199354000Y-142104000D01*
X191806000Y-142104000D02*
X194540000Y-142104000D01*
X196620000Y-142144000D02*
X199370000Y-142144000D01*
X191790000Y-142144000D02*
X194540000Y-142144000D01*
X196620000Y-142184000D02*
X199385000Y-142184000D01*
X191775000Y-142184000D02*
X194540000Y-142184000D01*
X196620000Y-142224000D02*
X199401000Y-142224000D01*
X191759000Y-142224000D02*
X194540000Y-142224000D01*
X196620000Y-142264000D02*
X199415000Y-142264000D01*
X191745000Y-142264000D02*
X194540000Y-142264000D01*
X196620000Y-142304000D02*
X199430000Y-142304000D01*
X191730000Y-142304000D02*
X194540000Y-142304000D01*
X196620000Y-142344000D02*
X199443000Y-142344000D01*
X191717000Y-142344000D02*
X194540000Y-142344000D01*
X196620000Y-142384000D02*
X199457000Y-142384000D01*
X191703000Y-142384000D02*
X194540000Y-142384000D01*
X196620000Y-142424000D02*
X199469000Y-142424000D01*
X191691000Y-142424000D02*
X194540000Y-142424000D01*
X196620000Y-142464000D02*
X199482000Y-142464000D01*
X191678000Y-142464000D02*
X194540000Y-142464000D01*
X196620000Y-142504000D02*
X199494000Y-142504000D01*
X191666000Y-142504000D02*
X194540000Y-142504000D01*
X196620000Y-142544000D02*
X199505000Y-142544000D01*
X191655000Y-142544000D02*
X194540000Y-142544000D01*
X196620000Y-142584000D02*
X199516000Y-142584000D01*
X191644000Y-142584000D02*
X194540000Y-142584000D01*
X196620000Y-142624000D02*
X199527000Y-142624000D01*
X191633000Y-142624000D02*
X194540000Y-142624000D01*
X196620000Y-142664000D02*
X199537000Y-142664000D01*
X191623000Y-142664000D02*
X194540000Y-142664000D01*
X196620000Y-142704000D02*
X199547000Y-142704000D01*
X191613000Y-142704000D02*
X194540000Y-142704000D01*
X196620000Y-142744000D02*
X199556000Y-142744000D01*
X191604000Y-142744000D02*
X194540000Y-142744000D01*
X196620000Y-142784000D02*
X199565000Y-142784000D01*
X191595000Y-142784000D02*
X194540000Y-142784000D01*
X196620000Y-142824000D02*
X199574000Y-142824000D01*
X191586000Y-142824000D02*
X194540000Y-142824000D01*
X196620000Y-142864000D02*
X199582000Y-142864000D01*
X191578000Y-142864000D02*
X194540000Y-142864000D01*
X196620000Y-142904000D02*
X199590000Y-142904000D01*
X191570000Y-142904000D02*
X194540000Y-142904000D01*
X196620000Y-142944000D02*
X199597000Y-142944000D01*
X191563000Y-142944000D02*
X194540000Y-142944000D01*
X191556000Y-142985000D02*
X199604000Y-142985000D01*
X191550000Y-143025000D02*
X199610000Y-143025000D01*
X191543000Y-143065000D02*
X199617000Y-143065000D01*
X191538000Y-143105000D02*
X199622000Y-143105000D01*
X191532000Y-143145000D02*
X199628000Y-143145000D01*
X191528000Y-143185000D02*
X199632000Y-143185000D01*
X191523000Y-143225000D02*
X199637000Y-143225000D01*
X191519000Y-143265000D02*
X199641000Y-143265000D01*
X191515000Y-143305000D02*
X199645000Y-143305000D01*
X191512000Y-143345000D02*
X199648000Y-143345000D01*
X191509000Y-143385000D02*
X199651000Y-143385000D01*
X191506000Y-143425000D02*
X199654000Y-143425000D01*
X191504000Y-143465000D02*
X199656000Y-143465000D01*
X191503000Y-143505000D02*
X199657000Y-143505000D01*
X191501000Y-143545000D02*
X199659000Y-143545000D01*
X191500000Y-143585000D02*
X199660000Y-143585000D01*
X191500000Y-143625000D02*
X199660000Y-143625000D01*
X191500000Y-143665000D02*
X199660000Y-143665000D01*
X199700000Y-143665000D02*
G75*
G03X199700000Y-143665000I-4120000J0D01*
G01*
X113695241Y-172334000D02*
X113695241Y-171704000D01*
X114010241Y-172019000D02*
X113380241Y-172019000D01*
X107269000Y-170582000D02*
X107269000Y-169778000D01*
X107309000Y-170813000D02*
X107309000Y-169547000D01*
X107349000Y-170982000D02*
X107349000Y-169378000D01*
X107389000Y-171120000D02*
X107389000Y-169240000D01*
X107429000Y-171239000D02*
X107429000Y-169121000D01*
X107469000Y-171345000D02*
X107469000Y-169015000D01*
X107509000Y-171442000D02*
X107509000Y-168918000D01*
X107549000Y-171530000D02*
X107549000Y-168830000D01*
X107589000Y-171612000D02*
X107589000Y-168748000D01*
X107629000Y-171689000D02*
X107629000Y-168671000D01*
X107669000Y-171761000D02*
X107669000Y-168599000D01*
X107709000Y-171830000D02*
X107709000Y-168530000D01*
X107749000Y-171894000D02*
X107749000Y-168466000D01*
X107789000Y-171956000D02*
X107789000Y-168404000D01*
X107829000Y-172014000D02*
X107829000Y-168346000D01*
X107869000Y-172070000D02*
X107869000Y-168290000D01*
X107909000Y-172124000D02*
X107909000Y-168236000D01*
X107949000Y-172175000D02*
X107949000Y-168185000D01*
X107989000Y-172224000D02*
X107989000Y-168136000D01*
X108029000Y-172272000D02*
X108029000Y-168088000D01*
X108069000Y-172317000D02*
X108069000Y-168043000D01*
X108109000Y-172362000D02*
X108109000Y-167998000D01*
X108149000Y-172404000D02*
X108149000Y-167956000D01*
X108189000Y-172445000D02*
X108189000Y-167915000D01*
X108229000Y-169140000D02*
X108229000Y-167875000D01*
X108229000Y-172485000D02*
X108229000Y-171220000D01*
X108269000Y-169140000D02*
X108269000Y-167837000D01*
X108269000Y-172523000D02*
X108269000Y-171220000D01*
X108309000Y-169140000D02*
X108309000Y-167800000D01*
X108309000Y-172560000D02*
X108309000Y-171220000D01*
X108349000Y-169140000D02*
X108349000Y-167764000D01*
X108349000Y-172596000D02*
X108349000Y-171220000D01*
X108389000Y-169140000D02*
X108389000Y-167730000D01*
X108389000Y-172630000D02*
X108389000Y-171220000D01*
X108429000Y-169140000D02*
X108429000Y-167696000D01*
X108429000Y-172664000D02*
X108429000Y-171220000D01*
X108469000Y-169140000D02*
X108469000Y-167664000D01*
X108469000Y-172696000D02*
X108469000Y-171220000D01*
X108509000Y-169140000D02*
X108509000Y-167632000D01*
X108509000Y-172728000D02*
X108509000Y-171220000D01*
X108549000Y-169140000D02*
X108549000Y-167602000D01*
X108549000Y-172758000D02*
X108549000Y-171220000D01*
X108589000Y-169140000D02*
X108589000Y-167573000D01*
X108589000Y-172787000D02*
X108589000Y-171220000D01*
X108629000Y-169140000D02*
X108629000Y-167544000D01*
X108629000Y-172816000D02*
X108629000Y-171220000D01*
X108669000Y-169140000D02*
X108669000Y-167516000D01*
X108669000Y-172844000D02*
X108669000Y-171220000D01*
X108709000Y-169140000D02*
X108709000Y-167490000D01*
X108709000Y-172870000D02*
X108709000Y-171220000D01*
X108749000Y-169140000D02*
X108749000Y-167464000D01*
X108749000Y-172896000D02*
X108749000Y-171220000D01*
X108789000Y-169140000D02*
X108789000Y-167438000D01*
X108789000Y-172922000D02*
X108789000Y-171220000D01*
X108829000Y-169140000D02*
X108829000Y-167414000D01*
X108829000Y-172946000D02*
X108829000Y-171220000D01*
X108869000Y-169140000D02*
X108869000Y-167390000D01*
X108869000Y-172970000D02*
X108869000Y-171220000D01*
X108909000Y-169140000D02*
X108909000Y-167368000D01*
X108909000Y-172992000D02*
X108909000Y-171220000D01*
X108949000Y-169140000D02*
X108949000Y-167346000D01*
X108949000Y-173014000D02*
X108949000Y-171220000D01*
X108989000Y-169140000D02*
X108989000Y-167324000D01*
X108989000Y-173036000D02*
X108989000Y-171220000D01*
X109029000Y-169140000D02*
X109029000Y-167304000D01*
X109029000Y-173056000D02*
X109029000Y-171220000D01*
X109069000Y-169140000D02*
X109069000Y-167284000D01*
X109069000Y-173076000D02*
X109069000Y-171220000D01*
X109109000Y-169140000D02*
X109109000Y-167264000D01*
X109109000Y-173096000D02*
X109109000Y-171220000D01*
X109149000Y-169140000D02*
X109149000Y-167246000D01*
X109149000Y-173114000D02*
X109149000Y-171220000D01*
X109189000Y-169140000D02*
X109189000Y-167228000D01*
X109189000Y-173132000D02*
X109189000Y-171220000D01*
X109229000Y-169140000D02*
X109229000Y-167210000D01*
X109229000Y-173150000D02*
X109229000Y-171220000D01*
X109269000Y-169140000D02*
X109269000Y-167194000D01*
X109269000Y-173166000D02*
X109269000Y-171220000D01*
X109309000Y-169140000D02*
X109309000Y-167178000D01*
X109309000Y-173182000D02*
X109309000Y-171220000D01*
X109349000Y-169140000D02*
X109349000Y-167162000D01*
X109349000Y-173198000D02*
X109349000Y-171220000D01*
X109389000Y-169140000D02*
X109389000Y-167147000D01*
X109389000Y-173213000D02*
X109389000Y-171220000D01*
X109429000Y-169140000D02*
X109429000Y-167133000D01*
X109429000Y-173227000D02*
X109429000Y-171220000D01*
X109469000Y-169140000D02*
X109469000Y-167119000D01*
X109469000Y-173241000D02*
X109469000Y-171220000D01*
X109509000Y-169140000D02*
X109509000Y-167106000D01*
X109509000Y-173254000D02*
X109509000Y-171220000D01*
X109549000Y-169140000D02*
X109549000Y-167094000D01*
X109549000Y-173266000D02*
X109549000Y-171220000D01*
X109589000Y-169140000D02*
X109589000Y-167082000D01*
X109589000Y-173278000D02*
X109589000Y-171220000D01*
X109629000Y-169140000D02*
X109629000Y-167070000D01*
X109629000Y-173290000D02*
X109629000Y-171220000D01*
X109669000Y-169140000D02*
X109669000Y-167059000D01*
X109669000Y-173301000D02*
X109669000Y-171220000D01*
X109709000Y-169140000D02*
X109709000Y-167049000D01*
X109709000Y-173311000D02*
X109709000Y-171220000D01*
X109749000Y-169140000D02*
X109749000Y-167039000D01*
X109749000Y-173321000D02*
X109749000Y-171220000D01*
X109789000Y-169140000D02*
X109789000Y-167030000D01*
X109789000Y-173330000D02*
X109789000Y-171220000D01*
X109830000Y-169140000D02*
X109830000Y-167021000D01*
X109830000Y-173339000D02*
X109830000Y-171220000D01*
X109870000Y-169140000D02*
X109870000Y-167013000D01*
X109870000Y-173347000D02*
X109870000Y-171220000D01*
X109910000Y-169140000D02*
X109910000Y-167005000D01*
X109910000Y-173355000D02*
X109910000Y-171220000D01*
X109950000Y-169140000D02*
X109950000Y-166998000D01*
X109950000Y-173362000D02*
X109950000Y-171220000D01*
X109990000Y-169140000D02*
X109990000Y-166991000D01*
X109990000Y-173369000D02*
X109990000Y-171220000D01*
X110030000Y-169140000D02*
X110030000Y-166985000D01*
X110030000Y-173375000D02*
X110030000Y-171220000D01*
X110070000Y-169140000D02*
X110070000Y-166979000D01*
X110070000Y-173381000D02*
X110070000Y-171220000D01*
X110110000Y-169140000D02*
X110110000Y-166974000D01*
X110110000Y-173386000D02*
X110110000Y-171220000D01*
X110150000Y-169140000D02*
X110150000Y-166969000D01*
X110150000Y-173391000D02*
X110150000Y-171220000D01*
X110190000Y-169140000D02*
X110190000Y-166965000D01*
X110190000Y-173395000D02*
X110190000Y-171220000D01*
X110230000Y-169140000D02*
X110230000Y-166962000D01*
X110230000Y-173398000D02*
X110230000Y-171220000D01*
X110270000Y-169140000D02*
X110270000Y-166958000D01*
X110270000Y-173402000D02*
X110270000Y-171220000D01*
X110310000Y-173404000D02*
X110310000Y-166956000D01*
X110350000Y-173407000D02*
X110350000Y-166953000D01*
X110390000Y-173408000D02*
X110390000Y-166952000D01*
X110430000Y-173410000D02*
X110430000Y-166950000D01*
X110470000Y-173410000D02*
X110470000Y-166950000D01*
X110510000Y-173410000D02*
X110510000Y-166950000D01*
X113780000Y-170180000D02*
G75*
G03X113780000Y-170180000I-3270000J0D01*
G01*
X94645241Y-190114000D02*
X94645241Y-189484000D01*
X94960241Y-189799000D02*
X94330241Y-189799000D01*
X88219000Y-188362000D02*
X88219000Y-187558000D01*
X88259000Y-188593000D02*
X88259000Y-187327000D01*
X88299000Y-188762000D02*
X88299000Y-187158000D01*
X88339000Y-188900000D02*
X88339000Y-187020000D01*
X88379000Y-189019000D02*
X88379000Y-186901000D01*
X88419000Y-189125000D02*
X88419000Y-186795000D01*
X88459000Y-189222000D02*
X88459000Y-186698000D01*
X88499000Y-189310000D02*
X88499000Y-186610000D01*
X88539000Y-189392000D02*
X88539000Y-186528000D01*
X88579000Y-189469000D02*
X88579000Y-186451000D01*
X88619000Y-189541000D02*
X88619000Y-186379000D01*
X88659000Y-189610000D02*
X88659000Y-186310000D01*
X88699000Y-189674000D02*
X88699000Y-186246000D01*
X88739000Y-189736000D02*
X88739000Y-186184000D01*
X88779000Y-189794000D02*
X88779000Y-186126000D01*
X88819000Y-189850000D02*
X88819000Y-186070000D01*
X88859000Y-189904000D02*
X88859000Y-186016000D01*
X88899000Y-189955000D02*
X88899000Y-185965000D01*
X88939000Y-190004000D02*
X88939000Y-185916000D01*
X88979000Y-190052000D02*
X88979000Y-185868000D01*
X89019000Y-190097000D02*
X89019000Y-185823000D01*
X89059000Y-190142000D02*
X89059000Y-185778000D01*
X89099000Y-190184000D02*
X89099000Y-185736000D01*
X89139000Y-190225000D02*
X89139000Y-185695000D01*
X89179000Y-186920000D02*
X89179000Y-185655000D01*
X89179000Y-190265000D02*
X89179000Y-189000000D01*
X89219000Y-186920000D02*
X89219000Y-185617000D01*
X89219000Y-190303000D02*
X89219000Y-189000000D01*
X89259000Y-186920000D02*
X89259000Y-185580000D01*
X89259000Y-190340000D02*
X89259000Y-189000000D01*
X89299000Y-186920000D02*
X89299000Y-185544000D01*
X89299000Y-190376000D02*
X89299000Y-189000000D01*
X89339000Y-186920000D02*
X89339000Y-185510000D01*
X89339000Y-190410000D02*
X89339000Y-189000000D01*
X89379000Y-186920000D02*
X89379000Y-185476000D01*
X89379000Y-190444000D02*
X89379000Y-189000000D01*
X89419000Y-186920000D02*
X89419000Y-185444000D01*
X89419000Y-190476000D02*
X89419000Y-189000000D01*
X89459000Y-186920000D02*
X89459000Y-185412000D01*
X89459000Y-190508000D02*
X89459000Y-189000000D01*
X89499000Y-186920000D02*
X89499000Y-185382000D01*
X89499000Y-190538000D02*
X89499000Y-189000000D01*
X89539000Y-186920000D02*
X89539000Y-185353000D01*
X89539000Y-190567000D02*
X89539000Y-189000000D01*
X89579000Y-186920000D02*
X89579000Y-185324000D01*
X89579000Y-190596000D02*
X89579000Y-189000000D01*
X89619000Y-186920000D02*
X89619000Y-185296000D01*
X89619000Y-190624000D02*
X89619000Y-189000000D01*
X89659000Y-186920000D02*
X89659000Y-185270000D01*
X89659000Y-190650000D02*
X89659000Y-189000000D01*
X89699000Y-186920000D02*
X89699000Y-185244000D01*
X89699000Y-190676000D02*
X89699000Y-189000000D01*
X89739000Y-186920000D02*
X89739000Y-185218000D01*
X89739000Y-190702000D02*
X89739000Y-189000000D01*
X89779000Y-186920000D02*
X89779000Y-185194000D01*
X89779000Y-190726000D02*
X89779000Y-189000000D01*
X89819000Y-186920000D02*
X89819000Y-185170000D01*
X89819000Y-190750000D02*
X89819000Y-189000000D01*
X89859000Y-186920000D02*
X89859000Y-185148000D01*
X89859000Y-190772000D02*
X89859000Y-189000000D01*
X89899000Y-186920000D02*
X89899000Y-185126000D01*
X89899000Y-190794000D02*
X89899000Y-189000000D01*
X89939000Y-186920000D02*
X89939000Y-185104000D01*
X89939000Y-190816000D02*
X89939000Y-189000000D01*
X89979000Y-186920000D02*
X89979000Y-185084000D01*
X89979000Y-190836000D02*
X89979000Y-189000000D01*
X90019000Y-186920000D02*
X90019000Y-185064000D01*
X90019000Y-190856000D02*
X90019000Y-189000000D01*
X90059000Y-186920000D02*
X90059000Y-185044000D01*
X90059000Y-190876000D02*
X90059000Y-189000000D01*
X90099000Y-186920000D02*
X90099000Y-185026000D01*
X90099000Y-190894000D02*
X90099000Y-189000000D01*
X90139000Y-186920000D02*
X90139000Y-185008000D01*
X90139000Y-190912000D02*
X90139000Y-189000000D01*
X90179000Y-186920000D02*
X90179000Y-184990000D01*
X90179000Y-190930000D02*
X90179000Y-189000000D01*
X90219000Y-186920000D02*
X90219000Y-184974000D01*
X90219000Y-190946000D02*
X90219000Y-189000000D01*
X90259000Y-186920000D02*
X90259000Y-184958000D01*
X90259000Y-190962000D02*
X90259000Y-189000000D01*
X90299000Y-186920000D02*
X90299000Y-184942000D01*
X90299000Y-190978000D02*
X90299000Y-189000000D01*
X90339000Y-186920000D02*
X90339000Y-184927000D01*
X90339000Y-190993000D02*
X90339000Y-189000000D01*
X90379000Y-186920000D02*
X90379000Y-184913000D01*
X90379000Y-191007000D02*
X90379000Y-189000000D01*
X90419000Y-186920000D02*
X90419000Y-184899000D01*
X90419000Y-191021000D02*
X90419000Y-189000000D01*
X90459000Y-186920000D02*
X90459000Y-184886000D01*
X90459000Y-191034000D02*
X90459000Y-189000000D01*
X90499000Y-186920000D02*
X90499000Y-184874000D01*
X90499000Y-191046000D02*
X90499000Y-189000000D01*
X90539000Y-186920000D02*
X90539000Y-184862000D01*
X90539000Y-191058000D02*
X90539000Y-189000000D01*
X90579000Y-186920000D02*
X90579000Y-184850000D01*
X90579000Y-191070000D02*
X90579000Y-189000000D01*
X90619000Y-186920000D02*
X90619000Y-184839000D01*
X90619000Y-191081000D02*
X90619000Y-189000000D01*
X90659000Y-186920000D02*
X90659000Y-184829000D01*
X90659000Y-191091000D02*
X90659000Y-189000000D01*
X90699000Y-186920000D02*
X90699000Y-184819000D01*
X90699000Y-191101000D02*
X90699000Y-189000000D01*
X90739000Y-186920000D02*
X90739000Y-184810000D01*
X90739000Y-191110000D02*
X90739000Y-189000000D01*
X90780000Y-186920000D02*
X90780000Y-184801000D01*
X90780000Y-191119000D02*
X90780000Y-189000000D01*
X90820000Y-186920000D02*
X90820000Y-184793000D01*
X90820000Y-191127000D02*
X90820000Y-189000000D01*
X90860000Y-186920000D02*
X90860000Y-184785000D01*
X90860000Y-191135000D02*
X90860000Y-189000000D01*
X90900000Y-186920000D02*
X90900000Y-184778000D01*
X90900000Y-191142000D02*
X90900000Y-189000000D01*
X90940000Y-186920000D02*
X90940000Y-184771000D01*
X90940000Y-191149000D02*
X90940000Y-189000000D01*
X90980000Y-186920000D02*
X90980000Y-184765000D01*
X90980000Y-191155000D02*
X90980000Y-189000000D01*
X91020000Y-186920000D02*
X91020000Y-184759000D01*
X91020000Y-191161000D02*
X91020000Y-189000000D01*
X91060000Y-186920000D02*
X91060000Y-184754000D01*
X91060000Y-191166000D02*
X91060000Y-189000000D01*
X91100000Y-186920000D02*
X91100000Y-184749000D01*
X91100000Y-191171000D02*
X91100000Y-189000000D01*
X91140000Y-186920000D02*
X91140000Y-184745000D01*
X91140000Y-191175000D02*
X91140000Y-189000000D01*
X91180000Y-186920000D02*
X91180000Y-184742000D01*
X91180000Y-191178000D02*
X91180000Y-189000000D01*
X91220000Y-186920000D02*
X91220000Y-184738000D01*
X91220000Y-191182000D02*
X91220000Y-189000000D01*
X91260000Y-191184000D02*
X91260000Y-184736000D01*
X91300000Y-191187000D02*
X91300000Y-184733000D01*
X91340000Y-191188000D02*
X91340000Y-184732000D01*
X91380000Y-191190000D02*
X91380000Y-184730000D01*
X91420000Y-191190000D02*
X91420000Y-184730000D01*
X91460000Y-191190000D02*
X91460000Y-184730000D01*
X94730000Y-187960000D02*
G75*
G03X94730000Y-187960000I-3270000J0D01*
G01*
X113695241Y-190114000D02*
X113695241Y-189484000D01*
X114010241Y-189799000D02*
X113380241Y-189799000D01*
X107269000Y-188362000D02*
X107269000Y-187558000D01*
X107309000Y-188593000D02*
X107309000Y-187327000D01*
X107349000Y-188762000D02*
X107349000Y-187158000D01*
X107389000Y-188900000D02*
X107389000Y-187020000D01*
X107429000Y-189019000D02*
X107429000Y-186901000D01*
X107469000Y-189125000D02*
X107469000Y-186795000D01*
X107509000Y-189222000D02*
X107509000Y-186698000D01*
X107549000Y-189310000D02*
X107549000Y-186610000D01*
X107589000Y-189392000D02*
X107589000Y-186528000D01*
X107629000Y-189469000D02*
X107629000Y-186451000D01*
X107669000Y-189541000D02*
X107669000Y-186379000D01*
X107709000Y-189610000D02*
X107709000Y-186310000D01*
X107749000Y-189674000D02*
X107749000Y-186246000D01*
X107789000Y-189736000D02*
X107789000Y-186184000D01*
X107829000Y-189794000D02*
X107829000Y-186126000D01*
X107869000Y-189850000D02*
X107869000Y-186070000D01*
X107909000Y-189904000D02*
X107909000Y-186016000D01*
X107949000Y-189955000D02*
X107949000Y-185965000D01*
X107989000Y-190004000D02*
X107989000Y-185916000D01*
X108029000Y-190052000D02*
X108029000Y-185868000D01*
X108069000Y-190097000D02*
X108069000Y-185823000D01*
X108109000Y-190142000D02*
X108109000Y-185778000D01*
X108149000Y-190184000D02*
X108149000Y-185736000D01*
X108189000Y-190225000D02*
X108189000Y-185695000D01*
X108229000Y-186920000D02*
X108229000Y-185655000D01*
X108229000Y-190265000D02*
X108229000Y-189000000D01*
X108269000Y-186920000D02*
X108269000Y-185617000D01*
X108269000Y-190303000D02*
X108269000Y-189000000D01*
X108309000Y-186920000D02*
X108309000Y-185580000D01*
X108309000Y-190340000D02*
X108309000Y-189000000D01*
X108349000Y-186920000D02*
X108349000Y-185544000D01*
X108349000Y-190376000D02*
X108349000Y-189000000D01*
X108389000Y-186920000D02*
X108389000Y-185510000D01*
X108389000Y-190410000D02*
X108389000Y-189000000D01*
X108429000Y-186920000D02*
X108429000Y-185476000D01*
X108429000Y-190444000D02*
X108429000Y-189000000D01*
X108469000Y-186920000D02*
X108469000Y-185444000D01*
X108469000Y-190476000D02*
X108469000Y-189000000D01*
X108509000Y-186920000D02*
X108509000Y-185412000D01*
X108509000Y-190508000D02*
X108509000Y-189000000D01*
X108549000Y-186920000D02*
X108549000Y-185382000D01*
X108549000Y-190538000D02*
X108549000Y-189000000D01*
X108589000Y-186920000D02*
X108589000Y-185353000D01*
X108589000Y-190567000D02*
X108589000Y-189000000D01*
X108629000Y-186920000D02*
X108629000Y-185324000D01*
X108629000Y-190596000D02*
X108629000Y-189000000D01*
X108669000Y-186920000D02*
X108669000Y-185296000D01*
X108669000Y-190624000D02*
X108669000Y-189000000D01*
X108709000Y-186920000D02*
X108709000Y-185270000D01*
X108709000Y-190650000D02*
X108709000Y-189000000D01*
X108749000Y-186920000D02*
X108749000Y-185244000D01*
X108749000Y-190676000D02*
X108749000Y-189000000D01*
X108789000Y-186920000D02*
X108789000Y-185218000D01*
X108789000Y-190702000D02*
X108789000Y-189000000D01*
X108829000Y-186920000D02*
X108829000Y-185194000D01*
X108829000Y-190726000D02*
X108829000Y-189000000D01*
X108869000Y-186920000D02*
X108869000Y-185170000D01*
X108869000Y-190750000D02*
X108869000Y-189000000D01*
X108909000Y-186920000D02*
X108909000Y-185148000D01*
X108909000Y-190772000D02*
X108909000Y-189000000D01*
X108949000Y-186920000D02*
X108949000Y-185126000D01*
X108949000Y-190794000D02*
X108949000Y-189000000D01*
X108989000Y-186920000D02*
X108989000Y-185104000D01*
X108989000Y-190816000D02*
X108989000Y-189000000D01*
X109029000Y-186920000D02*
X109029000Y-185084000D01*
X109029000Y-190836000D02*
X109029000Y-189000000D01*
X109069000Y-186920000D02*
X109069000Y-185064000D01*
X109069000Y-190856000D02*
X109069000Y-189000000D01*
X109109000Y-186920000D02*
X109109000Y-185044000D01*
X109109000Y-190876000D02*
X109109000Y-189000000D01*
X109149000Y-186920000D02*
X109149000Y-185026000D01*
X109149000Y-190894000D02*
X109149000Y-189000000D01*
X109189000Y-186920000D02*
X109189000Y-185008000D01*
X109189000Y-190912000D02*
X109189000Y-189000000D01*
X109229000Y-186920000D02*
X109229000Y-184990000D01*
X109229000Y-190930000D02*
X109229000Y-189000000D01*
X109269000Y-186920000D02*
X109269000Y-184974000D01*
X109269000Y-190946000D02*
X109269000Y-189000000D01*
X109309000Y-186920000D02*
X109309000Y-184958000D01*
X109309000Y-190962000D02*
X109309000Y-189000000D01*
X109349000Y-186920000D02*
X109349000Y-184942000D01*
X109349000Y-190978000D02*
X109349000Y-189000000D01*
X109389000Y-186920000D02*
X109389000Y-184927000D01*
X109389000Y-190993000D02*
X109389000Y-189000000D01*
X109429000Y-186920000D02*
X109429000Y-184913000D01*
X109429000Y-191007000D02*
X109429000Y-189000000D01*
X109469000Y-186920000D02*
X109469000Y-184899000D01*
X109469000Y-191021000D02*
X109469000Y-189000000D01*
X109509000Y-186920000D02*
X109509000Y-184886000D01*
X109509000Y-191034000D02*
X109509000Y-189000000D01*
X109549000Y-186920000D02*
X109549000Y-184874000D01*
X109549000Y-191046000D02*
X109549000Y-189000000D01*
X109589000Y-186920000D02*
X109589000Y-184862000D01*
X109589000Y-191058000D02*
X109589000Y-189000000D01*
X109629000Y-186920000D02*
X109629000Y-184850000D01*
X109629000Y-191070000D02*
X109629000Y-189000000D01*
X109669000Y-186920000D02*
X109669000Y-184839000D01*
X109669000Y-191081000D02*
X109669000Y-189000000D01*
X109709000Y-186920000D02*
X109709000Y-184829000D01*
X109709000Y-191091000D02*
X109709000Y-189000000D01*
X109749000Y-186920000D02*
X109749000Y-184819000D01*
X109749000Y-191101000D02*
X109749000Y-189000000D01*
X109789000Y-186920000D02*
X109789000Y-184810000D01*
X109789000Y-191110000D02*
X109789000Y-189000000D01*
X109830000Y-186920000D02*
X109830000Y-184801000D01*
X109830000Y-191119000D02*
X109830000Y-189000000D01*
X109870000Y-186920000D02*
X109870000Y-184793000D01*
X109870000Y-191127000D02*
X109870000Y-189000000D01*
X109910000Y-186920000D02*
X109910000Y-184785000D01*
X109910000Y-191135000D02*
X109910000Y-189000000D01*
X109950000Y-186920000D02*
X109950000Y-184778000D01*
X109950000Y-191142000D02*
X109950000Y-189000000D01*
X109990000Y-186920000D02*
X109990000Y-184771000D01*
X109990000Y-191149000D02*
X109990000Y-189000000D01*
X110030000Y-186920000D02*
X110030000Y-184765000D01*
X110030000Y-191155000D02*
X110030000Y-189000000D01*
X110070000Y-186920000D02*
X110070000Y-184759000D01*
X110070000Y-191161000D02*
X110070000Y-189000000D01*
X110110000Y-186920000D02*
X110110000Y-184754000D01*
X110110000Y-191166000D02*
X110110000Y-189000000D01*
X110150000Y-186920000D02*
X110150000Y-184749000D01*
X110150000Y-191171000D02*
X110150000Y-189000000D01*
X110190000Y-186920000D02*
X110190000Y-184745000D01*
X110190000Y-191175000D02*
X110190000Y-189000000D01*
X110230000Y-186920000D02*
X110230000Y-184742000D01*
X110230000Y-191178000D02*
X110230000Y-189000000D01*
X110270000Y-186920000D02*
X110270000Y-184738000D01*
X110270000Y-191182000D02*
X110270000Y-189000000D01*
X110310000Y-191184000D02*
X110310000Y-184736000D01*
X110350000Y-191187000D02*
X110350000Y-184733000D01*
X110390000Y-191188000D02*
X110390000Y-184732000D01*
X110430000Y-191190000D02*
X110430000Y-184730000D01*
X110470000Y-191190000D02*
X110470000Y-184730000D01*
X110510000Y-191190000D02*
X110510000Y-184730000D01*
X113780000Y-187960000D02*
G75*
G03X113780000Y-187960000I-3270000J0D01*
G01*
X108615241Y-209799000D02*
X108615241Y-209169000D01*
X108930241Y-209484000D02*
X108300241Y-209484000D01*
X102189000Y-208047000D02*
X102189000Y-207243000D01*
X102229000Y-208278000D02*
X102229000Y-207012000D01*
X102269000Y-208447000D02*
X102269000Y-206843000D01*
X102309000Y-208585000D02*
X102309000Y-206705000D01*
X102349000Y-208704000D02*
X102349000Y-206586000D01*
X102389000Y-208810000D02*
X102389000Y-206480000D01*
X102429000Y-208907000D02*
X102429000Y-206383000D01*
X102469000Y-208995000D02*
X102469000Y-206295000D01*
X102509000Y-209077000D02*
X102509000Y-206213000D01*
X102549000Y-209154000D02*
X102549000Y-206136000D01*
X102589000Y-209226000D02*
X102589000Y-206064000D01*
X102629000Y-209295000D02*
X102629000Y-205995000D01*
X102669000Y-209359000D02*
X102669000Y-205931000D01*
X102709000Y-209421000D02*
X102709000Y-205869000D01*
X102749000Y-209479000D02*
X102749000Y-205811000D01*
X102789000Y-209535000D02*
X102789000Y-205755000D01*
X102829000Y-209589000D02*
X102829000Y-205701000D01*
X102869000Y-209640000D02*
X102869000Y-205650000D01*
X102909000Y-209689000D02*
X102909000Y-205601000D01*
X102949000Y-209737000D02*
X102949000Y-205553000D01*
X102989000Y-209782000D02*
X102989000Y-205508000D01*
X103029000Y-209827000D02*
X103029000Y-205463000D01*
X103069000Y-209869000D02*
X103069000Y-205421000D01*
X103109000Y-209910000D02*
X103109000Y-205380000D01*
X103149000Y-206605000D02*
X103149000Y-205340000D01*
X103149000Y-209950000D02*
X103149000Y-208685000D01*
X103189000Y-206605000D02*
X103189000Y-205302000D01*
X103189000Y-209988000D02*
X103189000Y-208685000D01*
X103229000Y-206605000D02*
X103229000Y-205265000D01*
X103229000Y-210025000D02*
X103229000Y-208685000D01*
X103269000Y-206605000D02*
X103269000Y-205229000D01*
X103269000Y-210061000D02*
X103269000Y-208685000D01*
X103309000Y-206605000D02*
X103309000Y-205195000D01*
X103309000Y-210095000D02*
X103309000Y-208685000D01*
X103349000Y-206605000D02*
X103349000Y-205161000D01*
X103349000Y-210129000D02*
X103349000Y-208685000D01*
X103389000Y-206605000D02*
X103389000Y-205129000D01*
X103389000Y-210161000D02*
X103389000Y-208685000D01*
X103429000Y-206605000D02*
X103429000Y-205097000D01*
X103429000Y-210193000D02*
X103429000Y-208685000D01*
X103469000Y-206605000D02*
X103469000Y-205067000D01*
X103469000Y-210223000D02*
X103469000Y-208685000D01*
X103509000Y-206605000D02*
X103509000Y-205038000D01*
X103509000Y-210252000D02*
X103509000Y-208685000D01*
X103549000Y-206605000D02*
X103549000Y-205009000D01*
X103549000Y-210281000D02*
X103549000Y-208685000D01*
X103589000Y-206605000D02*
X103589000Y-204981000D01*
X103589000Y-210309000D02*
X103589000Y-208685000D01*
X103629000Y-206605000D02*
X103629000Y-204955000D01*
X103629000Y-210335000D02*
X103629000Y-208685000D01*
X103669000Y-206605000D02*
X103669000Y-204929000D01*
X103669000Y-210361000D02*
X103669000Y-208685000D01*
X103709000Y-206605000D02*
X103709000Y-204903000D01*
X103709000Y-210387000D02*
X103709000Y-208685000D01*
X103749000Y-206605000D02*
X103749000Y-204879000D01*
X103749000Y-210411000D02*
X103749000Y-208685000D01*
X103789000Y-206605000D02*
X103789000Y-204855000D01*
X103789000Y-210435000D02*
X103789000Y-208685000D01*
X103829000Y-206605000D02*
X103829000Y-204833000D01*
X103829000Y-210457000D02*
X103829000Y-208685000D01*
X103869000Y-206605000D02*
X103869000Y-204811000D01*
X103869000Y-210479000D02*
X103869000Y-208685000D01*
X103909000Y-206605000D02*
X103909000Y-204789000D01*
X103909000Y-210501000D02*
X103909000Y-208685000D01*
X103949000Y-206605000D02*
X103949000Y-204769000D01*
X103949000Y-210521000D02*
X103949000Y-208685000D01*
X103989000Y-206605000D02*
X103989000Y-204749000D01*
X103989000Y-210541000D02*
X103989000Y-208685000D01*
X104029000Y-206605000D02*
X104029000Y-204729000D01*
X104029000Y-210561000D02*
X104029000Y-208685000D01*
X104069000Y-206605000D02*
X104069000Y-204711000D01*
X104069000Y-210579000D02*
X104069000Y-208685000D01*
X104109000Y-206605000D02*
X104109000Y-204693000D01*
X104109000Y-210597000D02*
X104109000Y-208685000D01*
X104149000Y-206605000D02*
X104149000Y-204675000D01*
X104149000Y-210615000D02*
X104149000Y-208685000D01*
X104189000Y-206605000D02*
X104189000Y-204659000D01*
X104189000Y-210631000D02*
X104189000Y-208685000D01*
X104229000Y-206605000D02*
X104229000Y-204643000D01*
X104229000Y-210647000D02*
X104229000Y-208685000D01*
X104269000Y-206605000D02*
X104269000Y-204627000D01*
X104269000Y-210663000D02*
X104269000Y-208685000D01*
X104309000Y-206605000D02*
X104309000Y-204612000D01*
X104309000Y-210678000D02*
X104309000Y-208685000D01*
X104349000Y-206605000D02*
X104349000Y-204598000D01*
X104349000Y-210692000D02*
X104349000Y-208685000D01*
X104389000Y-206605000D02*
X104389000Y-204584000D01*
X104389000Y-210706000D02*
X104389000Y-208685000D01*
X104429000Y-206605000D02*
X104429000Y-204571000D01*
X104429000Y-210719000D02*
X104429000Y-208685000D01*
X104469000Y-206605000D02*
X104469000Y-204559000D01*
X104469000Y-210731000D02*
X104469000Y-208685000D01*
X104509000Y-206605000D02*
X104509000Y-204547000D01*
X104509000Y-210743000D02*
X104509000Y-208685000D01*
X104549000Y-206605000D02*
X104549000Y-204535000D01*
X104549000Y-210755000D02*
X104549000Y-208685000D01*
X104589000Y-206605000D02*
X104589000Y-204524000D01*
X104589000Y-210766000D02*
X104589000Y-208685000D01*
X104629000Y-206605000D02*
X104629000Y-204514000D01*
X104629000Y-210776000D02*
X104629000Y-208685000D01*
X104669000Y-206605000D02*
X104669000Y-204504000D01*
X104669000Y-210786000D02*
X104669000Y-208685000D01*
X104709000Y-206605000D02*
X104709000Y-204495000D01*
X104709000Y-210795000D02*
X104709000Y-208685000D01*
X104750000Y-206605000D02*
X104750000Y-204486000D01*
X104750000Y-210804000D02*
X104750000Y-208685000D01*
X104790000Y-206605000D02*
X104790000Y-204478000D01*
X104790000Y-210812000D02*
X104790000Y-208685000D01*
X104830000Y-206605000D02*
X104830000Y-204470000D01*
X104830000Y-210820000D02*
X104830000Y-208685000D01*
X104870000Y-206605000D02*
X104870000Y-204463000D01*
X104870000Y-210827000D02*
X104870000Y-208685000D01*
X104910000Y-206605000D02*
X104910000Y-204456000D01*
X104910000Y-210834000D02*
X104910000Y-208685000D01*
X104950000Y-206605000D02*
X104950000Y-204450000D01*
X104950000Y-210840000D02*
X104950000Y-208685000D01*
X104990000Y-206605000D02*
X104990000Y-204444000D01*
X104990000Y-210846000D02*
X104990000Y-208685000D01*
X105030000Y-206605000D02*
X105030000Y-204439000D01*
X105030000Y-210851000D02*
X105030000Y-208685000D01*
X105070000Y-206605000D02*
X105070000Y-204434000D01*
X105070000Y-210856000D02*
X105070000Y-208685000D01*
X105110000Y-206605000D02*
X105110000Y-204430000D01*
X105110000Y-210860000D02*
X105110000Y-208685000D01*
X105150000Y-206605000D02*
X105150000Y-204427000D01*
X105150000Y-210863000D02*
X105150000Y-208685000D01*
X105190000Y-206605000D02*
X105190000Y-204423000D01*
X105190000Y-210867000D02*
X105190000Y-208685000D01*
X105230000Y-210869000D02*
X105230000Y-204421000D01*
X105270000Y-210872000D02*
X105270000Y-204418000D01*
X105310000Y-210873000D02*
X105310000Y-204417000D01*
X105350000Y-210875000D02*
X105350000Y-204415000D01*
X105390000Y-210875000D02*
X105390000Y-204415000D01*
X105430000Y-210875000D02*
X105430000Y-204415000D01*
X108700000Y-207645000D02*
G75*
G03X108700000Y-207645000I-3270000J0D01*
G01*
X109220000Y-76200000D02*
X88900000Y-76200000D01*
X109220000Y-83820000D02*
X88900000Y-83820000D01*
X88900000Y-77470000D02*
X109220000Y-77470000D01*
X88900000Y-76200000D02*
X88900000Y-83820000D01*
X109220000Y-83820000D02*
X109220000Y-76200000D01*
X114300000Y-171450000D02*
X114300000Y-166370000D01*
X124460000Y-171450000D02*
X114300000Y-171450000D01*
X124460000Y-166370000D02*
X124460000Y-171450000D01*
X114300000Y-166370000D02*
X124460000Y-166370000D01*
X95250000Y-189230000D02*
X95250000Y-184150000D01*
X105410000Y-189230000D02*
X95250000Y-189230000D01*
X105410000Y-184150000D02*
X105410000Y-189230000D01*
X95250000Y-184150000D02*
X105410000Y-184150000D01*
X114300000Y-189230000D02*
X114300000Y-184150000D01*
X124460000Y-189230000D02*
X114300000Y-189230000D01*
X124460000Y-184150000D02*
X124460000Y-189230000D01*
X114300000Y-184150000D02*
X124460000Y-184150000D01*
X109220000Y-208915000D02*
X109220000Y-203835000D01*
X119380000Y-208915000D02*
X109220000Y-208915000D01*
X119380000Y-203835000D02*
X119380000Y-208915000D01*
X109220000Y-203835000D02*
X119380000Y-203835000D01*
X205510000Y-91440000D02*
X207470000Y-91440000D01*
X218670000Y-91440000D02*
X216710000Y-91440000D01*
X207470000Y-93160000D02*
X216710000Y-93160000D01*
X207470000Y-89720000D02*
X207470000Y-93160000D01*
X216710000Y-89720000D02*
X207470000Y-89720000D01*
X216710000Y-93160000D02*
X216710000Y-89720000D01*
X205510000Y-95250000D02*
X207470000Y-95250000D01*
X218670000Y-95250000D02*
X216710000Y-95250000D01*
X207470000Y-96970000D02*
X216710000Y-96970000D01*
X207470000Y-93530000D02*
X207470000Y-96970000D01*
X216710000Y-93530000D02*
X207470000Y-93530000D01*
X216710000Y-96970000D02*
X216710000Y-93530000D01*
X205510000Y-99060000D02*
X207470000Y-99060000D01*
X218670000Y-99060000D02*
X216710000Y-99060000D01*
X207470000Y-100780000D02*
X216710000Y-100780000D01*
X207470000Y-97340000D02*
X207470000Y-100780000D01*
X216710000Y-97340000D02*
X207470000Y-97340000D01*
X216710000Y-100780000D02*
X216710000Y-97340000D01*
X205510000Y-102870000D02*
X207470000Y-102870000D01*
X218670000Y-102870000D02*
X216710000Y-102870000D01*
X207470000Y-104590000D02*
X216710000Y-104590000D01*
X207470000Y-101150000D02*
X207470000Y-104590000D01*
X216710000Y-101150000D02*
X207470000Y-101150000D01*
X216710000Y-104590000D02*
X216710000Y-101150000D01*
X205510000Y-106680000D02*
X207470000Y-106680000D01*
X218670000Y-106680000D02*
X216710000Y-106680000D01*
X207470000Y-108400000D02*
X216710000Y-108400000D01*
X207470000Y-104960000D02*
X207470000Y-108400000D01*
X216710000Y-104960000D02*
X207470000Y-104960000D01*
X216710000Y-108400000D02*
X216710000Y-104960000D01*
X205510000Y-110490000D02*
X207470000Y-110490000D01*
X218670000Y-110490000D02*
X216710000Y-110490000D01*
X207470000Y-112210000D02*
X216710000Y-112210000D01*
X207470000Y-108770000D02*
X207470000Y-112210000D01*
X216710000Y-108770000D02*
X207470000Y-108770000D01*
X216710000Y-112210000D02*
X216710000Y-108770000D01*
X205510000Y-114300000D02*
X207470000Y-114300000D01*
X218670000Y-114300000D02*
X216710000Y-114300000D01*
X207470000Y-116020000D02*
X216710000Y-116020000D01*
X207470000Y-112580000D02*
X207470000Y-116020000D01*
X216710000Y-112580000D02*
X207470000Y-112580000D01*
X216710000Y-116020000D02*
X216710000Y-112580000D01*
X205510000Y-118110000D02*
X207470000Y-118110000D01*
X218670000Y-118110000D02*
X216710000Y-118110000D01*
X207470000Y-119830000D02*
X216710000Y-119830000D01*
X207470000Y-116390000D02*
X207470000Y-119830000D01*
X216710000Y-116390000D02*
X207470000Y-116390000D01*
X216710000Y-119830000D02*
X216710000Y-116390000D01*
X205510000Y-132080000D02*
X207470000Y-132080000D01*
X218670000Y-132080000D02*
X216710000Y-132080000D01*
X207470000Y-133800000D02*
X216710000Y-133800000D01*
X207470000Y-130360000D02*
X207470000Y-133800000D01*
X216710000Y-130360000D02*
X207470000Y-130360000D01*
X216710000Y-133800000D02*
X216710000Y-130360000D01*
X205510000Y-135890000D02*
X207470000Y-135890000D01*
X218670000Y-135890000D02*
X216710000Y-135890000D01*
X207470000Y-137610000D02*
X216710000Y-137610000D01*
X207470000Y-134170000D02*
X207470000Y-137610000D01*
X216710000Y-134170000D02*
X207470000Y-134170000D01*
X216710000Y-137610000D02*
X216710000Y-134170000D01*
X205510000Y-139700000D02*
X207470000Y-139700000D01*
X218670000Y-139700000D02*
X216710000Y-139700000D01*
X207470000Y-141420000D02*
X216710000Y-141420000D01*
X207470000Y-137980000D02*
X207470000Y-141420000D01*
X216710000Y-137980000D02*
X207470000Y-137980000D01*
X216710000Y-141420000D02*
X216710000Y-137980000D01*
X205510000Y-143510000D02*
X207470000Y-143510000D01*
X218670000Y-143510000D02*
X216710000Y-143510000D01*
X207470000Y-145230000D02*
X216710000Y-145230000D01*
X207470000Y-141790000D02*
X207470000Y-145230000D01*
X216710000Y-141790000D02*
X207470000Y-141790000D01*
X216710000Y-145230000D02*
X216710000Y-141790000D01*
X205510000Y-147320000D02*
X207470000Y-147320000D01*
X218670000Y-147320000D02*
X216710000Y-147320000D01*
X207470000Y-149040000D02*
X216710000Y-149040000D01*
X207470000Y-145600000D02*
X207470000Y-149040000D01*
X216710000Y-145600000D02*
X207470000Y-145600000D01*
X216710000Y-149040000D02*
X216710000Y-145600000D01*
X205510000Y-151130000D02*
X207470000Y-151130000D01*
X218670000Y-151130000D02*
X216710000Y-151130000D01*
X207470000Y-152850000D02*
X216710000Y-152850000D01*
X207470000Y-149410000D02*
X207470000Y-152850000D01*
X216710000Y-149410000D02*
X207470000Y-149410000D01*
X216710000Y-152850000D02*
X216710000Y-149410000D01*
X205510000Y-154940000D02*
X207470000Y-154940000D01*
X218670000Y-154940000D02*
X216710000Y-154940000D01*
X207470000Y-156660000D02*
X216710000Y-156660000D01*
X207470000Y-153220000D02*
X207470000Y-156660000D01*
X216710000Y-153220000D02*
X207470000Y-153220000D01*
X216710000Y-156660000D02*
X216710000Y-153220000D01*
X205510000Y-158750000D02*
X207470000Y-158750000D01*
X218670000Y-158750000D02*
X216710000Y-158750000D01*
X207470000Y-160470000D02*
X216710000Y-160470000D01*
X207470000Y-157030000D02*
X207470000Y-160470000D01*
X216710000Y-157030000D02*
X207470000Y-157030000D01*
X216710000Y-160470000D02*
X216710000Y-157030000D01*
X206780000Y-172720000D02*
X208740000Y-172720000D01*
X219940000Y-172720000D02*
X217980000Y-172720000D01*
X208740000Y-174440000D02*
X217980000Y-174440000D01*
X208740000Y-171000000D02*
X208740000Y-174440000D01*
X217980000Y-171000000D02*
X208740000Y-171000000D01*
X217980000Y-174440000D02*
X217980000Y-171000000D01*
X206780000Y-176530000D02*
X208740000Y-176530000D01*
X219940000Y-176530000D02*
X217980000Y-176530000D01*
X208740000Y-178250000D02*
X217980000Y-178250000D01*
X208740000Y-174810000D02*
X208740000Y-178250000D01*
X217980000Y-174810000D02*
X208740000Y-174810000D01*
X217980000Y-178250000D02*
X217980000Y-174810000D01*
X206780000Y-180340000D02*
X208740000Y-180340000D01*
X219940000Y-180340000D02*
X217980000Y-180340000D01*
X208740000Y-182060000D02*
X217980000Y-182060000D01*
X208740000Y-178620000D02*
X208740000Y-182060000D01*
X217980000Y-178620000D02*
X208740000Y-178620000D01*
X217980000Y-182060000D02*
X217980000Y-178620000D01*
X206780000Y-184150000D02*
X208740000Y-184150000D01*
X219940000Y-184150000D02*
X217980000Y-184150000D01*
X208740000Y-185870000D02*
X217980000Y-185870000D01*
X208740000Y-182430000D02*
X208740000Y-185870000D01*
X217980000Y-182430000D02*
X208740000Y-182430000D01*
X217980000Y-185870000D02*
X217980000Y-182430000D01*
X206780000Y-187960000D02*
X208740000Y-187960000D01*
X219940000Y-187960000D02*
X217980000Y-187960000D01*
X208740000Y-189680000D02*
X217980000Y-189680000D01*
X208740000Y-186240000D02*
X208740000Y-189680000D01*
X217980000Y-186240000D02*
X208740000Y-186240000D01*
X217980000Y-189680000D02*
X217980000Y-186240000D01*
X206780000Y-191770000D02*
X208740000Y-191770000D01*
X219940000Y-191770000D02*
X217980000Y-191770000D01*
X208740000Y-193490000D02*
X217980000Y-193490000D01*
X208740000Y-190050000D02*
X208740000Y-193490000D01*
X217980000Y-190050000D02*
X208740000Y-190050000D01*
X217980000Y-193490000D02*
X217980000Y-190050000D01*
X206780000Y-195580000D02*
X208740000Y-195580000D01*
X219940000Y-195580000D02*
X217980000Y-195580000D01*
X208740000Y-197300000D02*
X217980000Y-197300000D01*
X208740000Y-193860000D02*
X208740000Y-197300000D01*
X217980000Y-193860000D02*
X208740000Y-193860000D01*
X217980000Y-197300000D02*
X217980000Y-193860000D01*
X206780000Y-199390000D02*
X208740000Y-199390000D01*
X219940000Y-199390000D02*
X217980000Y-199390000D01*
X208740000Y-201110000D02*
X217980000Y-201110000D01*
X208740000Y-197670000D02*
X208740000Y-201110000D01*
X217980000Y-197670000D02*
X208740000Y-197670000D01*
X217980000Y-201110000D02*
X217980000Y-197670000D01*
X145185000Y-199390000D02*
X147145000Y-199390000D01*
X158345000Y-199390000D02*
X156385000Y-199390000D01*
X147145000Y-201110000D02*
X156385000Y-201110000D01*
X147145000Y-197670000D02*
X147145000Y-201110000D01*
X156385000Y-197670000D02*
X147145000Y-197670000D01*
X156385000Y-201110000D02*
X156385000Y-197670000D01*
X142010000Y-158750000D02*
X143970000Y-158750000D01*
X155170000Y-158750000D02*
X153210000Y-158750000D01*
X143970000Y-160470000D02*
X153210000Y-160470000D01*
X143970000Y-157030000D02*
X143970000Y-160470000D01*
X153210000Y-157030000D02*
X143970000Y-157030000D01*
X153210000Y-160470000D02*
X153210000Y-157030000D01*
X142010000Y-118110000D02*
X143970000Y-118110000D01*
X155170000Y-118110000D02*
X153210000Y-118110000D01*
X143970000Y-119830000D02*
X153210000Y-119830000D01*
X143970000Y-116390000D02*
X143970000Y-119830000D01*
X153210000Y-116390000D02*
X143970000Y-116390000D01*
X153210000Y-119830000D02*
X153210000Y-116390000D01*
X103100000Y-163830000D02*
X101140000Y-163830000D01*
X89940000Y-163830000D02*
X91900000Y-163830000D01*
X101140000Y-162110000D02*
X91900000Y-162110000D01*
X101140000Y-165550000D02*
X101140000Y-162110000D01*
X91900000Y-165550000D02*
X101140000Y-165550000D01*
X91900000Y-162110000D02*
X91900000Y-165550000D01*
X122150000Y-163830000D02*
X120190000Y-163830000D01*
X108990000Y-163830000D02*
X110950000Y-163830000D01*
X120190000Y-162110000D02*
X110950000Y-162110000D01*
X120190000Y-165550000D02*
X120190000Y-162110000D01*
X110950000Y-165550000D02*
X120190000Y-165550000D01*
X110950000Y-162110000D02*
X110950000Y-165550000D01*
X103100000Y-181610000D02*
X101140000Y-181610000D01*
X89940000Y-181610000D02*
X91900000Y-181610000D01*
X101140000Y-179890000D02*
X91900000Y-179890000D01*
X101140000Y-183330000D02*
X101140000Y-179890000D01*
X91900000Y-183330000D02*
X101140000Y-183330000D01*
X91900000Y-179890000D02*
X91900000Y-183330000D01*
X122150000Y-181610000D02*
X120190000Y-181610000D01*
X108990000Y-181610000D02*
X110950000Y-181610000D01*
X120190000Y-179890000D02*
X110950000Y-179890000D01*
X120190000Y-183330000D02*
X120190000Y-179890000D01*
X110950000Y-183330000D02*
X120190000Y-183330000D01*
X110950000Y-179890000D02*
X110950000Y-183330000D01*
X117070000Y-201295000D02*
X115110000Y-201295000D01*
X103910000Y-201295000D02*
X105870000Y-201295000D01*
X115110000Y-199575000D02*
X105870000Y-199575000D01*
X115110000Y-203015000D02*
X115110000Y-199575000D01*
X105870000Y-203015000D02*
X115110000Y-203015000D01*
X105870000Y-199575000D02*
X105870000Y-203015000D01*
D10*
X109220000Y-113030000D02*
X106680000Y-113030000D01*
X106680000Y-113030000D02*
X106680000Y-115570000D01*
X106680000Y-115570000D02*
X109220000Y-115570000D01*
X109220000Y-115570000D02*
X109220000Y-113030000D01*
X100330000Y-120650000D02*
X100330000Y-116840000D01*
X100330000Y-116840000D02*
X102870000Y-116840000D01*
X102870000Y-116840000D02*
X102870000Y-120650000D01*
X102870000Y-120650000D02*
X100330000Y-120650000D01*
X99060000Y-134620000D02*
X111760000Y-134620000D01*
X111760000Y-121920000D02*
X99060000Y-121920000D01*
X99060000Y-121920000D02*
X99060000Y-134620000D01*
X111760000Y-121920000D02*
X111760000Y-134620000D01*
X100330000Y-156210000D02*
X100330000Y-157480000D01*
X101600000Y-156210000D02*
X101600000Y-157480000D01*
X102870000Y-156210000D02*
X102870000Y-157480000D01*
X104140000Y-156210000D02*
X104140000Y-157480000D01*
X105410000Y-156210000D02*
X105410000Y-157480000D01*
X106680000Y-156210000D02*
X106680000Y-157480000D01*
X107950000Y-156210000D02*
X107950000Y-157480000D01*
X109220000Y-156210000D02*
X109220000Y-157480000D01*
X110490000Y-156210000D02*
X110490000Y-157480000D01*
X99060000Y-157480000D02*
X100330000Y-156210000D01*
X100330000Y-156210000D02*
X110490000Y-156210000D01*
X110490000Y-156210000D02*
X111760000Y-157480000D01*
X111760000Y-157480000D02*
X111760000Y-144780000D01*
X111760000Y-144780000D02*
X99060000Y-144780000D01*
X99060000Y-144780000D02*
X99060000Y-157480000D01*
X114300000Y-157480000D02*
X114300000Y-96520000D01*
X96520000Y-96520000D02*
X96520000Y-157480000D01*
X101600000Y-96520000D02*
X101600000Y-95250000D01*
X101600000Y-95250000D02*
X109220000Y-95250000D01*
X109220000Y-95250000D02*
X109220000Y-96520000D01*
X101600000Y-101600000D02*
X109220000Y-101600000D01*
X109220000Y-101600000D02*
X109220000Y-96520000D01*
X101600000Y-101600000D02*
X101600000Y-96520000D01*
X107950000Y-140970000D02*
X102870000Y-140970000D01*
X102870000Y-140970000D02*
X102870000Y-138430000D01*
X102870000Y-138430000D02*
X107950000Y-138430000D01*
X107950000Y-138430000D02*
X107950000Y-140970000D01*
X114300000Y-157480000D02*
X96520000Y-157480000D01*
X96520000Y-96520000D02*
X114300000Y-96520000D01*
X161290000Y-100330000D02*
X162560000Y-100330000D01*
X162560000Y-100330000D02*
X162560000Y-107950000D01*
X162560000Y-107950000D02*
X161290000Y-107950000D01*
X149860000Y-99060000D02*
X146050000Y-99060000D01*
X146050000Y-99060000D02*
X146050000Y-101600000D01*
X146050000Y-101600000D02*
X149860000Y-101600000D01*
X149860000Y-101600000D02*
X149860000Y-99060000D01*
X156210000Y-100330000D02*
X156210000Y-107950000D01*
X156210000Y-107950000D02*
X161290000Y-107950000D01*
X156210000Y-100330000D02*
X161290000Y-100330000D01*
X154940000Y-99060000D02*
X152400000Y-99060000D01*
X152400000Y-99060000D02*
X152400000Y-101600000D01*
X152400000Y-101600000D02*
X154940000Y-101600000D01*
X154940000Y-101600000D02*
X154940000Y-99060000D01*
X128270000Y-106680000D02*
X128270000Y-101600000D01*
X128270000Y-101600000D02*
X130810000Y-101600000D01*
X130810000Y-101600000D02*
X130810000Y-106680000D01*
X130810000Y-106680000D02*
X128270000Y-106680000D01*
X134620000Y-99060000D02*
X134620000Y-109220000D01*
X143510000Y-109220000D02*
X143510000Y-99060000D01*
X134620000Y-109220000D02*
X143510000Y-109220000D01*
X134620000Y-99060000D02*
X143510000Y-99060000D01*
X161290000Y-113030000D02*
X125730000Y-113030000D01*
X125730000Y-113030000D02*
X125730000Y-95250000D01*
X125730000Y-95250000D02*
X161290000Y-95250000D01*
X161290000Y-95250000D02*
X161290000Y-113030000D01*
X161290000Y-140970000D02*
X162560000Y-140970000D01*
X162560000Y-140970000D02*
X162560000Y-148590000D01*
X162560000Y-148590000D02*
X161290000Y-148590000D01*
X149860000Y-139700000D02*
X146050000Y-139700000D01*
X146050000Y-139700000D02*
X146050000Y-142240000D01*
X146050000Y-142240000D02*
X149860000Y-142240000D01*
X149860000Y-142240000D02*
X149860000Y-139700000D01*
X156210000Y-140970000D02*
X156210000Y-148590000D01*
X156210000Y-148590000D02*
X161290000Y-148590000D01*
X156210000Y-140970000D02*
X161290000Y-140970000D01*
X154940000Y-139700000D02*
X152400000Y-139700000D01*
X152400000Y-139700000D02*
X152400000Y-142240000D01*
X152400000Y-142240000D02*
X154940000Y-142240000D01*
X154940000Y-142240000D02*
X154940000Y-139700000D01*
X128270000Y-147320000D02*
X128270000Y-142240000D01*
X128270000Y-142240000D02*
X130810000Y-142240000D01*
X130810000Y-142240000D02*
X130810000Y-147320000D01*
X130810000Y-147320000D02*
X128270000Y-147320000D01*
X134620000Y-139700000D02*
X134620000Y-149860000D01*
X143510000Y-149860000D02*
X143510000Y-139700000D01*
X134620000Y-149860000D02*
X143510000Y-149860000D01*
X134620000Y-139700000D02*
X143510000Y-139700000D01*
X161290000Y-153670000D02*
X125730000Y-153670000D01*
X125730000Y-153670000D02*
X125730000Y-135890000D01*
X125730000Y-135890000D02*
X161290000Y-135890000D01*
X161290000Y-135890000D02*
X161290000Y-153670000D01*
X164465000Y-181610000D02*
X165735000Y-181610000D01*
X165735000Y-181610000D02*
X165735000Y-189230000D01*
X165735000Y-189230000D02*
X164465000Y-189230000D01*
X153035000Y-180340000D02*
X149225000Y-180340000D01*
X149225000Y-180340000D02*
X149225000Y-182880000D01*
X149225000Y-182880000D02*
X153035000Y-182880000D01*
X153035000Y-182880000D02*
X153035000Y-180340000D01*
X159385000Y-181610000D02*
X159385000Y-189230000D01*
X159385000Y-189230000D02*
X164465000Y-189230000D01*
X159385000Y-181610000D02*
X164465000Y-181610000D01*
X158115000Y-180340000D02*
X155575000Y-180340000D01*
X155575000Y-180340000D02*
X155575000Y-182880000D01*
X155575000Y-182880000D02*
X158115000Y-182880000D01*
X158115000Y-182880000D02*
X158115000Y-180340000D01*
X131445000Y-187960000D02*
X131445000Y-182880000D01*
X131445000Y-182880000D02*
X133985000Y-182880000D01*
X133985000Y-182880000D02*
X133985000Y-187960000D01*
X133985000Y-187960000D02*
X131445000Y-187960000D01*
X137795000Y-180340000D02*
X137795000Y-190500000D01*
X146685000Y-190500000D02*
X146685000Y-180340000D01*
X137795000Y-190500000D02*
X146685000Y-190500000D01*
X137795000Y-180340000D02*
X146685000Y-180340000D01*
X164465000Y-194310000D02*
X128905000Y-194310000D01*
X128905000Y-194310000D02*
X128905000Y-176530000D01*
X128905000Y-176530000D02*
X164465000Y-176530000D01*
X164465000Y-176530000D02*
X164465000Y-194310000D01*
D11*
X186690000Y-85220000D02*
X189230000Y-85220000D01*
X198620000Y-88520000D02*
X196360000Y-88520000D01*
X198620000Y-86280000D02*
X196760000Y-86280000D01*
X198620000Y-101680000D02*
X198620000Y-86280000D01*
X165420000Y-101680000D02*
X198620000Y-101680000D01*
X165420000Y-86280000D02*
X165420000Y-101680000D01*
X191860000Y-86280000D02*
X165420000Y-86280000D01*
X195210000Y-86970000D02*
G75*
G03X195210000Y-86970000I-900000J0D01*
G01*
X196860000Y-86970000D02*
G75*
G03X196860000Y-86970000I-2550000J0D01*
G01*
X186690000Y-125860000D02*
X189230000Y-125860000D01*
X198620000Y-129160000D02*
X196360000Y-129160000D01*
X198620000Y-126920000D02*
X196760000Y-126920000D01*
X198620000Y-142320000D02*
X198620000Y-126920000D01*
X165420000Y-142320000D02*
X198620000Y-142320000D01*
X165420000Y-126920000D02*
X165420000Y-142320000D01*
X191860000Y-126920000D02*
X165420000Y-126920000D01*
X195210000Y-127610000D02*
G75*
G03X195210000Y-127610000I-900000J0D01*
G01*
X196860000Y-127610000D02*
G75*
G03X196860000Y-127610000I-2550000J0D01*
G01*
X186690000Y-146180000D02*
X189230000Y-146180000D01*
X198620000Y-149480000D02*
X196360000Y-149480000D01*
X198620000Y-147240000D02*
X196760000Y-147240000D01*
X198620000Y-162640000D02*
X198620000Y-147240000D01*
X165420000Y-162640000D02*
X198620000Y-162640000D01*
X165420000Y-147240000D02*
X165420000Y-162640000D01*
X191860000Y-147240000D02*
X165420000Y-147240000D01*
X195210000Y-147930000D02*
G75*
G03X195210000Y-147930000I-900000J0D01*
G01*
X196860000Y-147930000D02*
G75*
G03X196860000Y-147930000I-2550000J0D01*
G01*
X189230000Y-166500000D02*
X191770000Y-166500000D01*
X201160000Y-169800000D02*
X198900000Y-169800000D01*
X201160000Y-167560000D02*
X199300000Y-167560000D01*
X201160000Y-182960000D02*
X201160000Y-167560000D01*
X167960000Y-182960000D02*
X201160000Y-182960000D01*
X167960000Y-167560000D02*
X167960000Y-182960000D01*
X194400000Y-167560000D02*
X167960000Y-167560000D01*
X197750000Y-168250000D02*
G75*
G03X197750000Y-168250000I-900000J0D01*
G01*
X199400000Y-168250000D02*
G75*
G03X199400000Y-168250000I-2550000J0D01*
G01*
X189230000Y-186820000D02*
X191770000Y-186820000D01*
X201160000Y-190120000D02*
X198900000Y-190120000D01*
X201160000Y-187880000D02*
X199300000Y-187880000D01*
X201160000Y-203280000D02*
X201160000Y-187880000D01*
X167960000Y-203280000D02*
X201160000Y-203280000D01*
X167960000Y-187880000D02*
X167960000Y-203280000D01*
X194400000Y-187880000D02*
X167960000Y-187880000D01*
X197750000Y-188570000D02*
G75*
G03X197750000Y-188570000I-900000J0D01*
G01*
X199400000Y-188570000D02*
G75*
G03X199400000Y-188570000I-2550000J0D01*
G01*
D10*
X99996666Y-172172380D02*
X99996666Y-172886666D01*
X99949047Y-173029523D01*
X99853809Y-173124761D01*
X99710952Y-173172380D01*
X99615714Y-173172380D01*
X100949047Y-172172380D02*
X100472857Y-172172380D01*
X100425238Y-172648571D01*
X100472857Y-172600952D01*
X100568095Y-172553333D01*
X100806190Y-172553333D01*
X100901428Y-172600952D01*
X100949047Y-172648571D01*
X100996666Y-172743809D01*
X100996666Y-172981904D01*
X100949047Y-173077142D01*
X100901428Y-173124761D01*
X100806190Y-173172380D01*
X100568095Y-173172380D01*
X100472857Y-173124761D01*
X100425238Y-173077142D01*
X222972380Y-185753333D02*
X223686666Y-185753333D01*
X223829523Y-185800952D01*
X223924761Y-185896190D01*
X223972380Y-186039047D01*
X223972380Y-186134285D01*
X222972380Y-185372380D02*
X222972380Y-184753333D01*
X223353333Y-185086666D01*
X223353333Y-184943809D01*
X223400952Y-184848571D01*
X223448571Y-184800952D01*
X223543809Y-184753333D01*
X223781904Y-184753333D01*
X223877142Y-184800952D01*
X223924761Y-184848571D01*
X223972380Y-184943809D01*
X223972380Y-185229523D01*
X223924761Y-185324761D01*
X223877142Y-185372380D01*
X239212380Y-188054761D02*
X239164761Y-188150000D01*
X239117142Y-188197619D01*
X239021904Y-188245238D01*
X238736190Y-188245238D01*
X238640952Y-188197619D01*
X238593333Y-188150000D01*
X238545714Y-188054761D01*
X238545714Y-187911904D01*
X238593333Y-187816666D01*
X238640952Y-187769047D01*
X238736190Y-187721428D01*
X239021904Y-187721428D01*
X239117142Y-187769047D01*
X239164761Y-187816666D01*
X239212380Y-187911904D01*
X239212380Y-188054761D01*
X238545714Y-186864285D02*
X239212380Y-186864285D01*
X238545714Y-187292857D02*
X239069523Y-187292857D01*
X239164761Y-187245238D01*
X239212380Y-187150000D01*
X239212380Y-187007142D01*
X239164761Y-186911904D01*
X239117142Y-186864285D01*
X238545714Y-186530952D02*
X238545714Y-186150000D01*
X238212380Y-186388095D02*
X239069523Y-186388095D01*
X239164761Y-186340476D01*
X239212380Y-186245238D01*
X239212380Y-186150000D01*
X238545714Y-185816666D02*
X239545714Y-185816666D01*
X238593333Y-185816666D02*
X238545714Y-185721428D01*
X238545714Y-185530952D01*
X238593333Y-185435714D01*
X238640952Y-185388095D01*
X238736190Y-185340476D01*
X239021904Y-185340476D01*
X239117142Y-185388095D01*
X239164761Y-185435714D01*
X239212380Y-185530952D01*
X239212380Y-185721428D01*
X239164761Y-185816666D01*
X238545714Y-184483333D02*
X239212380Y-184483333D01*
X238545714Y-184911904D02*
X239069523Y-184911904D01*
X239164761Y-184864285D01*
X239212380Y-184769047D01*
X239212380Y-184626190D01*
X239164761Y-184530952D01*
X239117142Y-184483333D01*
X238545714Y-184150000D02*
X238545714Y-183769047D01*
X238212380Y-184007142D02*
X239069523Y-184007142D01*
X239164761Y-183959523D01*
X239212380Y-183864285D01*
X239212380Y-183769047D01*
X239164761Y-182721428D02*
X239212380Y-182626190D01*
X239212380Y-182435714D01*
X239164761Y-182340476D01*
X239069523Y-182292857D01*
X239021904Y-182292857D01*
X238926666Y-182340476D01*
X238879047Y-182435714D01*
X238879047Y-182578571D01*
X238831428Y-182673809D01*
X238736190Y-182721428D01*
X238688571Y-182721428D01*
X238593333Y-182673809D01*
X238545714Y-182578571D01*
X238545714Y-182435714D01*
X238593333Y-182340476D01*
X239212380Y-181864285D02*
X238545714Y-181864285D01*
X238212380Y-181864285D02*
X238260000Y-181911904D01*
X238307619Y-181864285D01*
X238260000Y-181816666D01*
X238212380Y-181864285D01*
X238307619Y-181864285D01*
X239212380Y-180959523D02*
X238212380Y-180959523D01*
X239164761Y-180959523D02*
X239212380Y-181054761D01*
X239212380Y-181245238D01*
X239164761Y-181340476D01*
X239117142Y-181388095D01*
X239021904Y-181435714D01*
X238736190Y-181435714D01*
X238640952Y-181388095D01*
X238593333Y-181340476D01*
X238545714Y-181245238D01*
X238545714Y-181054761D01*
X238593333Y-180959523D01*
X239164761Y-180102380D02*
X239212380Y-180197619D01*
X239212380Y-180388095D01*
X239164761Y-180483333D01*
X239069523Y-180530952D01*
X238688571Y-180530952D01*
X238593333Y-180483333D01*
X238545714Y-180388095D01*
X238545714Y-180197619D01*
X238593333Y-180102380D01*
X238688571Y-180054761D01*
X238783809Y-180054761D01*
X238879047Y-180530952D01*
X222972380Y-143843333D02*
X223686666Y-143843333D01*
X223829523Y-143890952D01*
X223924761Y-143986190D01*
X223972380Y-144129047D01*
X223972380Y-144224285D01*
X223067619Y-143414761D02*
X223020000Y-143367142D01*
X222972380Y-143271904D01*
X222972380Y-143033809D01*
X223020000Y-142938571D01*
X223067619Y-142890952D01*
X223162857Y-142843333D01*
X223258095Y-142843333D01*
X223400952Y-142890952D01*
X223972380Y-143462380D01*
X223972380Y-142843333D01*
X239212380Y-147414761D02*
X239164761Y-147510000D01*
X239117142Y-147557619D01*
X239021904Y-147605238D01*
X238736190Y-147605238D01*
X238640952Y-147557619D01*
X238593333Y-147510000D01*
X238545714Y-147414761D01*
X238545714Y-147271904D01*
X238593333Y-147176666D01*
X238640952Y-147129047D01*
X238736190Y-147081428D01*
X239021904Y-147081428D01*
X239117142Y-147129047D01*
X239164761Y-147176666D01*
X239212380Y-147271904D01*
X239212380Y-147414761D01*
X238545714Y-146224285D02*
X239212380Y-146224285D01*
X238545714Y-146652857D02*
X239069523Y-146652857D01*
X239164761Y-146605238D01*
X239212380Y-146510000D01*
X239212380Y-146367142D01*
X239164761Y-146271904D01*
X239117142Y-146224285D01*
X238545714Y-145890952D02*
X238545714Y-145510000D01*
X238212380Y-145748095D02*
X239069523Y-145748095D01*
X239164761Y-145700476D01*
X239212380Y-145605238D01*
X239212380Y-145510000D01*
X238545714Y-145176666D02*
X239545714Y-145176666D01*
X238593333Y-145176666D02*
X238545714Y-145081428D01*
X238545714Y-144890952D01*
X238593333Y-144795714D01*
X238640952Y-144748095D01*
X238736190Y-144700476D01*
X239021904Y-144700476D01*
X239117142Y-144748095D01*
X239164761Y-144795714D01*
X239212380Y-144890952D01*
X239212380Y-145081428D01*
X239164761Y-145176666D01*
X238545714Y-143843333D02*
X239212380Y-143843333D01*
X238545714Y-144271904D02*
X239069523Y-144271904D01*
X239164761Y-144224285D01*
X239212380Y-144129047D01*
X239212380Y-143986190D01*
X239164761Y-143890952D01*
X239117142Y-143843333D01*
X238545714Y-143510000D02*
X238545714Y-143129047D01*
X238212380Y-143367142D02*
X239069523Y-143367142D01*
X239164761Y-143319523D01*
X239212380Y-143224285D01*
X239212380Y-143129047D01*
X239164761Y-142081428D02*
X239212380Y-141986190D01*
X239212380Y-141795714D01*
X239164761Y-141700476D01*
X239069523Y-141652857D01*
X239021904Y-141652857D01*
X238926666Y-141700476D01*
X238879047Y-141795714D01*
X238879047Y-141938571D01*
X238831428Y-142033809D01*
X238736190Y-142081428D01*
X238688571Y-142081428D01*
X238593333Y-142033809D01*
X238545714Y-141938571D01*
X238545714Y-141795714D01*
X238593333Y-141700476D01*
X239212380Y-141224285D02*
X238545714Y-141224285D01*
X238212380Y-141224285D02*
X238260000Y-141271904D01*
X238307619Y-141224285D01*
X238260000Y-141176666D01*
X238212380Y-141224285D01*
X238307619Y-141224285D01*
X239212380Y-140319523D02*
X238212380Y-140319523D01*
X239164761Y-140319523D02*
X239212380Y-140414761D01*
X239212380Y-140605238D01*
X239164761Y-140700476D01*
X239117142Y-140748095D01*
X239021904Y-140795714D01*
X238736190Y-140795714D01*
X238640952Y-140748095D01*
X238593333Y-140700476D01*
X238545714Y-140605238D01*
X238545714Y-140414761D01*
X238593333Y-140319523D01*
X239164761Y-139462380D02*
X239212380Y-139557619D01*
X239212380Y-139748095D01*
X239164761Y-139843333D01*
X239069523Y-139890952D01*
X238688571Y-139890952D01*
X238593333Y-139843333D01*
X238545714Y-139748095D01*
X238545714Y-139557619D01*
X238593333Y-139462380D01*
X238688571Y-139414761D01*
X238783809Y-139414761D01*
X238879047Y-139890952D01*
X222972380Y-104473333D02*
X223686666Y-104473333D01*
X223829523Y-104520952D01*
X223924761Y-104616190D01*
X223972380Y-104759047D01*
X223972380Y-104854285D01*
X223972380Y-103473333D02*
X223972380Y-104044761D01*
X223972380Y-103759047D02*
X222972380Y-103759047D01*
X223115238Y-103854285D01*
X223210476Y-103949523D01*
X223258095Y-104044761D01*
X239212380Y-108044761D02*
X239164761Y-108140000D01*
X239117142Y-108187619D01*
X239021904Y-108235238D01*
X238736190Y-108235238D01*
X238640952Y-108187619D01*
X238593333Y-108140000D01*
X238545714Y-108044761D01*
X238545714Y-107901904D01*
X238593333Y-107806666D01*
X238640952Y-107759047D01*
X238736190Y-107711428D01*
X239021904Y-107711428D01*
X239117142Y-107759047D01*
X239164761Y-107806666D01*
X239212380Y-107901904D01*
X239212380Y-108044761D01*
X238545714Y-106854285D02*
X239212380Y-106854285D01*
X238545714Y-107282857D02*
X239069523Y-107282857D01*
X239164761Y-107235238D01*
X239212380Y-107140000D01*
X239212380Y-106997142D01*
X239164761Y-106901904D01*
X239117142Y-106854285D01*
X238545714Y-106520952D02*
X238545714Y-106140000D01*
X238212380Y-106378095D02*
X239069523Y-106378095D01*
X239164761Y-106330476D01*
X239212380Y-106235238D01*
X239212380Y-106140000D01*
X238545714Y-105806666D02*
X239545714Y-105806666D01*
X238593333Y-105806666D02*
X238545714Y-105711428D01*
X238545714Y-105520952D01*
X238593333Y-105425714D01*
X238640952Y-105378095D01*
X238736190Y-105330476D01*
X239021904Y-105330476D01*
X239117142Y-105378095D01*
X239164761Y-105425714D01*
X239212380Y-105520952D01*
X239212380Y-105711428D01*
X239164761Y-105806666D01*
X238545714Y-104473333D02*
X239212380Y-104473333D01*
X238545714Y-104901904D02*
X239069523Y-104901904D01*
X239164761Y-104854285D01*
X239212380Y-104759047D01*
X239212380Y-104616190D01*
X239164761Y-104520952D01*
X239117142Y-104473333D01*
X238545714Y-104140000D02*
X238545714Y-103759047D01*
X238212380Y-103997142D02*
X239069523Y-103997142D01*
X239164761Y-103949523D01*
X239212380Y-103854285D01*
X239212380Y-103759047D01*
X239164761Y-102711428D02*
X239212380Y-102616190D01*
X239212380Y-102425714D01*
X239164761Y-102330476D01*
X239069523Y-102282857D01*
X239021904Y-102282857D01*
X238926666Y-102330476D01*
X238879047Y-102425714D01*
X238879047Y-102568571D01*
X238831428Y-102663809D01*
X238736190Y-102711428D01*
X238688571Y-102711428D01*
X238593333Y-102663809D01*
X238545714Y-102568571D01*
X238545714Y-102425714D01*
X238593333Y-102330476D01*
X239212380Y-101854285D02*
X238545714Y-101854285D01*
X238212380Y-101854285D02*
X238260000Y-101901904D01*
X238307619Y-101854285D01*
X238260000Y-101806666D01*
X238212380Y-101854285D01*
X238307619Y-101854285D01*
X239212380Y-100949523D02*
X238212380Y-100949523D01*
X239164761Y-100949523D02*
X239212380Y-101044761D01*
X239212380Y-101235238D01*
X239164761Y-101330476D01*
X239117142Y-101378095D01*
X239021904Y-101425714D01*
X238736190Y-101425714D01*
X238640952Y-101378095D01*
X238593333Y-101330476D01*
X238545714Y-101235238D01*
X238545714Y-101044761D01*
X238593333Y-100949523D01*
X239164761Y-100092380D02*
X239212380Y-100187619D01*
X239212380Y-100378095D01*
X239164761Y-100473333D01*
X239069523Y-100520952D01*
X238688571Y-100520952D01*
X238593333Y-100473333D01*
X238545714Y-100378095D01*
X238545714Y-100187619D01*
X238593333Y-100092380D01*
X238688571Y-100044761D01*
X238783809Y-100044761D01*
X238879047Y-100520952D01*
X198972380Y-115061904D02*
X199781904Y-115061904D01*
X199877142Y-115014285D01*
X199924761Y-114966666D01*
X199972380Y-114871428D01*
X199972380Y-114680952D01*
X199924761Y-114585714D01*
X199877142Y-114538095D01*
X199781904Y-114490476D01*
X198972380Y-114490476D01*
X198972380Y-113585714D02*
X198972380Y-113776190D01*
X199020000Y-113871428D01*
X199067619Y-113919047D01*
X199210476Y-114014285D01*
X199400952Y-114061904D01*
X199781904Y-114061904D01*
X199877142Y-114014285D01*
X199924761Y-113966666D01*
X199972380Y-113871428D01*
X199972380Y-113680952D01*
X199924761Y-113585714D01*
X199877142Y-113538095D01*
X199781904Y-113490476D01*
X199543809Y-113490476D01*
X199448571Y-113538095D01*
X199400952Y-113585714D01*
X199353333Y-113680952D01*
X199353333Y-113871428D01*
X199400952Y-113966666D01*
X199448571Y-114014285D01*
X199543809Y-114061904D01*
X119273333Y-89887142D02*
X119225714Y-89934761D01*
X119082857Y-89982380D01*
X118987619Y-89982380D01*
X118844761Y-89934761D01*
X118749523Y-89839523D01*
X118701904Y-89744285D01*
X118654285Y-89553809D01*
X118654285Y-89410952D01*
X118701904Y-89220476D01*
X118749523Y-89125238D01*
X118844761Y-89030000D01*
X118987619Y-88982380D01*
X119082857Y-88982380D01*
X119225714Y-89030000D01*
X119273333Y-89077619D01*
X119892380Y-88982380D02*
X119987619Y-88982380D01*
X120082857Y-89030000D01*
X120130476Y-89077619D01*
X120178095Y-89172857D01*
X120225714Y-89363333D01*
X120225714Y-89601428D01*
X120178095Y-89791904D01*
X120130476Y-89887142D01*
X120082857Y-89934761D01*
X119987619Y-89982380D01*
X119892380Y-89982380D01*
X119797142Y-89934761D01*
X119749523Y-89887142D01*
X119701904Y-89791904D01*
X119654285Y-89601428D01*
X119654285Y-89363333D01*
X119701904Y-89172857D01*
X119749523Y-89077619D01*
X119797142Y-89030000D01*
X119892380Y-88982380D01*
X90817142Y-174937142D02*
X90769523Y-174984761D01*
X90626666Y-175032380D01*
X90531428Y-175032380D01*
X90388571Y-174984761D01*
X90293333Y-174889523D01*
X90245714Y-174794285D01*
X90198095Y-174603809D01*
X90198095Y-174460952D01*
X90245714Y-174270476D01*
X90293333Y-174175238D01*
X90388571Y-174080000D01*
X90531428Y-174032380D01*
X90626666Y-174032380D01*
X90769523Y-174080000D01*
X90817142Y-174127619D01*
X91769523Y-175032380D02*
X91198095Y-175032380D01*
X91483809Y-175032380D02*
X91483809Y-174032380D01*
X91388571Y-174175238D01*
X91293333Y-174270476D01*
X91198095Y-174318095D01*
X92150476Y-174127619D02*
X92198095Y-174080000D01*
X92293333Y-174032380D01*
X92531428Y-174032380D01*
X92626666Y-174080000D01*
X92674285Y-174127619D01*
X92721904Y-174222857D01*
X92721904Y-174318095D01*
X92674285Y-174460952D01*
X92102857Y-175032380D01*
X92721904Y-175032380D01*
X149697142Y-162747142D02*
X149649523Y-162794761D01*
X149506666Y-162842380D01*
X149411428Y-162842380D01*
X149268571Y-162794761D01*
X149173333Y-162699523D01*
X149125714Y-162604285D01*
X149078095Y-162413809D01*
X149078095Y-162270952D01*
X149125714Y-162080476D01*
X149173333Y-161985238D01*
X149268571Y-161890000D01*
X149411428Y-161842380D01*
X149506666Y-161842380D01*
X149649523Y-161890000D01*
X149697142Y-161937619D01*
X150649523Y-162842380D02*
X150078095Y-162842380D01*
X150363809Y-162842380D02*
X150363809Y-161842380D01*
X150268571Y-161985238D01*
X150173333Y-162080476D01*
X150078095Y-162128095D01*
X151506666Y-161842380D02*
X151316190Y-161842380D01*
X151220952Y-161890000D01*
X151173333Y-161937619D01*
X151078095Y-162080476D01*
X151030476Y-162270952D01*
X151030476Y-162651904D01*
X151078095Y-162747142D01*
X151125714Y-162794761D01*
X151220952Y-162842380D01*
X151411428Y-162842380D01*
X151506666Y-162794761D01*
X151554285Y-162747142D01*
X151601904Y-162651904D01*
X151601904Y-162413809D01*
X151554285Y-162318571D01*
X151506666Y-162270952D01*
X151411428Y-162223333D01*
X151220952Y-162223333D01*
X151125714Y-162270952D01*
X151078095Y-162318571D01*
X151030476Y-162413809D01*
X147157142Y-122107142D02*
X147109523Y-122154761D01*
X146966666Y-122202380D01*
X146871428Y-122202380D01*
X146728571Y-122154761D01*
X146633333Y-122059523D01*
X146585714Y-121964285D01*
X146538095Y-121773809D01*
X146538095Y-121630952D01*
X146585714Y-121440476D01*
X146633333Y-121345238D01*
X146728571Y-121250000D01*
X146871428Y-121202380D01*
X146966666Y-121202380D01*
X147109523Y-121250000D01*
X147157142Y-121297619D01*
X148109523Y-122202380D02*
X147538095Y-122202380D01*
X147823809Y-122202380D02*
X147823809Y-121202380D01*
X147728571Y-121345238D01*
X147633333Y-121440476D01*
X147538095Y-121488095D01*
X148442857Y-121202380D02*
X149109523Y-121202380D01*
X148680952Y-122202380D01*
X190687142Y-104302857D02*
X190734761Y-104350476D01*
X190782380Y-104493333D01*
X190782380Y-104588571D01*
X190734761Y-104731428D01*
X190639523Y-104826666D01*
X190544285Y-104874285D01*
X190353809Y-104921904D01*
X190210952Y-104921904D01*
X190020476Y-104874285D01*
X189925238Y-104826666D01*
X189830000Y-104731428D01*
X189782380Y-104588571D01*
X189782380Y-104493333D01*
X189830000Y-104350476D01*
X189877619Y-104302857D01*
X190782380Y-103350476D02*
X190782380Y-103921904D01*
X190782380Y-103636190D02*
X189782380Y-103636190D01*
X189925238Y-103731428D01*
X190020476Y-103826666D01*
X190068095Y-103921904D01*
X190210952Y-102779047D02*
X190163333Y-102874285D01*
X190115714Y-102921904D01*
X190020476Y-102969523D01*
X189972857Y-102969523D01*
X189877619Y-102921904D01*
X189830000Y-102874285D01*
X189782380Y-102779047D01*
X189782380Y-102588571D01*
X189830000Y-102493333D01*
X189877619Y-102445714D01*
X189972857Y-102398095D01*
X190020476Y-102398095D01*
X190115714Y-102445714D01*
X190163333Y-102493333D01*
X190210952Y-102588571D01*
X190210952Y-102779047D01*
X190258571Y-102874285D01*
X190306190Y-102921904D01*
X190401428Y-102969523D01*
X190591904Y-102969523D01*
X190687142Y-102921904D01*
X190734761Y-102874285D01*
X190782380Y-102779047D01*
X190782380Y-102588571D01*
X190734761Y-102493333D01*
X190687142Y-102445714D01*
X190591904Y-102398095D01*
X190401428Y-102398095D01*
X190306190Y-102445714D01*
X190258571Y-102493333D01*
X190210952Y-102588571D01*
X190687142Y-165262857D02*
X190734761Y-165310476D01*
X190782380Y-165453333D01*
X190782380Y-165548571D01*
X190734761Y-165691428D01*
X190639523Y-165786666D01*
X190544285Y-165834285D01*
X190353809Y-165881904D01*
X190210952Y-165881904D01*
X190020476Y-165834285D01*
X189925238Y-165786666D01*
X189830000Y-165691428D01*
X189782380Y-165548571D01*
X189782380Y-165453333D01*
X189830000Y-165310476D01*
X189877619Y-165262857D01*
X190782380Y-164310476D02*
X190782380Y-164881904D01*
X190782380Y-164596190D02*
X189782380Y-164596190D01*
X189925238Y-164691428D01*
X190020476Y-164786666D01*
X190068095Y-164881904D01*
X190782380Y-163834285D02*
X190782380Y-163643809D01*
X190734761Y-163548571D01*
X190687142Y-163500952D01*
X190544285Y-163405714D01*
X190353809Y-163358095D01*
X189972857Y-163358095D01*
X189877619Y-163405714D01*
X189830000Y-163453333D01*
X189782380Y-163548571D01*
X189782380Y-163739047D01*
X189830000Y-163834285D01*
X189877619Y-163881904D01*
X189972857Y-163929523D01*
X190210952Y-163929523D01*
X190306190Y-163881904D01*
X190353809Y-163834285D01*
X190401428Y-163739047D01*
X190401428Y-163548571D01*
X190353809Y-163453333D01*
X190306190Y-163405714D01*
X190210952Y-163358095D01*
X190687142Y-124622857D02*
X190734761Y-124670476D01*
X190782380Y-124813333D01*
X190782380Y-124908571D01*
X190734761Y-125051428D01*
X190639523Y-125146666D01*
X190544285Y-125194285D01*
X190353809Y-125241904D01*
X190210952Y-125241904D01*
X190020476Y-125194285D01*
X189925238Y-125146666D01*
X189830000Y-125051428D01*
X189782380Y-124908571D01*
X189782380Y-124813333D01*
X189830000Y-124670476D01*
X189877619Y-124622857D01*
X189877619Y-124241904D02*
X189830000Y-124194285D01*
X189782380Y-124099047D01*
X189782380Y-123860952D01*
X189830000Y-123765714D01*
X189877619Y-123718095D01*
X189972857Y-123670476D01*
X190068095Y-123670476D01*
X190210952Y-123718095D01*
X190782380Y-124289523D01*
X190782380Y-123670476D01*
X189782380Y-123051428D02*
X189782380Y-122956190D01*
X189830000Y-122860952D01*
X189877619Y-122813333D01*
X189972857Y-122765714D01*
X190163333Y-122718095D01*
X190401428Y-122718095D01*
X190591904Y-122765714D01*
X190687142Y-122813333D01*
X190734761Y-122860952D01*
X190782380Y-122956190D01*
X190782380Y-123051428D01*
X190734761Y-123146666D01*
X190687142Y-123194285D01*
X190591904Y-123241904D01*
X190401428Y-123289523D01*
X190163333Y-123289523D01*
X189972857Y-123241904D01*
X189877619Y-123194285D01*
X189830000Y-123146666D01*
X189782380Y-123051428D01*
X192592142Y-186217857D02*
X192639761Y-186265476D01*
X192687380Y-186408333D01*
X192687380Y-186503571D01*
X192639761Y-186646428D01*
X192544523Y-186741666D01*
X192449285Y-186789285D01*
X192258809Y-186836904D01*
X192115952Y-186836904D01*
X191925476Y-186789285D01*
X191830238Y-186741666D01*
X191735000Y-186646428D01*
X191687380Y-186503571D01*
X191687380Y-186408333D01*
X191735000Y-186265476D01*
X191782619Y-186217857D01*
X191782619Y-185836904D02*
X191735000Y-185789285D01*
X191687380Y-185694047D01*
X191687380Y-185455952D01*
X191735000Y-185360714D01*
X191782619Y-185313095D01*
X191877857Y-185265476D01*
X191973095Y-185265476D01*
X192115952Y-185313095D01*
X192687380Y-185884523D01*
X192687380Y-185265476D01*
X192687380Y-184313095D02*
X192687380Y-184884523D01*
X192687380Y-184598809D02*
X191687380Y-184598809D01*
X191830238Y-184694047D01*
X191925476Y-184789285D01*
X191973095Y-184884523D01*
X190687142Y-144307857D02*
X190734761Y-144355476D01*
X190782380Y-144498333D01*
X190782380Y-144593571D01*
X190734761Y-144736428D01*
X190639523Y-144831666D01*
X190544285Y-144879285D01*
X190353809Y-144926904D01*
X190210952Y-144926904D01*
X190020476Y-144879285D01*
X189925238Y-144831666D01*
X189830000Y-144736428D01*
X189782380Y-144593571D01*
X189782380Y-144498333D01*
X189830000Y-144355476D01*
X189877619Y-144307857D01*
X189877619Y-143926904D02*
X189830000Y-143879285D01*
X189782380Y-143784047D01*
X189782380Y-143545952D01*
X189830000Y-143450714D01*
X189877619Y-143403095D01*
X189972857Y-143355476D01*
X190068095Y-143355476D01*
X190210952Y-143403095D01*
X190782380Y-143974523D01*
X190782380Y-143355476D01*
X189877619Y-142974523D02*
X189830000Y-142926904D01*
X189782380Y-142831666D01*
X189782380Y-142593571D01*
X189830000Y-142498333D01*
X189877619Y-142450714D01*
X189972857Y-142403095D01*
X190068095Y-142403095D01*
X190210952Y-142450714D01*
X190782380Y-143022142D01*
X190782380Y-142403095D01*
X109867142Y-174937142D02*
X109819523Y-174984761D01*
X109676666Y-175032380D01*
X109581428Y-175032380D01*
X109438571Y-174984761D01*
X109343333Y-174889523D01*
X109295714Y-174794285D01*
X109248095Y-174603809D01*
X109248095Y-174460952D01*
X109295714Y-174270476D01*
X109343333Y-174175238D01*
X109438571Y-174080000D01*
X109581428Y-174032380D01*
X109676666Y-174032380D01*
X109819523Y-174080000D01*
X109867142Y-174127619D01*
X110248095Y-174127619D02*
X110295714Y-174080000D01*
X110390952Y-174032380D01*
X110629047Y-174032380D01*
X110724285Y-174080000D01*
X110771904Y-174127619D01*
X110819523Y-174222857D01*
X110819523Y-174318095D01*
X110771904Y-174460952D01*
X110200476Y-175032380D01*
X110819523Y-175032380D01*
X111676666Y-174365714D02*
X111676666Y-175032380D01*
X111438571Y-173984761D02*
X111200476Y-174699047D01*
X111819523Y-174699047D01*
X90817142Y-192717142D02*
X90769523Y-192764761D01*
X90626666Y-192812380D01*
X90531428Y-192812380D01*
X90388571Y-192764761D01*
X90293333Y-192669523D01*
X90245714Y-192574285D01*
X90198095Y-192383809D01*
X90198095Y-192240952D01*
X90245714Y-192050476D01*
X90293333Y-191955238D01*
X90388571Y-191860000D01*
X90531428Y-191812380D01*
X90626666Y-191812380D01*
X90769523Y-191860000D01*
X90817142Y-191907619D01*
X91198095Y-191907619D02*
X91245714Y-191860000D01*
X91340952Y-191812380D01*
X91579047Y-191812380D01*
X91674285Y-191860000D01*
X91721904Y-191907619D01*
X91769523Y-192002857D01*
X91769523Y-192098095D01*
X91721904Y-192240952D01*
X91150476Y-192812380D01*
X91769523Y-192812380D01*
X92674285Y-191812380D02*
X92198095Y-191812380D01*
X92150476Y-192288571D01*
X92198095Y-192240952D01*
X92293333Y-192193333D01*
X92531428Y-192193333D01*
X92626666Y-192240952D01*
X92674285Y-192288571D01*
X92721904Y-192383809D01*
X92721904Y-192621904D01*
X92674285Y-192717142D01*
X92626666Y-192764761D01*
X92531428Y-192812380D01*
X92293333Y-192812380D01*
X92198095Y-192764761D01*
X92150476Y-192717142D01*
X109867142Y-192717142D02*
X109819523Y-192764761D01*
X109676666Y-192812380D01*
X109581428Y-192812380D01*
X109438571Y-192764761D01*
X109343333Y-192669523D01*
X109295714Y-192574285D01*
X109248095Y-192383809D01*
X109248095Y-192240952D01*
X109295714Y-192050476D01*
X109343333Y-191955238D01*
X109438571Y-191860000D01*
X109581428Y-191812380D01*
X109676666Y-191812380D01*
X109819523Y-191860000D01*
X109867142Y-191907619D01*
X110248095Y-191907619D02*
X110295714Y-191860000D01*
X110390952Y-191812380D01*
X110629047Y-191812380D01*
X110724285Y-191860000D01*
X110771904Y-191907619D01*
X110819523Y-192002857D01*
X110819523Y-192098095D01*
X110771904Y-192240952D01*
X110200476Y-192812380D01*
X110819523Y-192812380D01*
X111676666Y-191812380D02*
X111486190Y-191812380D01*
X111390952Y-191860000D01*
X111343333Y-191907619D01*
X111248095Y-192050476D01*
X111200476Y-192240952D01*
X111200476Y-192621904D01*
X111248095Y-192717142D01*
X111295714Y-192764761D01*
X111390952Y-192812380D01*
X111581428Y-192812380D01*
X111676666Y-192764761D01*
X111724285Y-192717142D01*
X111771904Y-192621904D01*
X111771904Y-192383809D01*
X111724285Y-192288571D01*
X111676666Y-192240952D01*
X111581428Y-192193333D01*
X111390952Y-192193333D01*
X111295714Y-192240952D01*
X111248095Y-192288571D01*
X111200476Y-192383809D01*
X104787142Y-212402142D02*
X104739523Y-212449761D01*
X104596666Y-212497380D01*
X104501428Y-212497380D01*
X104358571Y-212449761D01*
X104263333Y-212354523D01*
X104215714Y-212259285D01*
X104168095Y-212068809D01*
X104168095Y-211925952D01*
X104215714Y-211735476D01*
X104263333Y-211640238D01*
X104358571Y-211545000D01*
X104501428Y-211497380D01*
X104596666Y-211497380D01*
X104739523Y-211545000D01*
X104787142Y-211592619D01*
X105168095Y-211592619D02*
X105215714Y-211545000D01*
X105310952Y-211497380D01*
X105549047Y-211497380D01*
X105644285Y-211545000D01*
X105691904Y-211592619D01*
X105739523Y-211687857D01*
X105739523Y-211783095D01*
X105691904Y-211925952D01*
X105120476Y-212497380D01*
X105739523Y-212497380D01*
X106072857Y-211497380D02*
X106739523Y-211497380D01*
X106310952Y-212497380D01*
X98746666Y-84262380D02*
X98746666Y-84976666D01*
X98699047Y-85119523D01*
X98603809Y-85214761D01*
X98460952Y-85262380D01*
X98365714Y-85262380D01*
X99413333Y-84262380D02*
X99508571Y-84262380D01*
X99603809Y-84310000D01*
X99651428Y-84357619D01*
X99699047Y-84452857D01*
X99746666Y-84643333D01*
X99746666Y-84881428D01*
X99699047Y-85071904D01*
X99651428Y-85167142D01*
X99603809Y-85214761D01*
X99508571Y-85262380D01*
X99413333Y-85262380D01*
X99318095Y-85214761D01*
X99270476Y-85167142D01*
X99222857Y-85071904D01*
X99175238Y-84881428D01*
X99175238Y-84643333D01*
X99222857Y-84452857D01*
X99270476Y-84357619D01*
X99318095Y-84310000D01*
X99413333Y-84262380D01*
X119046666Y-172172380D02*
X119046666Y-172886666D01*
X118999047Y-173029523D01*
X118903809Y-173124761D01*
X118760952Y-173172380D01*
X118665714Y-173172380D01*
X119951428Y-172172380D02*
X119760952Y-172172380D01*
X119665714Y-172220000D01*
X119618095Y-172267619D01*
X119522857Y-172410476D01*
X119475238Y-172600952D01*
X119475238Y-172981904D01*
X119522857Y-173077142D01*
X119570476Y-173124761D01*
X119665714Y-173172380D01*
X119856190Y-173172380D01*
X119951428Y-173124761D01*
X119999047Y-173077142D01*
X120046666Y-172981904D01*
X120046666Y-172743809D01*
X119999047Y-172648571D01*
X119951428Y-172600952D01*
X119856190Y-172553333D01*
X119665714Y-172553333D01*
X119570476Y-172600952D01*
X119522857Y-172648571D01*
X119475238Y-172743809D01*
X99996666Y-189952380D02*
X99996666Y-190666666D01*
X99949047Y-190809523D01*
X99853809Y-190904761D01*
X99710952Y-190952380D01*
X99615714Y-190952380D01*
X100377619Y-189952380D02*
X101044285Y-189952380D01*
X100615714Y-190952380D01*
X119046666Y-189952380D02*
X119046666Y-190666666D01*
X118999047Y-190809523D01*
X118903809Y-190904761D01*
X118760952Y-190952380D01*
X118665714Y-190952380D01*
X119665714Y-190380952D02*
X119570476Y-190333333D01*
X119522857Y-190285714D01*
X119475238Y-190190476D01*
X119475238Y-190142857D01*
X119522857Y-190047619D01*
X119570476Y-190000000D01*
X119665714Y-189952380D01*
X119856190Y-189952380D01*
X119951428Y-190000000D01*
X119999047Y-190047619D01*
X120046666Y-190142857D01*
X120046666Y-190190476D01*
X119999047Y-190285714D01*
X119951428Y-190333333D01*
X119856190Y-190380952D01*
X119665714Y-190380952D01*
X119570476Y-190428571D01*
X119522857Y-190476190D01*
X119475238Y-190571428D01*
X119475238Y-190761904D01*
X119522857Y-190857142D01*
X119570476Y-190904761D01*
X119665714Y-190952380D01*
X119856190Y-190952380D01*
X119951428Y-190904761D01*
X119999047Y-190857142D01*
X120046666Y-190761904D01*
X120046666Y-190571428D01*
X119999047Y-190476190D01*
X119951428Y-190428571D01*
X119856190Y-190380952D01*
X113966666Y-209637380D02*
X113966666Y-210351666D01*
X113919047Y-210494523D01*
X113823809Y-210589761D01*
X113680952Y-210637380D01*
X113585714Y-210637380D01*
X114490476Y-210637380D02*
X114680952Y-210637380D01*
X114776190Y-210589761D01*
X114823809Y-210542142D01*
X114919047Y-210399285D01*
X114966666Y-210208809D01*
X114966666Y-209827857D01*
X114919047Y-209732619D01*
X114871428Y-209685000D01*
X114776190Y-209637380D01*
X114585714Y-209637380D01*
X114490476Y-209685000D01*
X114442857Y-209732619D01*
X114395238Y-209827857D01*
X114395238Y-210065952D01*
X114442857Y-210161190D01*
X114490476Y-210208809D01*
X114585714Y-210256428D01*
X114776190Y-210256428D01*
X114871428Y-210208809D01*
X114919047Y-210161190D01*
X114966666Y-210065952D01*
X151122142Y-202562380D02*
X150788809Y-202086190D01*
X150550714Y-202562380D02*
X150550714Y-201562380D01*
X150931666Y-201562380D01*
X151026904Y-201610000D01*
X151074523Y-201657619D01*
X151122142Y-201752857D01*
X151122142Y-201895714D01*
X151074523Y-201990952D01*
X151026904Y-202038571D01*
X150931666Y-202086190D01*
X150550714Y-202086190D01*
X151503095Y-201657619D02*
X151550714Y-201610000D01*
X151645952Y-201562380D01*
X151884047Y-201562380D01*
X151979285Y-201610000D01*
X152026904Y-201657619D01*
X152074523Y-201752857D01*
X152074523Y-201848095D01*
X152026904Y-201990952D01*
X151455476Y-202562380D01*
X152074523Y-202562380D01*
X152979285Y-201562380D02*
X152503095Y-201562380D01*
X152455476Y-202038571D01*
X152503095Y-201990952D01*
X152598333Y-201943333D01*
X152836428Y-201943333D01*
X152931666Y-201990952D01*
X152979285Y-202038571D01*
X153026904Y-202133809D01*
X153026904Y-202371904D01*
X152979285Y-202467142D01*
X152931666Y-202514761D01*
X152836428Y-202562380D01*
X152598333Y-202562380D01*
X152503095Y-202514761D01*
X152455476Y-202467142D01*
X147947142Y-161922380D02*
X147613809Y-161446190D01*
X147375714Y-161922380D02*
X147375714Y-160922380D01*
X147756666Y-160922380D01*
X147851904Y-160970000D01*
X147899523Y-161017619D01*
X147947142Y-161112857D01*
X147947142Y-161255714D01*
X147899523Y-161350952D01*
X147851904Y-161398571D01*
X147756666Y-161446190D01*
X147375714Y-161446190D01*
X148328095Y-161017619D02*
X148375714Y-160970000D01*
X148470952Y-160922380D01*
X148709047Y-160922380D01*
X148804285Y-160970000D01*
X148851904Y-161017619D01*
X148899523Y-161112857D01*
X148899523Y-161208095D01*
X148851904Y-161350952D01*
X148280476Y-161922380D01*
X148899523Y-161922380D01*
X149756666Y-160922380D02*
X149566190Y-160922380D01*
X149470952Y-160970000D01*
X149423333Y-161017619D01*
X149328095Y-161160476D01*
X149280476Y-161350952D01*
X149280476Y-161731904D01*
X149328095Y-161827142D01*
X149375714Y-161874761D01*
X149470952Y-161922380D01*
X149661428Y-161922380D01*
X149756666Y-161874761D01*
X149804285Y-161827142D01*
X149851904Y-161731904D01*
X149851904Y-161493809D01*
X149804285Y-161398571D01*
X149756666Y-161350952D01*
X149661428Y-161303333D01*
X149470952Y-161303333D01*
X149375714Y-161350952D01*
X149328095Y-161398571D01*
X149280476Y-161493809D01*
X147947142Y-121282380D02*
X147613809Y-120806190D01*
X147375714Y-121282380D02*
X147375714Y-120282380D01*
X147756666Y-120282380D01*
X147851904Y-120330000D01*
X147899523Y-120377619D01*
X147947142Y-120472857D01*
X147947142Y-120615714D01*
X147899523Y-120710952D01*
X147851904Y-120758571D01*
X147756666Y-120806190D01*
X147375714Y-120806190D01*
X148328095Y-120377619D02*
X148375714Y-120330000D01*
X148470952Y-120282380D01*
X148709047Y-120282380D01*
X148804285Y-120330000D01*
X148851904Y-120377619D01*
X148899523Y-120472857D01*
X148899523Y-120568095D01*
X148851904Y-120710952D01*
X148280476Y-121282380D01*
X148899523Y-121282380D01*
X149232857Y-120282380D02*
X149899523Y-120282380D01*
X149470952Y-121282380D01*
X95877142Y-161562380D02*
X95543809Y-161086190D01*
X95305714Y-161562380D02*
X95305714Y-160562380D01*
X95686666Y-160562380D01*
X95781904Y-160610000D01*
X95829523Y-160657619D01*
X95877142Y-160752857D01*
X95877142Y-160895714D01*
X95829523Y-160990952D01*
X95781904Y-161038571D01*
X95686666Y-161086190D01*
X95305714Y-161086190D01*
X96258095Y-160657619D02*
X96305714Y-160610000D01*
X96400952Y-160562380D01*
X96639047Y-160562380D01*
X96734285Y-160610000D01*
X96781904Y-160657619D01*
X96829523Y-160752857D01*
X96829523Y-160848095D01*
X96781904Y-160990952D01*
X96210476Y-161562380D01*
X96829523Y-161562380D01*
X97400952Y-160990952D02*
X97305714Y-160943333D01*
X97258095Y-160895714D01*
X97210476Y-160800476D01*
X97210476Y-160752857D01*
X97258095Y-160657619D01*
X97305714Y-160610000D01*
X97400952Y-160562380D01*
X97591428Y-160562380D01*
X97686666Y-160610000D01*
X97734285Y-160657619D01*
X97781904Y-160752857D01*
X97781904Y-160800476D01*
X97734285Y-160895714D01*
X97686666Y-160943333D01*
X97591428Y-160990952D01*
X97400952Y-160990952D01*
X97305714Y-161038571D01*
X97258095Y-161086190D01*
X97210476Y-161181428D01*
X97210476Y-161371904D01*
X97258095Y-161467142D01*
X97305714Y-161514761D01*
X97400952Y-161562380D01*
X97591428Y-161562380D01*
X97686666Y-161514761D01*
X97734285Y-161467142D01*
X97781904Y-161371904D01*
X97781904Y-161181428D01*
X97734285Y-161086190D01*
X97686666Y-161038571D01*
X97591428Y-160990952D01*
X114927142Y-161562380D02*
X114593809Y-161086190D01*
X114355714Y-161562380D02*
X114355714Y-160562380D01*
X114736666Y-160562380D01*
X114831904Y-160610000D01*
X114879523Y-160657619D01*
X114927142Y-160752857D01*
X114927142Y-160895714D01*
X114879523Y-160990952D01*
X114831904Y-161038571D01*
X114736666Y-161086190D01*
X114355714Y-161086190D01*
X115308095Y-160657619D02*
X115355714Y-160610000D01*
X115450952Y-160562380D01*
X115689047Y-160562380D01*
X115784285Y-160610000D01*
X115831904Y-160657619D01*
X115879523Y-160752857D01*
X115879523Y-160848095D01*
X115831904Y-160990952D01*
X115260476Y-161562380D01*
X115879523Y-161562380D01*
X116355714Y-161562380D02*
X116546190Y-161562380D01*
X116641428Y-161514761D01*
X116689047Y-161467142D01*
X116784285Y-161324285D01*
X116831904Y-161133809D01*
X116831904Y-160752857D01*
X116784285Y-160657619D01*
X116736666Y-160610000D01*
X116641428Y-160562380D01*
X116450952Y-160562380D01*
X116355714Y-160610000D01*
X116308095Y-160657619D01*
X116260476Y-160752857D01*
X116260476Y-160990952D01*
X116308095Y-161086190D01*
X116355714Y-161133809D01*
X116450952Y-161181428D01*
X116641428Y-161181428D01*
X116736666Y-161133809D01*
X116784285Y-161086190D01*
X116831904Y-160990952D01*
X95877142Y-179342380D02*
X95543809Y-178866190D01*
X95305714Y-179342380D02*
X95305714Y-178342380D01*
X95686666Y-178342380D01*
X95781904Y-178390000D01*
X95829523Y-178437619D01*
X95877142Y-178532857D01*
X95877142Y-178675714D01*
X95829523Y-178770952D01*
X95781904Y-178818571D01*
X95686666Y-178866190D01*
X95305714Y-178866190D01*
X96210476Y-178342380D02*
X96829523Y-178342380D01*
X96496190Y-178723333D01*
X96639047Y-178723333D01*
X96734285Y-178770952D01*
X96781904Y-178818571D01*
X96829523Y-178913809D01*
X96829523Y-179151904D01*
X96781904Y-179247142D01*
X96734285Y-179294761D01*
X96639047Y-179342380D01*
X96353333Y-179342380D01*
X96258095Y-179294761D01*
X96210476Y-179247142D01*
X97448571Y-178342380D02*
X97543809Y-178342380D01*
X97639047Y-178390000D01*
X97686666Y-178437619D01*
X97734285Y-178532857D01*
X97781904Y-178723333D01*
X97781904Y-178961428D01*
X97734285Y-179151904D01*
X97686666Y-179247142D01*
X97639047Y-179294761D01*
X97543809Y-179342380D01*
X97448571Y-179342380D01*
X97353333Y-179294761D01*
X97305714Y-179247142D01*
X97258095Y-179151904D01*
X97210476Y-178961428D01*
X97210476Y-178723333D01*
X97258095Y-178532857D01*
X97305714Y-178437619D01*
X97353333Y-178390000D01*
X97448571Y-178342380D01*
X114927142Y-179342380D02*
X114593809Y-178866190D01*
X114355714Y-179342380D02*
X114355714Y-178342380D01*
X114736666Y-178342380D01*
X114831904Y-178390000D01*
X114879523Y-178437619D01*
X114927142Y-178532857D01*
X114927142Y-178675714D01*
X114879523Y-178770952D01*
X114831904Y-178818571D01*
X114736666Y-178866190D01*
X114355714Y-178866190D01*
X115260476Y-178342380D02*
X115879523Y-178342380D01*
X115546190Y-178723333D01*
X115689047Y-178723333D01*
X115784285Y-178770952D01*
X115831904Y-178818571D01*
X115879523Y-178913809D01*
X115879523Y-179151904D01*
X115831904Y-179247142D01*
X115784285Y-179294761D01*
X115689047Y-179342380D01*
X115403333Y-179342380D01*
X115308095Y-179294761D01*
X115260476Y-179247142D01*
X116831904Y-179342380D02*
X116260476Y-179342380D01*
X116546190Y-179342380D02*
X116546190Y-178342380D01*
X116450952Y-178485238D01*
X116355714Y-178580476D01*
X116260476Y-178628095D01*
X109847142Y-199027380D02*
X109513809Y-198551190D01*
X109275714Y-199027380D02*
X109275714Y-198027380D01*
X109656666Y-198027380D01*
X109751904Y-198075000D01*
X109799523Y-198122619D01*
X109847142Y-198217857D01*
X109847142Y-198360714D01*
X109799523Y-198455952D01*
X109751904Y-198503571D01*
X109656666Y-198551190D01*
X109275714Y-198551190D01*
X110180476Y-198027380D02*
X110799523Y-198027380D01*
X110466190Y-198408333D01*
X110609047Y-198408333D01*
X110704285Y-198455952D01*
X110751904Y-198503571D01*
X110799523Y-198598809D01*
X110799523Y-198836904D01*
X110751904Y-198932142D01*
X110704285Y-198979761D01*
X110609047Y-199027380D01*
X110323333Y-199027380D01*
X110228095Y-198979761D01*
X110180476Y-198932142D01*
X111180476Y-198122619D02*
X111228095Y-198075000D01*
X111323333Y-198027380D01*
X111561428Y-198027380D01*
X111656666Y-198075000D01*
X111704285Y-198122619D01*
X111751904Y-198217857D01*
X111751904Y-198313095D01*
X111704285Y-198455952D01*
X111132857Y-199027380D01*
X111751904Y-199027380D01*
X115022380Y-127761904D02*
X115831904Y-127761904D01*
X115927142Y-127714285D01*
X115974761Y-127666666D01*
X116022380Y-127571428D01*
X116022380Y-127380952D01*
X115974761Y-127285714D01*
X115927142Y-127238095D01*
X115831904Y-127190476D01*
X115022380Y-127190476D01*
X115022380Y-126523809D02*
X115022380Y-126428571D01*
X115070000Y-126333333D01*
X115117619Y-126285714D01*
X115212857Y-126238095D01*
X115403333Y-126190476D01*
X115641428Y-126190476D01*
X115831904Y-126238095D01*
X115927142Y-126285714D01*
X115974761Y-126333333D01*
X116022380Y-126428571D01*
X116022380Y-126523809D01*
X115974761Y-126619047D01*
X115927142Y-126666666D01*
X115831904Y-126714285D01*
X115641428Y-126761904D01*
X115403333Y-126761904D01*
X115212857Y-126714285D01*
X115117619Y-126666666D01*
X115070000Y-126619047D01*
X115022380Y-126523809D01*
X142748095Y-113752380D02*
X142748095Y-114561904D01*
X142795714Y-114657142D01*
X142843333Y-114704761D01*
X142938571Y-114752380D01*
X143129047Y-114752380D01*
X143224285Y-114704761D01*
X143271904Y-114657142D01*
X143319523Y-114561904D01*
X143319523Y-113752380D01*
X144319523Y-114752380D02*
X143748095Y-114752380D01*
X144033809Y-114752380D02*
X144033809Y-113752380D01*
X143938571Y-113895238D01*
X143843333Y-113990476D01*
X143748095Y-114038095D01*
X153122380Y-108156190D02*
X153122380Y-107584761D01*
X154122380Y-107870476D02*
X153122380Y-107870476D01*
X153122380Y-107346666D02*
X153122380Y-106727619D01*
X153503333Y-107060952D01*
X153503333Y-106918095D01*
X153550952Y-106822857D01*
X153598571Y-106775238D01*
X153693809Y-106727619D01*
X153931904Y-106727619D01*
X154027142Y-106775238D01*
X154074761Y-106822857D01*
X154122380Y-106918095D01*
X154122380Y-107203809D01*
X154074761Y-107299047D01*
X154027142Y-107346666D01*
X154027142Y-106299047D02*
X154074761Y-106251428D01*
X154122380Y-106299047D01*
X154074761Y-106346666D01*
X154027142Y-106299047D01*
X154122380Y-106299047D01*
X153217619Y-105870476D02*
X153170000Y-105822857D01*
X153122380Y-105727619D01*
X153122380Y-105489523D01*
X153170000Y-105394285D01*
X153217619Y-105346666D01*
X153312857Y-105299047D01*
X153408095Y-105299047D01*
X153550952Y-105346666D01*
X154122380Y-105918095D01*
X154122380Y-105299047D01*
X149312380Y-108156190D02*
X149312380Y-107584761D01*
X150312380Y-107870476D02*
X149312380Y-107870476D01*
X149312380Y-107346666D02*
X149312380Y-106727619D01*
X149693333Y-107060952D01*
X149693333Y-106918095D01*
X149740952Y-106822857D01*
X149788571Y-106775238D01*
X149883809Y-106727619D01*
X150121904Y-106727619D01*
X150217142Y-106775238D01*
X150264761Y-106822857D01*
X150312380Y-106918095D01*
X150312380Y-107203809D01*
X150264761Y-107299047D01*
X150217142Y-107346666D01*
X150217142Y-106299047D02*
X150264761Y-106251428D01*
X150312380Y-106299047D01*
X150264761Y-106346666D01*
X150217142Y-106299047D01*
X150312380Y-106299047D01*
X150312380Y-105299047D02*
X150312380Y-105870476D01*
X150312380Y-105584761D02*
X149312380Y-105584761D01*
X149455238Y-105680000D01*
X149550476Y-105775238D01*
X149598095Y-105870476D01*
X142748095Y-154392380D02*
X142748095Y-155201904D01*
X142795714Y-155297142D01*
X142843333Y-155344761D01*
X142938571Y-155392380D01*
X143129047Y-155392380D01*
X143224285Y-155344761D01*
X143271904Y-155297142D01*
X143319523Y-155201904D01*
X143319523Y-154392380D01*
X143748095Y-154487619D02*
X143795714Y-154440000D01*
X143890952Y-154392380D01*
X144129047Y-154392380D01*
X144224285Y-154440000D01*
X144271904Y-154487619D01*
X144319523Y-154582857D01*
X144319523Y-154678095D01*
X144271904Y-154820952D01*
X143700476Y-155392380D01*
X144319523Y-155392380D01*
X153122380Y-148796190D02*
X153122380Y-148224761D01*
X154122380Y-148510476D02*
X153122380Y-148510476D01*
X153122380Y-147986666D02*
X153122380Y-147367619D01*
X153503333Y-147700952D01*
X153503333Y-147558095D01*
X153550952Y-147462857D01*
X153598571Y-147415238D01*
X153693809Y-147367619D01*
X153931904Y-147367619D01*
X154027142Y-147415238D01*
X154074761Y-147462857D01*
X154122380Y-147558095D01*
X154122380Y-147843809D01*
X154074761Y-147939047D01*
X154027142Y-147986666D01*
X154027142Y-146939047D02*
X154074761Y-146891428D01*
X154122380Y-146939047D01*
X154074761Y-146986666D01*
X154027142Y-146939047D01*
X154122380Y-146939047D01*
X153217619Y-146510476D02*
X153170000Y-146462857D01*
X153122380Y-146367619D01*
X153122380Y-146129523D01*
X153170000Y-146034285D01*
X153217619Y-145986666D01*
X153312857Y-145939047D01*
X153408095Y-145939047D01*
X153550952Y-145986666D01*
X154122380Y-146558095D01*
X154122380Y-145939047D01*
X149312380Y-148796190D02*
X149312380Y-148224761D01*
X150312380Y-148510476D02*
X149312380Y-148510476D01*
X149312380Y-147986666D02*
X149312380Y-147367619D01*
X149693333Y-147700952D01*
X149693333Y-147558095D01*
X149740952Y-147462857D01*
X149788571Y-147415238D01*
X149883809Y-147367619D01*
X150121904Y-147367619D01*
X150217142Y-147415238D01*
X150264761Y-147462857D01*
X150312380Y-147558095D01*
X150312380Y-147843809D01*
X150264761Y-147939047D01*
X150217142Y-147986666D01*
X150217142Y-146939047D02*
X150264761Y-146891428D01*
X150312380Y-146939047D01*
X150264761Y-146986666D01*
X150217142Y-146939047D01*
X150312380Y-146939047D01*
X150312380Y-145939047D02*
X150312380Y-146510476D01*
X150312380Y-146224761D02*
X149312380Y-146224761D01*
X149455238Y-146320000D01*
X149550476Y-146415238D01*
X149598095Y-146510476D01*
X145923095Y-195032380D02*
X145923095Y-195841904D01*
X145970714Y-195937142D01*
X146018333Y-195984761D01*
X146113571Y-196032380D01*
X146304047Y-196032380D01*
X146399285Y-195984761D01*
X146446904Y-195937142D01*
X146494523Y-195841904D01*
X146494523Y-195032380D01*
X146875476Y-195032380D02*
X147494523Y-195032380D01*
X147161190Y-195413333D01*
X147304047Y-195413333D01*
X147399285Y-195460952D01*
X147446904Y-195508571D01*
X147494523Y-195603809D01*
X147494523Y-195841904D01*
X147446904Y-195937142D01*
X147399285Y-195984761D01*
X147304047Y-196032380D01*
X147018333Y-196032380D01*
X146923095Y-195984761D01*
X146875476Y-195937142D01*
X156297380Y-189436190D02*
X156297380Y-188864761D01*
X157297380Y-189150476D02*
X156297380Y-189150476D01*
X156297380Y-188626666D02*
X156297380Y-188007619D01*
X156678333Y-188340952D01*
X156678333Y-188198095D01*
X156725952Y-188102857D01*
X156773571Y-188055238D01*
X156868809Y-188007619D01*
X157106904Y-188007619D01*
X157202142Y-188055238D01*
X157249761Y-188102857D01*
X157297380Y-188198095D01*
X157297380Y-188483809D01*
X157249761Y-188579047D01*
X157202142Y-188626666D01*
X157202142Y-187579047D02*
X157249761Y-187531428D01*
X157297380Y-187579047D01*
X157249761Y-187626666D01*
X157202142Y-187579047D01*
X157297380Y-187579047D01*
X156392619Y-187150476D02*
X156345000Y-187102857D01*
X156297380Y-187007619D01*
X156297380Y-186769523D01*
X156345000Y-186674285D01*
X156392619Y-186626666D01*
X156487857Y-186579047D01*
X156583095Y-186579047D01*
X156725952Y-186626666D01*
X157297380Y-187198095D01*
X157297380Y-186579047D01*
X152487380Y-189436190D02*
X152487380Y-188864761D01*
X153487380Y-189150476D02*
X152487380Y-189150476D01*
X152487380Y-188626666D02*
X152487380Y-188007619D01*
X152868333Y-188340952D01*
X152868333Y-188198095D01*
X152915952Y-188102857D01*
X152963571Y-188055238D01*
X153058809Y-188007619D01*
X153296904Y-188007619D01*
X153392142Y-188055238D01*
X153439761Y-188102857D01*
X153487380Y-188198095D01*
X153487380Y-188483809D01*
X153439761Y-188579047D01*
X153392142Y-188626666D01*
X153392142Y-187579047D02*
X153439761Y-187531428D01*
X153487380Y-187579047D01*
X153439761Y-187626666D01*
X153392142Y-187579047D01*
X153487380Y-187579047D01*
X153487380Y-186579047D02*
X153487380Y-187150476D01*
X153487380Y-186864761D02*
X152487380Y-186864761D01*
X152630238Y-186960000D01*
X152725476Y-187055238D01*
X152773095Y-187150476D01*
X198972380Y-94741904D02*
X199781904Y-94741904D01*
X199877142Y-94694285D01*
X199924761Y-94646666D01*
X199972380Y-94551428D01*
X199972380Y-94360952D01*
X199924761Y-94265714D01*
X199877142Y-94218095D01*
X199781904Y-94170476D01*
X198972380Y-94170476D01*
X198972380Y-93218095D02*
X198972380Y-93694285D01*
X199448571Y-93741904D01*
X199400952Y-93694285D01*
X199353333Y-93599047D01*
X199353333Y-93360952D01*
X199400952Y-93265714D01*
X199448571Y-93218095D01*
X199543809Y-93170476D01*
X199781904Y-93170476D01*
X199877142Y-93218095D01*
X199924761Y-93265714D01*
X199972380Y-93360952D01*
X199972380Y-93599047D01*
X199924761Y-93694285D01*
X199877142Y-93741904D01*
X198972380Y-135381904D02*
X199781904Y-135381904D01*
X199877142Y-135334285D01*
X199924761Y-135286666D01*
X199972380Y-135191428D01*
X199972380Y-135000952D01*
X199924761Y-134905714D01*
X199877142Y-134858095D01*
X199781904Y-134810476D01*
X198972380Y-134810476D01*
X198972380Y-134429523D02*
X198972380Y-133762857D01*
X199972380Y-134191428D01*
X198972380Y-155701904D02*
X199781904Y-155701904D01*
X199877142Y-155654285D01*
X199924761Y-155606666D01*
X199972380Y-155511428D01*
X199972380Y-155320952D01*
X199924761Y-155225714D01*
X199877142Y-155178095D01*
X199781904Y-155130476D01*
X198972380Y-155130476D01*
X199400952Y-154511428D02*
X199353333Y-154606666D01*
X199305714Y-154654285D01*
X199210476Y-154701904D01*
X199162857Y-154701904D01*
X199067619Y-154654285D01*
X199020000Y-154606666D01*
X198972380Y-154511428D01*
X198972380Y-154320952D01*
X199020000Y-154225714D01*
X199067619Y-154178095D01*
X199162857Y-154130476D01*
X199210476Y-154130476D01*
X199305714Y-154178095D01*
X199353333Y-154225714D01*
X199400952Y-154320952D01*
X199400952Y-154511428D01*
X199448571Y-154606666D01*
X199496190Y-154654285D01*
X199591428Y-154701904D01*
X199781904Y-154701904D01*
X199877142Y-154654285D01*
X199924761Y-154606666D01*
X199972380Y-154511428D01*
X199972380Y-154320952D01*
X199924761Y-154225714D01*
X199877142Y-154178095D01*
X199781904Y-154130476D01*
X199591428Y-154130476D01*
X199496190Y-154178095D01*
X199448571Y-154225714D01*
X199400952Y-154320952D01*
X201512380Y-176021904D02*
X202321904Y-176021904D01*
X202417142Y-175974285D01*
X202464761Y-175926666D01*
X202512380Y-175831428D01*
X202512380Y-175640952D01*
X202464761Y-175545714D01*
X202417142Y-175498095D01*
X202321904Y-175450476D01*
X201512380Y-175450476D01*
X202512380Y-174926666D02*
X202512380Y-174736190D01*
X202464761Y-174640952D01*
X202417142Y-174593333D01*
X202274285Y-174498095D01*
X202083809Y-174450476D01*
X201702857Y-174450476D01*
X201607619Y-174498095D01*
X201560000Y-174545714D01*
X201512380Y-174640952D01*
X201512380Y-174831428D01*
X201560000Y-174926666D01*
X201607619Y-174974285D01*
X201702857Y-175021904D01*
X201940952Y-175021904D01*
X202036190Y-174974285D01*
X202083809Y-174926666D01*
X202131428Y-174831428D01*
X202131428Y-174640952D01*
X202083809Y-174545714D01*
X202036190Y-174498095D01*
X201940952Y-174450476D01*
X201512380Y-196818095D02*
X202321904Y-196818095D01*
X202417142Y-196770476D01*
X202464761Y-196722857D01*
X202512380Y-196627619D01*
X202512380Y-196437142D01*
X202464761Y-196341904D01*
X202417142Y-196294285D01*
X202321904Y-196246666D01*
X201512380Y-196246666D01*
X202512380Y-195246666D02*
X202512380Y-195818095D01*
X202512380Y-195532380D02*
X201512380Y-195532380D01*
X201655238Y-195627619D01*
X201750476Y-195722857D01*
X201798095Y-195818095D01*
X201512380Y-194627619D02*
X201512380Y-194532380D01*
X201560000Y-194437142D01*
X201607619Y-194389523D01*
X201702857Y-194341904D01*
X201893333Y-194294285D01*
X202131428Y-194294285D01*
X202321904Y-194341904D01*
X202417142Y-194389523D01*
X202464761Y-194437142D01*
X202512380Y-194532380D01*
X202512380Y-194627619D01*
X202464761Y-194722857D01*
X202417142Y-194770476D01*
X202321904Y-194818095D01*
X202131428Y-194865714D01*
X201893333Y-194865714D01*
X201702857Y-194818095D01*
X201607619Y-194770476D01*
X201560000Y-194722857D01*
X201512380Y-194627619D01*
M02*
