G04 #@! TF.GenerationSoftware,KiCad,Pcbnew,5.1.3-ffb9f22~84~ubuntu18.04.1*
G04 #@! TF.CreationDate,2019-08-01T16:23:33-04:00*
G04 #@! TF.ProjectId,firstPCB,66697273-7450-4434-922e-6b696361645f,rev?*
G04 #@! TF.SameCoordinates,Original*
G04 #@! TF.FileFunction,Copper,L1,Top*
G04 #@! TF.FilePolarity,Positive*
%FSLAX46Y46*%
G04 Gerber Fmt 4.6, Leading zero omitted, Abs format (unit mm)*
G04 Created by KiCad (PCBNEW 5.1.3-ffb9f22~84~ubuntu18.04.1) date 2019-08-01 16:23:33*
%MOMM*%
%LPD*%
G04 APERTURE LIST*
%ADD10C,1.300000*%
%ADD11C,3.500000*%
%ADD12C,1.200000*%
%ADD13O,1.440000X2.000000*%
%ADD14R,1.440000X2.000000*%
%ADD15C,2.400000*%
%ADD16R,2.400000X2.400000*%
%ADD17C,1.600000*%
%ADD18R,1.600000X1.600000*%
%ADD19C,3.000000*%
%ADD20R,3.000000X3.000000*%
%ADD21O,1.600000X1.600000*%
%ADD22C,1.900000*%
%ADD23C,0.250000*%
%ADD24C,0.500000*%
G04 APERTURE END LIST*
D10*
X101060000Y-169298401D03*
X99060000Y-169298401D03*
D11*
X235460000Y-171100000D03*
X235460000Y-199640000D03*
D12*
X231140000Y-181100000D03*
X231140000Y-175010000D03*
X232920000Y-176020000D03*
X232920000Y-178050000D03*
X232920000Y-173990000D03*
X232920000Y-180080000D03*
X231140000Y-179070000D03*
X231140000Y-177040000D03*
X232920000Y-195830000D03*
X232920000Y-189740000D03*
X232920000Y-193800000D03*
X232920000Y-191770000D03*
X231140000Y-190760000D03*
X231140000Y-192790000D03*
X231140000Y-194820000D03*
X231140000Y-196850000D03*
D11*
X235460000Y-130460000D03*
X235460000Y-159000000D03*
D12*
X231140000Y-140460000D03*
X231140000Y-134370000D03*
X232920000Y-135380000D03*
X232920000Y-137410000D03*
X232920000Y-133350000D03*
X232920000Y-139440000D03*
X231140000Y-138430000D03*
X231140000Y-136400000D03*
X232920000Y-155190000D03*
X232920000Y-149100000D03*
X232920000Y-153160000D03*
X232920000Y-151130000D03*
X231140000Y-150120000D03*
X231140000Y-152150000D03*
X231140000Y-154180000D03*
X231140000Y-156210000D03*
D11*
X235460000Y-89820000D03*
X235460000Y-118360000D03*
D12*
X231140000Y-99820000D03*
X231140000Y-93730000D03*
X232920000Y-94740000D03*
X232920000Y-96770000D03*
X232920000Y-92710000D03*
X232920000Y-98800000D03*
X231140000Y-97790000D03*
X231140000Y-95760000D03*
X232920000Y-114550000D03*
X232920000Y-108460000D03*
X232920000Y-112520000D03*
X232920000Y-110490000D03*
X231140000Y-109480000D03*
X231140000Y-111510000D03*
X231140000Y-113540000D03*
X231140000Y-115570000D03*
D13*
X172720000Y-118110000D03*
X172720000Y-110490000D03*
X175260000Y-118110000D03*
X175260000Y-110490000D03*
X177800000Y-118110000D03*
X177800000Y-110490000D03*
X180340000Y-118110000D03*
X180340000Y-110490000D03*
X182880000Y-118110000D03*
X182880000Y-110490000D03*
X185420000Y-118110000D03*
X185420000Y-110490000D03*
X187960000Y-118110000D03*
D14*
X187960000Y-110490000D03*
D15*
X115690000Y-81280000D03*
D16*
X123190000Y-81280000D03*
D17*
X90210000Y-170180000D03*
D18*
X92710000Y-170180000D03*
D17*
X152090000Y-167640000D03*
D18*
X148590000Y-167640000D03*
D17*
X149550000Y-127000000D03*
D18*
X146050000Y-127000000D03*
D17*
X195580000Y-101910000D03*
D18*
X195580000Y-105410000D03*
D17*
X195580000Y-162870000D03*
D18*
X195580000Y-166370000D03*
D17*
X195580000Y-122230000D03*
D18*
X195580000Y-125730000D03*
D17*
X197485000Y-183825000D03*
D18*
X197485000Y-187325000D03*
D17*
X195580000Y-141915000D03*
D18*
X195580000Y-145415000D03*
D17*
X109260000Y-170180000D03*
D18*
X111760000Y-170180000D03*
D17*
X90210000Y-187960000D03*
D18*
X92710000Y-187960000D03*
D17*
X109260000Y-187960000D03*
D18*
X111760000Y-187960000D03*
D17*
X104180000Y-207645000D03*
D18*
X106680000Y-207645000D03*
D19*
X91440000Y-80010000D03*
D20*
X106680000Y-80010000D03*
D19*
X96520000Y-80010000D03*
X101600000Y-80010000D03*
D10*
X120110000Y-168910000D03*
X118110000Y-168910000D03*
X101060000Y-186690000D03*
X99060000Y-186690000D03*
X120110000Y-186690000D03*
X118110000Y-186690000D03*
X115030000Y-206375000D03*
X113030000Y-206375000D03*
D21*
X204470000Y-91440000D03*
D17*
X219710000Y-91440000D03*
D21*
X204470000Y-95250000D03*
D17*
X219710000Y-95250000D03*
D21*
X204470000Y-99060000D03*
D17*
X219710000Y-99060000D03*
D21*
X204470000Y-102870000D03*
D17*
X219710000Y-102870000D03*
D21*
X204470000Y-106680000D03*
D17*
X219710000Y-106680000D03*
D21*
X204470000Y-110490000D03*
D17*
X219710000Y-110490000D03*
D21*
X204470000Y-114300000D03*
D17*
X219710000Y-114300000D03*
D21*
X204470000Y-118110000D03*
D17*
X219710000Y-118110000D03*
D21*
X204470000Y-132080000D03*
D17*
X219710000Y-132080000D03*
D21*
X204470000Y-135890000D03*
D17*
X219710000Y-135890000D03*
D21*
X204470000Y-139700000D03*
D17*
X219710000Y-139700000D03*
D21*
X204470000Y-143510000D03*
D17*
X219710000Y-143510000D03*
D21*
X204470000Y-147320000D03*
D17*
X219710000Y-147320000D03*
D21*
X204470000Y-151130000D03*
D17*
X219710000Y-151130000D03*
D21*
X204470000Y-154940000D03*
D17*
X219710000Y-154940000D03*
D21*
X204470000Y-158750000D03*
D17*
X219710000Y-158750000D03*
D21*
X205740000Y-172720000D03*
D17*
X220980000Y-172720000D03*
D21*
X205740000Y-176530000D03*
D17*
X220980000Y-176530000D03*
D21*
X205740000Y-180340000D03*
D17*
X220980000Y-180340000D03*
D21*
X205740000Y-184150000D03*
D17*
X220980000Y-184150000D03*
D21*
X205740000Y-187960000D03*
D17*
X220980000Y-187960000D03*
D21*
X205740000Y-191770000D03*
D17*
X220980000Y-191770000D03*
D21*
X205740000Y-195580000D03*
D17*
X220980000Y-195580000D03*
D21*
X205740000Y-199390000D03*
D17*
X220980000Y-199390000D03*
D21*
X144145000Y-199390000D03*
D17*
X159385000Y-199390000D03*
D21*
X140970000Y-158750000D03*
D17*
X156210000Y-158750000D03*
D21*
X140970000Y-118110000D03*
D17*
X156210000Y-118110000D03*
D21*
X104140000Y-163830000D03*
D17*
X88900000Y-163830000D03*
D21*
X123190000Y-163830000D03*
D17*
X107950000Y-163830000D03*
D21*
X104140000Y-181610000D03*
D17*
X88900000Y-181610000D03*
D21*
X123190000Y-181610000D03*
D17*
X107950000Y-181610000D03*
D21*
X118110000Y-201295000D03*
D17*
X102870000Y-201295000D03*
X97790000Y-138430000D03*
X97790000Y-140970000D03*
X97790000Y-143510000D03*
X97790000Y-146050000D03*
X97790000Y-135890000D03*
X97790000Y-133350000D03*
X97790000Y-130810000D03*
X97790000Y-148590000D03*
X97790000Y-151130000D03*
X97790000Y-153670000D03*
X97790000Y-156210000D03*
X100330000Y-143510000D03*
X102870000Y-143510000D03*
X105410000Y-143510000D03*
X107950000Y-143510000D03*
X110490000Y-143510000D03*
X113030000Y-156210000D03*
X113030000Y-153670000D03*
X113030000Y-151130000D03*
X113030000Y-148590000D03*
X113030000Y-146050000D03*
X113030000Y-143510000D03*
X113030000Y-140970000D03*
X113030000Y-138430000D03*
X97790000Y-128270000D03*
X97790000Y-125730000D03*
X97790000Y-123190000D03*
X97790000Y-120650000D03*
X97790000Y-118110000D03*
X97790000Y-115570000D03*
X97790000Y-113030000D03*
X97790000Y-110490000D03*
X97790000Y-107950000D03*
X97790000Y-105410000D03*
X97790000Y-102870000D03*
X97790000Y-100330000D03*
D18*
X97790000Y-97790000D03*
D17*
X113030000Y-135890000D03*
X113030000Y-133350000D03*
X113030000Y-130810000D03*
X113030000Y-128270000D03*
X113030000Y-125730000D03*
X113030000Y-123190000D03*
X113030000Y-120650000D03*
X113030000Y-118110000D03*
X113030000Y-115570000D03*
X113030000Y-113030000D03*
X113030000Y-110490000D03*
X113030000Y-107950000D03*
X113030000Y-105410000D03*
X113030000Y-102870000D03*
X113030000Y-100330000D03*
X113030000Y-97790000D03*
X110490000Y-100330000D03*
X110490000Y-105410000D03*
X110490000Y-107950000D03*
X110490000Y-110490000D03*
X105410000Y-113030000D03*
X105410000Y-115570000D03*
X105410000Y-118110000D03*
X105410000Y-120650000D03*
X105410000Y-135890000D03*
X105410000Y-138430000D03*
X105410000Y-140970000D03*
X105410000Y-146050000D03*
X105410000Y-148590000D03*
X105410000Y-151130000D03*
X105410000Y-153670000D03*
X105410000Y-156210000D03*
X107950000Y-156210000D03*
X107950000Y-153670000D03*
X107950000Y-151130000D03*
X107950000Y-148590000D03*
X107950000Y-146050000D03*
X107950000Y-140970000D03*
X107950000Y-138430000D03*
X107950000Y-135890000D03*
X107950000Y-120650000D03*
X107950000Y-118110000D03*
X107950000Y-115570000D03*
X107950000Y-113030000D03*
X100790000Y-104140000D03*
X100790000Y-106680000D03*
X100790000Y-109220000D03*
X100790000Y-111760000D03*
X100790000Y-114300000D03*
X127000000Y-104140000D03*
X127000000Y-106680000D03*
X127000000Y-109220000D03*
X127000000Y-111760000D03*
X127000000Y-101600000D03*
X127000000Y-99060000D03*
X127000000Y-96520000D03*
X129540000Y-111760000D03*
X132080000Y-111760000D03*
X134620000Y-111760000D03*
X137160000Y-111760000D03*
X139700000Y-111760000D03*
X142240000Y-111760000D03*
X144780000Y-111760000D03*
X147320000Y-111760000D03*
X149860000Y-111760000D03*
X152400000Y-111760000D03*
X154940000Y-111760000D03*
X157480000Y-111760000D03*
X160020000Y-111760000D03*
X157480000Y-109220000D03*
X152400000Y-109220000D03*
X149860000Y-109220000D03*
X147320000Y-109220000D03*
X129540000Y-96520000D03*
X132080000Y-96520000D03*
X134620000Y-96520000D03*
X137160000Y-96520000D03*
X139700000Y-96520000D03*
X142240000Y-96520000D03*
X144780000Y-96520000D03*
X147320000Y-96520000D03*
X149860000Y-96520000D03*
X152400000Y-96520000D03*
X154940000Y-96520000D03*
X157480000Y-96520000D03*
D18*
X160020000Y-96520000D03*
D17*
X144780000Y-104140000D03*
X142240000Y-104140000D03*
X139700000Y-104140000D03*
X137160000Y-104140000D03*
X134620000Y-104140000D03*
X132080000Y-104140000D03*
X129540000Y-104140000D03*
X129540000Y-106680000D03*
X132080000Y-106680000D03*
X134620000Y-106680000D03*
X137160000Y-106680000D03*
X139700000Y-106680000D03*
X142240000Y-106680000D03*
X144780000Y-106680000D03*
D22*
X149860000Y-104140000D03*
X153670000Y-104140000D03*
D17*
X127000000Y-144780000D03*
X127000000Y-147320000D03*
X127000000Y-149860000D03*
X127000000Y-152400000D03*
X127000000Y-142240000D03*
X127000000Y-139700000D03*
X127000000Y-137160000D03*
X129540000Y-152400000D03*
X132080000Y-152400000D03*
X134620000Y-152400000D03*
X137160000Y-152400000D03*
X139700000Y-152400000D03*
X142240000Y-152400000D03*
X144780000Y-152400000D03*
X147320000Y-152400000D03*
X149860000Y-152400000D03*
X152400000Y-152400000D03*
X154940000Y-152400000D03*
X157480000Y-152400000D03*
X160020000Y-152400000D03*
X157480000Y-149860000D03*
X152400000Y-149860000D03*
X149860000Y-149860000D03*
X147320000Y-149860000D03*
X129540000Y-137160000D03*
X132080000Y-137160000D03*
X134620000Y-137160000D03*
X137160000Y-137160000D03*
X139700000Y-137160000D03*
X142240000Y-137160000D03*
X144780000Y-137160000D03*
X147320000Y-137160000D03*
X149860000Y-137160000D03*
X152400000Y-137160000D03*
X154940000Y-137160000D03*
X157480000Y-137160000D03*
D18*
X160020000Y-137160000D03*
D17*
X144780000Y-144780000D03*
X142240000Y-144780000D03*
X139700000Y-144780000D03*
X137160000Y-144780000D03*
X134620000Y-144780000D03*
X132080000Y-144780000D03*
X129540000Y-144780000D03*
X129540000Y-147320000D03*
X132080000Y-147320000D03*
X134620000Y-147320000D03*
X137160000Y-147320000D03*
X139700000Y-147320000D03*
X142240000Y-147320000D03*
X144780000Y-147320000D03*
D22*
X149860000Y-144780000D03*
X153670000Y-144780000D03*
D17*
X130175000Y-185420000D03*
X130175000Y-187960000D03*
X130175000Y-190500000D03*
X130175000Y-193040000D03*
X130175000Y-182880000D03*
X130175000Y-180340000D03*
X130175000Y-177800000D03*
X132715000Y-193040000D03*
X135255000Y-193040000D03*
X137795000Y-193040000D03*
X140335000Y-193040000D03*
X142875000Y-193040000D03*
X145415000Y-193040000D03*
X147955000Y-193040000D03*
X150495000Y-193040000D03*
X153035000Y-193040000D03*
X155575000Y-193040000D03*
X158115000Y-193040000D03*
X160655000Y-193040000D03*
X163195000Y-193040000D03*
X160655000Y-190500000D03*
X155575000Y-190500000D03*
X153035000Y-190500000D03*
X150495000Y-190500000D03*
X132715000Y-177800000D03*
X135255000Y-177800000D03*
X137795000Y-177800000D03*
X140335000Y-177800000D03*
X142875000Y-177800000D03*
X145415000Y-177800000D03*
X147955000Y-177800000D03*
X150495000Y-177800000D03*
X153035000Y-177800000D03*
X155575000Y-177800000D03*
X158115000Y-177800000D03*
X160655000Y-177800000D03*
D18*
X163195000Y-177800000D03*
D17*
X147955000Y-185420000D03*
X145415000Y-185420000D03*
X142875000Y-185420000D03*
X140335000Y-185420000D03*
X137795000Y-185420000D03*
X135255000Y-185420000D03*
X132715000Y-185420000D03*
X132715000Y-187960000D03*
X135255000Y-187960000D03*
X137795000Y-187960000D03*
X140335000Y-187960000D03*
X142875000Y-187960000D03*
X145415000Y-187960000D03*
X147955000Y-187960000D03*
D22*
X153035000Y-185420000D03*
X156845000Y-185420000D03*
D13*
X172720000Y-97790000D03*
X172720000Y-90170000D03*
X175260000Y-97790000D03*
X175260000Y-90170000D03*
X177800000Y-97790000D03*
X177800000Y-90170000D03*
X180340000Y-97790000D03*
X180340000Y-90170000D03*
X182880000Y-97790000D03*
X182880000Y-90170000D03*
X185420000Y-97790000D03*
X185420000Y-90170000D03*
X187960000Y-97790000D03*
D14*
X187960000Y-90170000D03*
D13*
X172720000Y-138430000D03*
X172720000Y-130810000D03*
X175260000Y-138430000D03*
X175260000Y-130810000D03*
X177800000Y-138430000D03*
X177800000Y-130810000D03*
X180340000Y-138430000D03*
X180340000Y-130810000D03*
X182880000Y-138430000D03*
X182880000Y-130810000D03*
X185420000Y-138430000D03*
X185420000Y-130810000D03*
X187960000Y-138430000D03*
D14*
X187960000Y-130810000D03*
D13*
X172720000Y-158750000D03*
X172720000Y-151130000D03*
X175260000Y-158750000D03*
X175260000Y-151130000D03*
X177800000Y-158750000D03*
X177800000Y-151130000D03*
X180340000Y-158750000D03*
X180340000Y-151130000D03*
X182880000Y-158750000D03*
X182880000Y-151130000D03*
X185420000Y-158750000D03*
X185420000Y-151130000D03*
X187960000Y-158750000D03*
D14*
X187960000Y-151130000D03*
D13*
X175260000Y-179070000D03*
X175260000Y-171450000D03*
X177800000Y-179070000D03*
X177800000Y-171450000D03*
X180340000Y-179070000D03*
X180340000Y-171450000D03*
X182880000Y-179070000D03*
X182880000Y-171450000D03*
X185420000Y-179070000D03*
X185420000Y-171450000D03*
X187960000Y-179070000D03*
X187960000Y-171450000D03*
X190500000Y-179070000D03*
D14*
X190500000Y-171450000D03*
D13*
X175260000Y-199390000D03*
X175260000Y-191770000D03*
X177800000Y-199390000D03*
X177800000Y-191770000D03*
X180340000Y-199390000D03*
X180340000Y-191770000D03*
X182880000Y-199390000D03*
X182880000Y-191770000D03*
X185420000Y-199390000D03*
X185420000Y-191770000D03*
X187960000Y-199390000D03*
X187960000Y-191770000D03*
X190500000Y-199390000D03*
D14*
X190500000Y-191770000D03*
D23*
X93591599Y-169298401D02*
X92710000Y-170180000D01*
X99060000Y-169298401D02*
X93591599Y-169298401D01*
X99060000Y-169298401D02*
X99060000Y-163830000D01*
X99060000Y-163830000D02*
X94615000Y-159385000D01*
X94615000Y-121285000D02*
X97790000Y-118110000D01*
X94615000Y-159385000D02*
X94615000Y-121285000D01*
X229870000Y-99060000D02*
X231140000Y-97790000D01*
X219710000Y-99060000D02*
X229870000Y-99060000D01*
X228850000Y-91440000D02*
X231140000Y-93730000D01*
X219710000Y-91440000D02*
X228850000Y-91440000D01*
X230380000Y-114300000D02*
X231140000Y-113540000D01*
X219710000Y-114300000D02*
X230380000Y-114300000D01*
X228340000Y-106680000D02*
X231140000Y-109480000D01*
X219710000Y-106680000D02*
X228340000Y-106680000D01*
X229870000Y-139700000D02*
X231140000Y-138430000D01*
X219710000Y-139700000D02*
X229870000Y-139700000D01*
X228850000Y-132080000D02*
X231140000Y-134370000D01*
X219710000Y-132080000D02*
X228850000Y-132080000D01*
X230380000Y-154940000D02*
X231140000Y-154180000D01*
X219710000Y-154940000D02*
X230380000Y-154940000D01*
X228340000Y-147320000D02*
X231140000Y-150120000D01*
X219710000Y-147320000D02*
X228340000Y-147320000D01*
X228340000Y-187960000D02*
X231140000Y-190760000D01*
X220980000Y-187960000D02*
X228340000Y-187960000D01*
X230380000Y-195580000D02*
X231140000Y-194820000D01*
X220980000Y-195580000D02*
X230380000Y-195580000D01*
X228850000Y-172720000D02*
X231140000Y-175010000D01*
X220980000Y-172720000D02*
X228850000Y-172720000D01*
X229870000Y-180340000D02*
X231140000Y-179070000D01*
X220980000Y-180340000D02*
X229870000Y-180340000D01*
X104140000Y-166218401D02*
X104140000Y-163830000D01*
X101060000Y-169298401D02*
X104140000Y-166218401D01*
X97790000Y-100330000D02*
X107950000Y-90170000D01*
X107950000Y-90170000D02*
X159385000Y-90170000D01*
X159385000Y-90170000D02*
X163195000Y-93980000D01*
X163195000Y-93980000D02*
X163195000Y-99060000D01*
X157480000Y-99060000D02*
X154940000Y-96520000D01*
X163195000Y-99060000D02*
X157480000Y-99060000D01*
D24*
X97790000Y-102870000D02*
X99060000Y-102870000D01*
X99060000Y-102870000D02*
X108585000Y-93345000D01*
X156680001Y-95720001D02*
X157480000Y-96520000D01*
X154305000Y-93345000D02*
X156680001Y-95720001D01*
X119380000Y-93345000D02*
X123190000Y-97155000D01*
X119380000Y-93345000D02*
X154305000Y-93345000D01*
X108585000Y-93345000D02*
X119380000Y-93345000D01*
X123190000Y-156845000D02*
X139065000Y-172720000D01*
X155575000Y-172720000D02*
X160655000Y-177800000D01*
X139065000Y-172720000D02*
X155575000Y-172720000D01*
X123190000Y-97155000D02*
X123190000Y-129540000D01*
X157480000Y-137160000D02*
X154305000Y-133985000D01*
X127000000Y-133985000D02*
X123190000Y-130175000D01*
X154305000Y-133985000D02*
X127000000Y-133985000D01*
X123190000Y-129540000D02*
X123190000Y-130175000D01*
X123190000Y-130175000D02*
X123190000Y-156845000D01*
D23*
X147320000Y-137160000D02*
X152400000Y-142240000D01*
X152400000Y-142240000D02*
X157480000Y-142240000D01*
X153035000Y-177800000D02*
X156210000Y-180975000D01*
X156210000Y-180975000D02*
X165735000Y-180975000D01*
X165735000Y-180975000D02*
X165735000Y-150495000D01*
X165735000Y-150495000D02*
X157480000Y-142240000D01*
X150495000Y-99695000D02*
X158115000Y-99695000D01*
X147320000Y-96520000D02*
X150495000Y-99695000D01*
X158115000Y-99695000D02*
X163195000Y-104775000D01*
X153670000Y-140970000D02*
X160655000Y-140970000D01*
X149860000Y-137160000D02*
X153670000Y-140970000D01*
X160655000Y-140970000D02*
X163195000Y-138430000D01*
X163195000Y-138430000D02*
X163195000Y-135890000D01*
X163195000Y-104775000D02*
X163195000Y-135890000D01*
X163195000Y-135890000D02*
X163195000Y-136170002D01*
X111760000Y-169130000D02*
X111760000Y-170180000D01*
X111980000Y-168910000D02*
X111760000Y-169130000D01*
X118110000Y-168910000D02*
X111980000Y-168910000D01*
X111760000Y-147320000D02*
X107950000Y-143510000D01*
X111760000Y-170180000D02*
X111760000Y-147320000D01*
X92710000Y-186910000D02*
X92710000Y-187960000D01*
X92930000Y-186690000D02*
X92710000Y-186910000D01*
X99060000Y-186690000D02*
X92930000Y-186690000D01*
X111760000Y-186910000D02*
X111760000Y-187960000D01*
X111980000Y-186690000D02*
X111760000Y-186910000D01*
X118110000Y-186690000D02*
X111980000Y-186690000D01*
X106900000Y-206375000D02*
X106680000Y-206595000D01*
X106680000Y-206595000D02*
X106680000Y-207645000D01*
X113030000Y-206375000D02*
X106900000Y-206375000D01*
X129043630Y-187960000D02*
X130175000Y-187960000D01*
X113030000Y-203973630D02*
X129043630Y-187960000D01*
X113030000Y-206375000D02*
X113030000Y-203973630D01*
X120110000Y-166910000D02*
X123190000Y-163830000D01*
X120110000Y-168910000D02*
X120110000Y-166910000D01*
X104140000Y-183610000D02*
X104140000Y-181610000D01*
X101060000Y-186690000D02*
X104140000Y-183610000D01*
X123190000Y-183610000D02*
X123190000Y-181610000D01*
X120110000Y-186690000D02*
X123190000Y-183610000D01*
X115030000Y-204375000D02*
X118110000Y-201295000D01*
X115030000Y-206375000D02*
X115030000Y-204375000D01*
X228090000Y-102870000D02*
X231140000Y-99820000D01*
X219710000Y-102870000D02*
X228090000Y-102870000D01*
X230630000Y-95250000D02*
X231140000Y-95760000D01*
X219710000Y-95250000D02*
X230630000Y-95250000D01*
X230120000Y-110490000D02*
X231140000Y-111510000D01*
X219710000Y-110490000D02*
X230120000Y-110490000D01*
X228600000Y-118110000D02*
X231140000Y-115570000D01*
X219710000Y-118110000D02*
X228600000Y-118110000D01*
X228090000Y-143510000D02*
X231140000Y-140460000D01*
X219710000Y-143510000D02*
X228090000Y-143510000D01*
X230630000Y-135890000D02*
X231140000Y-136400000D01*
X219710000Y-135890000D02*
X230630000Y-135890000D01*
X230120000Y-151130000D02*
X231140000Y-152150000D01*
X219710000Y-151130000D02*
X230120000Y-151130000D01*
X228600000Y-158750000D02*
X231140000Y-156210000D01*
X219710000Y-158750000D02*
X228600000Y-158750000D01*
X228090000Y-184150000D02*
X231140000Y-181100000D01*
X220980000Y-184150000D02*
X228090000Y-184150000D01*
X230630000Y-176530000D02*
X231140000Y-177040000D01*
X220980000Y-176530000D02*
X230630000Y-176530000D01*
X230540001Y-192190001D02*
X231140000Y-192790000D01*
X230120000Y-191770000D02*
X230540001Y-192190001D01*
X220980000Y-191770000D02*
X230120000Y-191770000D01*
X228600000Y-199390000D02*
X231140000Y-196850000D01*
X220980000Y-199390000D02*
X228600000Y-199390000D01*
X175260000Y-91420000D02*
X177185000Y-93345000D01*
X175260000Y-90170000D02*
X175260000Y-91420000D01*
X202565000Y-93345000D02*
X204470000Y-95250000D01*
X177185000Y-93345000D02*
X202565000Y-93345000D01*
X203670001Y-92239999D02*
X204470000Y-91440000D01*
X184669999Y-92239999D02*
X203670001Y-92239999D01*
X182880000Y-90450000D02*
X184669999Y-92239999D01*
X182880000Y-90170000D02*
X182880000Y-90450000D01*
X180340000Y-96540000D02*
X180995000Y-95885000D01*
X180340000Y-97790000D02*
X180340000Y-96540000D01*
X197485000Y-95885000D02*
X204470000Y-102870000D01*
X180995000Y-95885000D02*
X197485000Y-95885000D01*
X172720000Y-96540000D02*
X174645000Y-94615000D01*
X172720000Y-97790000D02*
X172720000Y-96540000D01*
X200025000Y-94615000D02*
X204470000Y-99060000D01*
X174645000Y-94615000D02*
X200025000Y-94615000D01*
X175260000Y-111740000D02*
X177185000Y-113665000D01*
X175260000Y-110490000D02*
X175260000Y-111740000D01*
X201295000Y-113665000D02*
X204470000Y-110490000D01*
X177185000Y-113665000D02*
X201295000Y-113665000D01*
X182880000Y-110770000D02*
X184505000Y-112395000D01*
X182880000Y-110490000D02*
X182880000Y-110770000D01*
X198755000Y-112395000D02*
X204470000Y-106680000D01*
X184505000Y-112395000D02*
X198755000Y-112395000D01*
X180340000Y-116860000D02*
X180995000Y-116205000D01*
X180340000Y-118110000D02*
X180340000Y-116860000D01*
X202565000Y-116205000D02*
X204470000Y-118110000D01*
X180995000Y-116205000D02*
X202565000Y-116205000D01*
X174645000Y-114935000D02*
X172720000Y-116860000D01*
X202703630Y-114935000D02*
X174645000Y-114935000D01*
X172720000Y-116860000D02*
X172720000Y-118110000D01*
X203338630Y-114300000D02*
X202703630Y-114935000D01*
X204470000Y-114300000D02*
X203338630Y-114300000D01*
X184669999Y-132879999D02*
X203670001Y-132879999D01*
X203670001Y-132879999D02*
X204470000Y-132080000D01*
X182880000Y-131090000D02*
X184669999Y-132879999D01*
X182880000Y-130810000D02*
X182880000Y-131090000D01*
X175260000Y-131090000D02*
X178155000Y-133985000D01*
X175260000Y-130810000D02*
X175260000Y-131090000D01*
X202565000Y-133985000D02*
X204470000Y-135890000D01*
X178155000Y-133985000D02*
X202565000Y-133985000D01*
X172720000Y-137180000D02*
X174645000Y-135255000D01*
X172720000Y-138430000D02*
X172720000Y-137180000D01*
X200025000Y-135255000D02*
X204470000Y-139700000D01*
X174645000Y-135255000D02*
X200025000Y-135255000D01*
X180340000Y-138150000D02*
X181965000Y-136525000D01*
X180340000Y-138430000D02*
X180340000Y-138150000D01*
X197485000Y-136525000D02*
X204470000Y-143510000D01*
X181965000Y-136525000D02*
X197485000Y-136525000D01*
X182880000Y-151410000D02*
X184505000Y-153035000D01*
X182880000Y-151130000D02*
X182880000Y-151410000D01*
X198755000Y-153035000D02*
X204470000Y-147320000D01*
X184505000Y-153035000D02*
X198755000Y-153035000D01*
X175260000Y-152380000D02*
X177185000Y-154305000D01*
X175260000Y-151130000D02*
X175260000Y-152380000D01*
X201295000Y-154305000D02*
X204470000Y-151130000D01*
X177185000Y-154305000D02*
X201295000Y-154305000D01*
X203338630Y-154940000D02*
X202703630Y-155575000D01*
X204470000Y-154940000D02*
X203338630Y-154940000D01*
X172720000Y-158470000D02*
X172720000Y-158750000D01*
X175615000Y-155575000D02*
X172720000Y-158470000D01*
X202703630Y-155575000D02*
X175615000Y-155575000D01*
X180340000Y-157500000D02*
X180995000Y-156845000D01*
X180340000Y-158750000D02*
X180340000Y-157500000D01*
X202565000Y-156845000D02*
X204470000Y-158750000D01*
X180995000Y-156845000D02*
X202565000Y-156845000D01*
X185420000Y-171730000D02*
X187045000Y-173355000D01*
X185420000Y-171450000D02*
X185420000Y-171730000D01*
X204608630Y-172720000D02*
X205740000Y-172720000D01*
X203973630Y-173355000D02*
X204608630Y-172720000D01*
X187045000Y-173355000D02*
X203973630Y-173355000D01*
X177800000Y-172700000D02*
X179725000Y-174625000D01*
X177800000Y-171450000D02*
X177800000Y-172700000D01*
X203835000Y-174625000D02*
X205740000Y-176530000D01*
X179725000Y-174625000D02*
X203835000Y-174625000D01*
X175260000Y-178790000D02*
X178155000Y-175895000D01*
X175260000Y-179070000D02*
X175260000Y-178790000D01*
X201295000Y-175895000D02*
X205740000Y-180340000D01*
X178155000Y-175895000D02*
X201295000Y-175895000D01*
X182880000Y-178790000D02*
X184505000Y-177165000D01*
X182880000Y-179070000D02*
X182880000Y-178790000D01*
X198755000Y-177165000D02*
X205740000Y-184150000D01*
X184505000Y-177165000D02*
X198755000Y-177165000D01*
X185420000Y-193020000D02*
X186075000Y-193675000D01*
X185420000Y-191770000D02*
X185420000Y-193020000D01*
X200025000Y-193675000D02*
X205740000Y-187960000D01*
X186075000Y-193675000D02*
X200025000Y-193675000D01*
X177800000Y-192050000D02*
X180695000Y-194945000D01*
X177800000Y-191770000D02*
X177800000Y-192050000D01*
X202565000Y-194945000D02*
X205740000Y-191770000D01*
X180695000Y-194945000D02*
X202565000Y-194945000D01*
X204608630Y-195580000D02*
X203973630Y-196215000D01*
X205740000Y-195580000D02*
X204608630Y-195580000D01*
X175260000Y-199110000D02*
X175260000Y-199390000D01*
X178155000Y-196215000D02*
X175260000Y-199110000D01*
X203973630Y-196215000D02*
X178155000Y-196215000D01*
X182880000Y-198140000D02*
X183535000Y-197485000D01*
X182880000Y-199390000D02*
X182880000Y-198140000D01*
X203835000Y-197485000D02*
X205740000Y-199390000D01*
X183535000Y-197485000D02*
X203835000Y-197485000D01*
M02*
