G04 #@! TF.GenerationSoftware,KiCad,Pcbnew,5.1.3-ffb9f22~84~ubuntu18.04.1*
G04 #@! TF.CreationDate,2019-08-01T16:23:33-04:00*
G04 #@! TF.ProjectId,firstPCB,66697273-7450-4434-922e-6b696361645f,rev?*
G04 #@! TF.SameCoordinates,Original*
G04 #@! TF.FileFunction,Copper,L4,Bot*
G04 #@! TF.FilePolarity,Positive*
%FSLAX46Y46*%
G04 Gerber Fmt 4.6, Leading zero omitted, Abs format (unit mm)*
G04 Created by KiCad (PCBNEW 5.1.3-ffb9f22~84~ubuntu18.04.1) date 2019-08-01 16:23:33*
%MOMM*%
%LPD*%
G04 APERTURE LIST*
%ADD10C,1.300000*%
%ADD11C,3.500000*%
%ADD12C,1.200000*%
%ADD13O,1.440000X2.000000*%
%ADD14R,1.440000X2.000000*%
%ADD15C,2.400000*%
%ADD16R,2.400000X2.400000*%
%ADD17C,1.600000*%
%ADD18R,1.600000X1.600000*%
%ADD19C,3.000000*%
%ADD20R,3.000000X3.000000*%
%ADD21O,1.600000X1.600000*%
%ADD22C,1.900000*%
%ADD23C,0.250000*%
G04 APERTURE END LIST*
D10*
X101060000Y-169298401D03*
X99060000Y-169298401D03*
D11*
X235460000Y-171100000D03*
X235460000Y-199640000D03*
D12*
X231140000Y-181100000D03*
X231140000Y-175010000D03*
X232920000Y-176020000D03*
X232920000Y-178050000D03*
X232920000Y-173990000D03*
X232920000Y-180080000D03*
X231140000Y-179070000D03*
X231140000Y-177040000D03*
X232920000Y-195830000D03*
X232920000Y-189740000D03*
X232920000Y-193800000D03*
X232920000Y-191770000D03*
X231140000Y-190760000D03*
X231140000Y-192790000D03*
X231140000Y-194820000D03*
X231140000Y-196850000D03*
D11*
X235460000Y-130460000D03*
X235460000Y-159000000D03*
D12*
X231140000Y-140460000D03*
X231140000Y-134370000D03*
X232920000Y-135380000D03*
X232920000Y-137410000D03*
X232920000Y-133350000D03*
X232920000Y-139440000D03*
X231140000Y-138430000D03*
X231140000Y-136400000D03*
X232920000Y-155190000D03*
X232920000Y-149100000D03*
X232920000Y-153160000D03*
X232920000Y-151130000D03*
X231140000Y-150120000D03*
X231140000Y-152150000D03*
X231140000Y-154180000D03*
X231140000Y-156210000D03*
D11*
X235460000Y-89820000D03*
X235460000Y-118360000D03*
D12*
X231140000Y-99820000D03*
X231140000Y-93730000D03*
X232920000Y-94740000D03*
X232920000Y-96770000D03*
X232920000Y-92710000D03*
X232920000Y-98800000D03*
X231140000Y-97790000D03*
X231140000Y-95760000D03*
X232920000Y-114550000D03*
X232920000Y-108460000D03*
X232920000Y-112520000D03*
X232920000Y-110490000D03*
X231140000Y-109480000D03*
X231140000Y-111510000D03*
X231140000Y-113540000D03*
X231140000Y-115570000D03*
D13*
X172720000Y-118110000D03*
X172720000Y-110490000D03*
X175260000Y-118110000D03*
X175260000Y-110490000D03*
X177800000Y-118110000D03*
X177800000Y-110490000D03*
X180340000Y-118110000D03*
X180340000Y-110490000D03*
X182880000Y-118110000D03*
X182880000Y-110490000D03*
X185420000Y-118110000D03*
X185420000Y-110490000D03*
X187960000Y-118110000D03*
D14*
X187960000Y-110490000D03*
D15*
X115690000Y-81280000D03*
D16*
X123190000Y-81280000D03*
D17*
X90210000Y-170180000D03*
D18*
X92710000Y-170180000D03*
D17*
X152090000Y-167640000D03*
D18*
X148590000Y-167640000D03*
D17*
X149550000Y-127000000D03*
D18*
X146050000Y-127000000D03*
D17*
X195580000Y-101910000D03*
D18*
X195580000Y-105410000D03*
D17*
X195580000Y-162870000D03*
D18*
X195580000Y-166370000D03*
D17*
X195580000Y-122230000D03*
D18*
X195580000Y-125730000D03*
D17*
X197485000Y-183825000D03*
D18*
X197485000Y-187325000D03*
D17*
X195580000Y-141915000D03*
D18*
X195580000Y-145415000D03*
D17*
X109260000Y-170180000D03*
D18*
X111760000Y-170180000D03*
D17*
X90210000Y-187960000D03*
D18*
X92710000Y-187960000D03*
D17*
X109260000Y-187960000D03*
D18*
X111760000Y-187960000D03*
D17*
X104180000Y-207645000D03*
D18*
X106680000Y-207645000D03*
D19*
X91440000Y-80010000D03*
D20*
X106680000Y-80010000D03*
D19*
X96520000Y-80010000D03*
X101600000Y-80010000D03*
D10*
X120110000Y-168910000D03*
X118110000Y-168910000D03*
X101060000Y-186690000D03*
X99060000Y-186690000D03*
X120110000Y-186690000D03*
X118110000Y-186690000D03*
X115030000Y-206375000D03*
X113030000Y-206375000D03*
D21*
X204470000Y-91440000D03*
D17*
X219710000Y-91440000D03*
D21*
X204470000Y-95250000D03*
D17*
X219710000Y-95250000D03*
D21*
X204470000Y-99060000D03*
D17*
X219710000Y-99060000D03*
D21*
X204470000Y-102870000D03*
D17*
X219710000Y-102870000D03*
D21*
X204470000Y-106680000D03*
D17*
X219710000Y-106680000D03*
D21*
X204470000Y-110490000D03*
D17*
X219710000Y-110490000D03*
D21*
X204470000Y-114300000D03*
D17*
X219710000Y-114300000D03*
D21*
X204470000Y-118110000D03*
D17*
X219710000Y-118110000D03*
D21*
X204470000Y-132080000D03*
D17*
X219710000Y-132080000D03*
D21*
X204470000Y-135890000D03*
D17*
X219710000Y-135890000D03*
D21*
X204470000Y-139700000D03*
D17*
X219710000Y-139700000D03*
D21*
X204470000Y-143510000D03*
D17*
X219710000Y-143510000D03*
D21*
X204470000Y-147320000D03*
D17*
X219710000Y-147320000D03*
D21*
X204470000Y-151130000D03*
D17*
X219710000Y-151130000D03*
D21*
X204470000Y-154940000D03*
D17*
X219710000Y-154940000D03*
D21*
X204470000Y-158750000D03*
D17*
X219710000Y-158750000D03*
D21*
X205740000Y-172720000D03*
D17*
X220980000Y-172720000D03*
D21*
X205740000Y-176530000D03*
D17*
X220980000Y-176530000D03*
D21*
X205740000Y-180340000D03*
D17*
X220980000Y-180340000D03*
D21*
X205740000Y-184150000D03*
D17*
X220980000Y-184150000D03*
D21*
X205740000Y-187960000D03*
D17*
X220980000Y-187960000D03*
D21*
X205740000Y-191770000D03*
D17*
X220980000Y-191770000D03*
D21*
X205740000Y-195580000D03*
D17*
X220980000Y-195580000D03*
D21*
X205740000Y-199390000D03*
D17*
X220980000Y-199390000D03*
D21*
X144145000Y-199390000D03*
D17*
X159385000Y-199390000D03*
D21*
X140970000Y-158750000D03*
D17*
X156210000Y-158750000D03*
D21*
X140970000Y-118110000D03*
D17*
X156210000Y-118110000D03*
D21*
X104140000Y-163830000D03*
D17*
X88900000Y-163830000D03*
D21*
X123190000Y-163830000D03*
D17*
X107950000Y-163830000D03*
D21*
X104140000Y-181610000D03*
D17*
X88900000Y-181610000D03*
D21*
X123190000Y-181610000D03*
D17*
X107950000Y-181610000D03*
D21*
X118110000Y-201295000D03*
D17*
X102870000Y-201295000D03*
X97790000Y-138430000D03*
X97790000Y-140970000D03*
X97790000Y-143510000D03*
X97790000Y-146050000D03*
X97790000Y-135890000D03*
X97790000Y-133350000D03*
X97790000Y-130810000D03*
X97790000Y-148590000D03*
X97790000Y-151130000D03*
X97790000Y-153670000D03*
X97790000Y-156210000D03*
X100330000Y-143510000D03*
X102870000Y-143510000D03*
X105410000Y-143510000D03*
X107950000Y-143510000D03*
X110490000Y-143510000D03*
X113030000Y-156210000D03*
X113030000Y-153670000D03*
X113030000Y-151130000D03*
X113030000Y-148590000D03*
X113030000Y-146050000D03*
X113030000Y-143510000D03*
X113030000Y-140970000D03*
X113030000Y-138430000D03*
X97790000Y-128270000D03*
X97790000Y-125730000D03*
X97790000Y-123190000D03*
X97790000Y-120650000D03*
X97790000Y-118110000D03*
X97790000Y-115570000D03*
X97790000Y-113030000D03*
X97790000Y-110490000D03*
X97790000Y-107950000D03*
X97790000Y-105410000D03*
X97790000Y-102870000D03*
X97790000Y-100330000D03*
D18*
X97790000Y-97790000D03*
D17*
X113030000Y-135890000D03*
X113030000Y-133350000D03*
X113030000Y-130810000D03*
X113030000Y-128270000D03*
X113030000Y-125730000D03*
X113030000Y-123190000D03*
X113030000Y-120650000D03*
X113030000Y-118110000D03*
X113030000Y-115570000D03*
X113030000Y-113030000D03*
X113030000Y-110490000D03*
X113030000Y-107950000D03*
X113030000Y-105410000D03*
X113030000Y-102870000D03*
X113030000Y-100330000D03*
X113030000Y-97790000D03*
X110490000Y-100330000D03*
X110490000Y-105410000D03*
X110490000Y-107950000D03*
X110490000Y-110490000D03*
X105410000Y-113030000D03*
X105410000Y-115570000D03*
X105410000Y-118110000D03*
X105410000Y-120650000D03*
X105410000Y-135890000D03*
X105410000Y-138430000D03*
X105410000Y-140970000D03*
X105410000Y-146050000D03*
X105410000Y-148590000D03*
X105410000Y-151130000D03*
X105410000Y-153670000D03*
X105410000Y-156210000D03*
X107950000Y-156210000D03*
X107950000Y-153670000D03*
X107950000Y-151130000D03*
X107950000Y-148590000D03*
X107950000Y-146050000D03*
X107950000Y-140970000D03*
X107950000Y-138430000D03*
X107950000Y-135890000D03*
X107950000Y-120650000D03*
X107950000Y-118110000D03*
X107950000Y-115570000D03*
X107950000Y-113030000D03*
X100790000Y-104140000D03*
X100790000Y-106680000D03*
X100790000Y-109220000D03*
X100790000Y-111760000D03*
X100790000Y-114300000D03*
X127000000Y-104140000D03*
X127000000Y-106680000D03*
X127000000Y-109220000D03*
X127000000Y-111760000D03*
X127000000Y-101600000D03*
X127000000Y-99060000D03*
X127000000Y-96520000D03*
X129540000Y-111760000D03*
X132080000Y-111760000D03*
X134620000Y-111760000D03*
X137160000Y-111760000D03*
X139700000Y-111760000D03*
X142240000Y-111760000D03*
X144780000Y-111760000D03*
X147320000Y-111760000D03*
X149860000Y-111760000D03*
X152400000Y-111760000D03*
X154940000Y-111760000D03*
X157480000Y-111760000D03*
X160020000Y-111760000D03*
X157480000Y-109220000D03*
X152400000Y-109220000D03*
X149860000Y-109220000D03*
X147320000Y-109220000D03*
X129540000Y-96520000D03*
X132080000Y-96520000D03*
X134620000Y-96520000D03*
X137160000Y-96520000D03*
X139700000Y-96520000D03*
X142240000Y-96520000D03*
X144780000Y-96520000D03*
X147320000Y-96520000D03*
X149860000Y-96520000D03*
X152400000Y-96520000D03*
X154940000Y-96520000D03*
X157480000Y-96520000D03*
D18*
X160020000Y-96520000D03*
D17*
X144780000Y-104140000D03*
X142240000Y-104140000D03*
X139700000Y-104140000D03*
X137160000Y-104140000D03*
X134620000Y-104140000D03*
X132080000Y-104140000D03*
X129540000Y-104140000D03*
X129540000Y-106680000D03*
X132080000Y-106680000D03*
X134620000Y-106680000D03*
X137160000Y-106680000D03*
X139700000Y-106680000D03*
X142240000Y-106680000D03*
X144780000Y-106680000D03*
D22*
X149860000Y-104140000D03*
X153670000Y-104140000D03*
D17*
X127000000Y-144780000D03*
X127000000Y-147320000D03*
X127000000Y-149860000D03*
X127000000Y-152400000D03*
X127000000Y-142240000D03*
X127000000Y-139700000D03*
X127000000Y-137160000D03*
X129540000Y-152400000D03*
X132080000Y-152400000D03*
X134620000Y-152400000D03*
X137160000Y-152400000D03*
X139700000Y-152400000D03*
X142240000Y-152400000D03*
X144780000Y-152400000D03*
X147320000Y-152400000D03*
X149860000Y-152400000D03*
X152400000Y-152400000D03*
X154940000Y-152400000D03*
X157480000Y-152400000D03*
X160020000Y-152400000D03*
X157480000Y-149860000D03*
X152400000Y-149860000D03*
X149860000Y-149860000D03*
X147320000Y-149860000D03*
X129540000Y-137160000D03*
X132080000Y-137160000D03*
X134620000Y-137160000D03*
X137160000Y-137160000D03*
X139700000Y-137160000D03*
X142240000Y-137160000D03*
X144780000Y-137160000D03*
X147320000Y-137160000D03*
X149860000Y-137160000D03*
X152400000Y-137160000D03*
X154940000Y-137160000D03*
X157480000Y-137160000D03*
D18*
X160020000Y-137160000D03*
D17*
X144780000Y-144780000D03*
X142240000Y-144780000D03*
X139700000Y-144780000D03*
X137160000Y-144780000D03*
X134620000Y-144780000D03*
X132080000Y-144780000D03*
X129540000Y-144780000D03*
X129540000Y-147320000D03*
X132080000Y-147320000D03*
X134620000Y-147320000D03*
X137160000Y-147320000D03*
X139700000Y-147320000D03*
X142240000Y-147320000D03*
X144780000Y-147320000D03*
D22*
X149860000Y-144780000D03*
X153670000Y-144780000D03*
D17*
X130175000Y-185420000D03*
X130175000Y-187960000D03*
X130175000Y-190500000D03*
X130175000Y-193040000D03*
X130175000Y-182880000D03*
X130175000Y-180340000D03*
X130175000Y-177800000D03*
X132715000Y-193040000D03*
X135255000Y-193040000D03*
X137795000Y-193040000D03*
X140335000Y-193040000D03*
X142875000Y-193040000D03*
X145415000Y-193040000D03*
X147955000Y-193040000D03*
X150495000Y-193040000D03*
X153035000Y-193040000D03*
X155575000Y-193040000D03*
X158115000Y-193040000D03*
X160655000Y-193040000D03*
X163195000Y-193040000D03*
X160655000Y-190500000D03*
X155575000Y-190500000D03*
X153035000Y-190500000D03*
X150495000Y-190500000D03*
X132715000Y-177800000D03*
X135255000Y-177800000D03*
X137795000Y-177800000D03*
X140335000Y-177800000D03*
X142875000Y-177800000D03*
X145415000Y-177800000D03*
X147955000Y-177800000D03*
X150495000Y-177800000D03*
X153035000Y-177800000D03*
X155575000Y-177800000D03*
X158115000Y-177800000D03*
X160655000Y-177800000D03*
D18*
X163195000Y-177800000D03*
D17*
X147955000Y-185420000D03*
X145415000Y-185420000D03*
X142875000Y-185420000D03*
X140335000Y-185420000D03*
X137795000Y-185420000D03*
X135255000Y-185420000D03*
X132715000Y-185420000D03*
X132715000Y-187960000D03*
X135255000Y-187960000D03*
X137795000Y-187960000D03*
X140335000Y-187960000D03*
X142875000Y-187960000D03*
X145415000Y-187960000D03*
X147955000Y-187960000D03*
D22*
X153035000Y-185420000D03*
X156845000Y-185420000D03*
D13*
X172720000Y-97790000D03*
X172720000Y-90170000D03*
X175260000Y-97790000D03*
X175260000Y-90170000D03*
X177800000Y-97790000D03*
X177800000Y-90170000D03*
X180340000Y-97790000D03*
X180340000Y-90170000D03*
X182880000Y-97790000D03*
X182880000Y-90170000D03*
X185420000Y-97790000D03*
X185420000Y-90170000D03*
X187960000Y-97790000D03*
D14*
X187960000Y-90170000D03*
D13*
X172720000Y-138430000D03*
X172720000Y-130810000D03*
X175260000Y-138430000D03*
X175260000Y-130810000D03*
X177800000Y-138430000D03*
X177800000Y-130810000D03*
X180340000Y-138430000D03*
X180340000Y-130810000D03*
X182880000Y-138430000D03*
X182880000Y-130810000D03*
X185420000Y-138430000D03*
X185420000Y-130810000D03*
X187960000Y-138430000D03*
D14*
X187960000Y-130810000D03*
D13*
X172720000Y-158750000D03*
X172720000Y-151130000D03*
X175260000Y-158750000D03*
X175260000Y-151130000D03*
X177800000Y-158750000D03*
X177800000Y-151130000D03*
X180340000Y-158750000D03*
X180340000Y-151130000D03*
X182880000Y-158750000D03*
X182880000Y-151130000D03*
X185420000Y-158750000D03*
X185420000Y-151130000D03*
X187960000Y-158750000D03*
D14*
X187960000Y-151130000D03*
D13*
X175260000Y-179070000D03*
X175260000Y-171450000D03*
X177800000Y-179070000D03*
X177800000Y-171450000D03*
X180340000Y-179070000D03*
X180340000Y-171450000D03*
X182880000Y-179070000D03*
X182880000Y-171450000D03*
X185420000Y-179070000D03*
X185420000Y-171450000D03*
X187960000Y-179070000D03*
X187960000Y-171450000D03*
X190500000Y-179070000D03*
D14*
X190500000Y-171450000D03*
D13*
X175260000Y-199390000D03*
X175260000Y-191770000D03*
X177800000Y-199390000D03*
X177800000Y-191770000D03*
X180340000Y-199390000D03*
X180340000Y-191770000D03*
X182880000Y-199390000D03*
X182880000Y-191770000D03*
X185420000Y-199390000D03*
X185420000Y-191770000D03*
X187960000Y-199390000D03*
X187960000Y-191770000D03*
X190500000Y-199390000D03*
D14*
X190500000Y-191770000D03*
D23*
X187960000Y-195580000D02*
X183870000Y-195580000D01*
X182880000Y-193020000D02*
X185420000Y-195560000D01*
X187960000Y-195580000D02*
X187960000Y-199390000D01*
X190500000Y-191770000D02*
X190500000Y-193040000D01*
X182880000Y-191770000D02*
X182880000Y-193020000D01*
X183870000Y-195580000D02*
X180340000Y-199110000D01*
X190500000Y-193040000D02*
X187960000Y-195580000D01*
X180340000Y-199110000D02*
X180340000Y-199390000D01*
X187960000Y-175260000D02*
X183870000Y-175260000D01*
X182880000Y-172700000D02*
X185420000Y-175240000D01*
X187960000Y-175260000D02*
X187960000Y-179070000D01*
X190500000Y-171450000D02*
X190500000Y-172720000D01*
X182880000Y-171450000D02*
X182880000Y-172700000D01*
X183870000Y-175260000D02*
X180340000Y-178790000D01*
X190500000Y-172720000D02*
X187960000Y-175260000D01*
X180340000Y-178790000D02*
X180340000Y-179070000D01*
X185420000Y-154940000D02*
X181330000Y-154940000D01*
X180340000Y-152380000D02*
X182880000Y-154920000D01*
X185420000Y-154940000D02*
X185420000Y-158750000D01*
X187960000Y-151130000D02*
X187960000Y-152400000D01*
X180340000Y-151130000D02*
X180340000Y-152380000D01*
X181330000Y-154940000D02*
X177800000Y-158470000D01*
X187960000Y-152400000D02*
X185420000Y-154940000D01*
X177800000Y-158470000D02*
X177800000Y-158750000D01*
X185420000Y-134620000D02*
X181330000Y-134620000D01*
X180340000Y-132060000D02*
X182880000Y-134600000D01*
X185420000Y-134620000D02*
X185420000Y-138430000D01*
X187960000Y-130810000D02*
X187960000Y-132080000D01*
X180340000Y-130810000D02*
X180340000Y-132060000D01*
X181330000Y-134620000D02*
X177800000Y-138150000D01*
X187960000Y-132080000D02*
X185420000Y-134620000D01*
X177800000Y-138150000D02*
X177800000Y-138430000D01*
X185420000Y-114300000D02*
X181330000Y-114300000D01*
X180340000Y-111740000D02*
X182880000Y-114280000D01*
X185420000Y-114300000D02*
X185420000Y-118110000D01*
X187960000Y-110490000D02*
X187960000Y-111760000D01*
X180340000Y-110490000D02*
X180340000Y-111740000D01*
X181330000Y-114300000D02*
X177800000Y-117830000D01*
X187960000Y-111760000D02*
X185420000Y-114300000D01*
X177800000Y-117830000D02*
X177800000Y-118110000D01*
X187960000Y-179070000D02*
X187960000Y-184150000D01*
X190500000Y-186690000D02*
X190500000Y-191770000D01*
X187960000Y-184150000D02*
X190500000Y-186690000D01*
X137795000Y-193040000D02*
X144145000Y-199390000D01*
X144145000Y-200521370D02*
X145553630Y-201930000D01*
X144145000Y-199390000D02*
X144145000Y-200521370D01*
X178080000Y-201930000D02*
X180340000Y-199670000D01*
X180340000Y-199670000D02*
X180340000Y-199390000D01*
X145553630Y-201930000D02*
X178080000Y-201930000D01*
X185420000Y-138430000D02*
X185420000Y-142240000D01*
X187960000Y-144780000D02*
X187960000Y-151130000D01*
X185420000Y-142240000D02*
X187960000Y-144780000D01*
X134620000Y-152400000D02*
X140970000Y-158750000D01*
X140970000Y-159881370D02*
X142378630Y-161290000D01*
X140970000Y-158750000D02*
X140970000Y-159881370D01*
X177800000Y-159030000D02*
X177800000Y-158750000D01*
X175540000Y-161290000D02*
X177800000Y-159030000D01*
X142378630Y-161290000D02*
X175540000Y-161290000D01*
X187960000Y-90170000D02*
X187960000Y-91440000D01*
X185420000Y-93980000D02*
X185420000Y-97790000D01*
X187960000Y-91440000D02*
X185420000Y-93980000D01*
X177800000Y-97510000D02*
X177800000Y-97790000D01*
X181330000Y-93980000D02*
X177800000Y-97510000D01*
X185420000Y-93980000D02*
X181330000Y-93980000D01*
X180340000Y-91420000D02*
X182880000Y-93960000D01*
X180340000Y-90170000D02*
X180340000Y-91420000D01*
X185420000Y-97790000D02*
X185420000Y-102235000D01*
X187960000Y-104775000D02*
X187960000Y-110490000D01*
X185420000Y-102235000D02*
X187960000Y-104775000D01*
X134620000Y-111760000D02*
X140970000Y-118110000D01*
X177800000Y-118390000D02*
X177800000Y-118110000D01*
X174905000Y-121285000D02*
X177800000Y-118390000D01*
X144145000Y-121285000D02*
X174905000Y-121285000D01*
X140970000Y-118110000D02*
X144145000Y-121285000D01*
X184637867Y-90170000D02*
X180827867Y-86360000D01*
X185420000Y-90170000D02*
X184637867Y-90170000D01*
X154940000Y-86360000D02*
X144780000Y-96520000D01*
X180827867Y-86360000D02*
X154940000Y-86360000D01*
X182880000Y-119360000D02*
X179050000Y-123190000D01*
X182880000Y-118110000D02*
X182880000Y-119360000D01*
X140970000Y-123190000D02*
X129540000Y-111760000D01*
X179050000Y-123190000D02*
X140970000Y-123190000D01*
X185420000Y-110210000D02*
X185420000Y-110490000D01*
X142875000Y-102235000D02*
X177445000Y-102235000D01*
X177445000Y-102235000D02*
X185420000Y-110210000D01*
X137160000Y-96520000D02*
X142875000Y-102235000D01*
X142240000Y-96520000D02*
X144780000Y-99060000D01*
X175260000Y-96540000D02*
X174605000Y-95885000D01*
X175260000Y-97790000D02*
X175260000Y-96540000D01*
X174605000Y-95885000D02*
X164465000Y-95885000D01*
X164465000Y-95885000D02*
X161290000Y-99060000D01*
X144780000Y-99060000D02*
X161290000Y-99060000D01*
X182880000Y-99040000D02*
X181590000Y-100330000D01*
X182880000Y-97790000D02*
X182880000Y-99040000D01*
X143510000Y-100330000D02*
X139700000Y-96520000D01*
X181590000Y-100330000D02*
X143510000Y-100330000D01*
X175260000Y-117830000D02*
X173000000Y-115570000D01*
X175260000Y-118110000D02*
X175260000Y-117830000D01*
X148590000Y-115570000D02*
X144780000Y-111760000D01*
X173000000Y-115570000D02*
X148590000Y-115570000D01*
X177800000Y-111740000D02*
X175240000Y-114300000D01*
X177800000Y-110490000D02*
X177800000Y-111740000D01*
X149860000Y-114300000D02*
X147320000Y-111760000D01*
X175240000Y-114300000D02*
X149860000Y-114300000D01*
X177800000Y-89890000D02*
X176175000Y-88265000D01*
X177800000Y-90170000D02*
X177800000Y-89890000D01*
X160655000Y-88265000D02*
X152400000Y-96520000D01*
X176175000Y-88265000D02*
X160655000Y-88265000D01*
X177800000Y-130530000D02*
X176175000Y-128905000D01*
X177800000Y-130810000D02*
X177800000Y-130530000D01*
X160655000Y-128905000D02*
X152400000Y-137160000D01*
X176175000Y-128905000D02*
X160655000Y-128905000D01*
X177800000Y-151410000D02*
X174270000Y-154940000D01*
X177800000Y-151130000D02*
X177800000Y-151410000D01*
X149860000Y-154940000D02*
X147320000Y-152400000D01*
X174270000Y-154940000D02*
X149860000Y-154940000D01*
X175260000Y-158470000D02*
X173000000Y-156210000D01*
X175260000Y-158750000D02*
X175260000Y-158470000D01*
X148590000Y-156210000D02*
X144780000Y-152400000D01*
X173000000Y-156210000D02*
X148590000Y-156210000D01*
X182880000Y-138710000D02*
X180620000Y-140970000D01*
X182880000Y-138430000D02*
X182880000Y-138710000D01*
X143510000Y-140970000D02*
X139700000Y-137160000D01*
X180620000Y-140970000D02*
X143510000Y-140970000D01*
X174214990Y-137104990D02*
X164520010Y-137104990D01*
X175260000Y-138430000D02*
X175260000Y-138150000D01*
X175260000Y-138150000D02*
X174214990Y-137104990D01*
X164520010Y-137104990D02*
X161925000Y-139700000D01*
X144780000Y-139700000D02*
X142240000Y-137160000D01*
X161925000Y-139700000D02*
X144780000Y-139700000D01*
X185420000Y-149880000D02*
X177780000Y-142240000D01*
X185420000Y-151130000D02*
X185420000Y-149880000D01*
X142240000Y-142240000D02*
X137160000Y-137160000D01*
X177780000Y-142240000D02*
X142240000Y-142240000D01*
X182880000Y-160000000D02*
X180320000Y-162560000D01*
X182880000Y-158750000D02*
X182880000Y-160000000D01*
X139700000Y-162560000D02*
X129540000Y-152400000D01*
X180320000Y-162560000D02*
X139700000Y-162560000D01*
X185420000Y-129560000D02*
X182860000Y-127000000D01*
X185420000Y-130810000D02*
X185420000Y-129560000D01*
X154940000Y-127000000D02*
X144780000Y-137160000D01*
X182860000Y-127000000D02*
X154940000Y-127000000D01*
X187960000Y-170200000D02*
X184765000Y-167005000D01*
X187960000Y-171450000D02*
X187960000Y-170200000D01*
X158750000Y-167005000D02*
X147955000Y-177800000D01*
X184765000Y-167005000D02*
X158750000Y-167005000D01*
X185420000Y-199670000D02*
X181255000Y-203835000D01*
X185420000Y-199390000D02*
X185420000Y-199670000D01*
X143510000Y-203835000D02*
X132715000Y-193040000D01*
X181255000Y-203835000D02*
X143510000Y-203835000D01*
X187960000Y-191490000D02*
X179350000Y-182880000D01*
X187960000Y-191770000D02*
X187960000Y-191490000D01*
X145415000Y-182880000D02*
X140335000Y-177800000D01*
X179350000Y-182880000D02*
X145415000Y-182880000D01*
X148010010Y-180395010D02*
X146214999Y-178599999D01*
X176754990Y-180395010D02*
X148010010Y-180395010D01*
X177800000Y-179350000D02*
X176754990Y-180395010D01*
X146214999Y-178599999D02*
X145415000Y-177800000D01*
X177800000Y-179070000D02*
X177800000Y-179350000D01*
X185420000Y-180320000D02*
X184130000Y-181610000D01*
X185420000Y-179070000D02*
X185420000Y-180320000D01*
X146685000Y-181610000D02*
X142875000Y-177800000D01*
X184130000Y-181610000D02*
X146685000Y-181610000D01*
X147955000Y-193040000D02*
X151765000Y-196850000D01*
X177800000Y-199110000D02*
X177800000Y-199390000D01*
X175540000Y-196850000D02*
X177800000Y-199110000D01*
X151765000Y-196850000D02*
X175540000Y-196850000D01*
X180340000Y-192050000D02*
X176810000Y-195580000D01*
X180340000Y-191770000D02*
X180340000Y-192050000D01*
X153035000Y-195580000D02*
X150495000Y-193040000D01*
X176810000Y-195580000D02*
X153035000Y-195580000D01*
X180340000Y-170200000D02*
X179050000Y-168910000D01*
X180340000Y-171450000D02*
X180340000Y-170200000D01*
X164465000Y-168910000D02*
X155575000Y-177800000D01*
X179050000Y-168910000D02*
X164465000Y-168910000D01*
X121920000Y-111760000D02*
X121920000Y-149860000D01*
X127000000Y-106680000D02*
X121920000Y-111760000D01*
X121920000Y-149860000D02*
X110490000Y-161290000D01*
X110490000Y-161290000D02*
X110490000Y-164465000D01*
X99060000Y-175895000D02*
X99060000Y-186690000D01*
X110490000Y-164465000D02*
X99060000Y-175895000D01*
X117460001Y-186040001D02*
X118110000Y-186690000D01*
X116840000Y-185420000D02*
X117460001Y-186040001D01*
X116840000Y-157480000D02*
X116840000Y-185420000D01*
X127000000Y-147320000D02*
X116840000Y-157480000D01*
M02*
