M48
; DRILL file {KiCad 5.1.3-ffb9f22~84~ubuntu18.04.1} date Thu 01 Aug 2019 04:23:40 PM EDT
; FORMAT={-:-/ absolute / inch / decimal}
; #@! TF.CreationDate,2019-08-01T16:23:40-04:00
; #@! TF.GenerationSoftware,Kicad,Pcbnew,5.1.3-ffb9f22~84~ubuntu18.04.1
; #@! TF.FileFunction,Plated,1,4,PTH
FMAT,2
INCH
T1C0.0197
T2C0.0217
T3C0.0276
T4C0.0315
T5C0.0394
T6C0.0433
T7C0.0472
T8C0.0598
%
G90
G05
T1
X6.025Y-7.3
X6.175Y-7.3
X5.9Y-5.7
X6.05Y-5.7
X5.9Y-4.1
X6.05Y-4.1
T2
X9.1Y-3.6902
X9.1Y-3.7701
X9.1Y-3.85
X9.1Y-3.9299
X9.1Y-4.3102
X9.1Y-4.3902
X9.1Y-4.4701
X9.1Y-4.55
X9.1701Y-3.65
X9.1701Y-3.7299
X9.1701Y-3.8098
X9.1701Y-3.8898
X9.1701Y-4.2701
X9.1701Y-4.35
X9.1701Y-4.4299
X9.1701Y-4.5098
X9.1Y-5.2902
X9.1Y-5.3701
X9.1Y-5.45
X9.1Y-5.5299
X9.1Y-5.9102
X9.1Y-5.9902
X9.1Y-6.0701
X9.1Y-6.15
X9.1701Y-5.25
X9.1701Y-5.3299
X9.1701Y-5.4098
X9.1701Y-5.4898
X9.1701Y-5.8701
X9.1701Y-5.95
X9.1701Y-6.0299
X9.1701Y-6.1098
X9.1Y-6.8902
X9.1Y-6.9701
X9.1Y-7.05
X9.1Y-7.1299
X9.1Y-7.5102
X9.1Y-7.5902
X9.1Y-7.6701
X9.1Y-7.75
X9.1701Y-6.85
X9.1701Y-6.9299
X9.1701Y-7.0098
X9.1701Y-7.0898
X9.1701Y-7.4701
X9.1701Y-7.55
X9.1701Y-7.6299
X9.1701Y-7.7098
T3
X4.45Y-8.125
X4.5287Y-8.125
X4.65Y-6.65
X4.7287Y-6.65
X3.9Y-6.6653
X3.9787Y-6.6653
X3.9Y-7.35
X3.9787Y-7.35
X4.65Y-7.35
X4.7287Y-7.35
T4
X4.1016Y-8.175
X4.2Y-8.175
X8.05Y-4.2
X8.65Y-4.2
X4.3016Y-7.4
X4.4Y-7.4
X8.1Y-6.8
X8.7Y-6.8
X4.25Y-7.15
X4.85Y-7.15
X3.5516Y-7.4
X3.65Y-7.4
X8.05Y-6.25
X8.65Y-6.25
X4.3016Y-6.7
X4.4Y-6.7
X8.05Y-6.1
X8.65Y-6.1
X8.1Y-7.7
X8.7Y-7.7
X3.5Y-6.45
X4.1Y-6.45
X5.75Y-5.0
X5.8878Y-5.0
X8.05Y-3.75
X8.65Y-3.75
X5.55Y-4.65
X6.15Y-4.65
X8.05Y-4.35
X8.65Y-4.35
X8.05Y-5.95
X8.65Y-5.95
X8.05Y-5.8
X8.65Y-5.8
X7.7Y-5.5872
X7.7Y-5.725
X8.05Y-5.65
X8.65Y-5.65
X4.05Y-7.925
X4.65Y-7.925
X5.85Y-6.6
X5.9878Y-6.6
X5.55Y-6.25
X6.15Y-6.25
X4.25Y-6.45
X4.85Y-6.45
X7.775Y-7.2372
X7.775Y-7.375
X8.05Y-4.05
X8.65Y-4.05
X8.05Y-5.5
X8.65Y-5.5
X8.05Y-5.35
X8.65Y-5.35
X8.05Y-5.2
X8.65Y-5.2
X8.1Y-7.55
X8.7Y-7.55
X3.5516Y-6.7
X3.65Y-6.7
X8.05Y-4.65
X8.65Y-4.65
X7.7Y-4.0122
X7.7Y-4.15
X8.05Y-3.9
X8.65Y-3.9
X8.1Y-7.4
X8.7Y-7.4
X8.05Y-4.5
X8.65Y-4.5
X7.7Y-6.4122
X7.7Y-6.55
X7.7Y-4.8122
X7.7Y-4.95
X5.675Y-7.85
X6.275Y-7.85
X3.5Y-7.15
X4.1Y-7.15
X8.1Y-7.85
X8.7Y-7.85
X8.1Y-7.25
X8.7Y-7.25
X8.05Y-3.6
X8.65Y-3.6
X8.1Y-7.1
X8.7Y-7.1
X8.1Y-6.95
X8.7Y-6.95
T5
X6.8Y-5.95
X6.8Y-6.25
X6.9Y-5.95
X6.9Y-6.25
X7.0Y-5.95
X7.0Y-6.25
X7.1Y-5.95
X7.1Y-6.25
X7.2Y-5.95
X7.2Y-6.25
X7.3Y-5.95
X7.3Y-6.25
X7.4Y-5.95
X7.4Y-6.25
X6.9Y-6.75
X6.9Y-7.05
X7.0Y-6.75
X7.0Y-7.05
X7.1Y-6.75
X7.1Y-7.05
X7.2Y-6.75
X7.2Y-7.05
X7.3Y-6.75
X7.3Y-7.05
X7.4Y-6.75
X7.4Y-7.05
X7.5Y-6.75
X7.5Y-7.05
X6.8Y-5.15
X6.8Y-5.45
X6.9Y-5.15
X6.9Y-5.45
X7.0Y-5.15
X7.0Y-5.45
X7.1Y-5.15
X7.1Y-5.45
X7.2Y-5.15
X7.2Y-5.45
X7.3Y-5.15
X7.3Y-5.45
X7.4Y-5.15
X7.4Y-5.45
X6.9Y-7.55
X6.9Y-7.85
X7.0Y-7.55
X7.0Y-7.85
X7.1Y-7.55
X7.1Y-7.85
X7.2Y-7.55
X7.2Y-7.85
X7.3Y-7.55
X7.3Y-7.85
X7.4Y-7.55
X7.4Y-7.85
X7.5Y-7.55
X7.5Y-7.85
X6.8Y-3.55
X6.8Y-3.85
X6.9Y-3.55
X6.9Y-3.85
X7.0Y-3.55
X7.0Y-3.85
X7.1Y-3.55
X7.1Y-3.85
X7.2Y-3.55
X7.2Y-3.85
X7.3Y-3.55
X7.3Y-3.85
X7.4Y-3.55
X7.4Y-3.85
X6.8Y-4.35
X6.8Y-4.65
X6.9Y-4.35
X6.9Y-4.65
X7.0Y-4.35
X7.0Y-4.65
X7.1Y-4.35
X7.1Y-4.65
X7.2Y-4.35
X7.2Y-4.65
X7.3Y-4.35
X7.3Y-4.65
X7.4Y-4.35
X7.4Y-4.65
T6
X3.85Y-3.85
X3.85Y-3.95
X3.85Y-4.05
X3.85Y-4.15
X3.85Y-4.25
X3.85Y-4.35
X3.85Y-4.45
X3.85Y-4.55
X3.85Y-4.65
X3.85Y-4.75
X3.85Y-4.85
X3.85Y-4.95
X3.85Y-5.05
X3.85Y-5.15
X3.85Y-5.25
X3.85Y-5.35
X3.85Y-5.45
X3.85Y-5.55
X3.85Y-5.65
X3.85Y-5.75
X3.85Y-5.85
X3.85Y-5.95
X3.85Y-6.05
X3.85Y-6.15
X3.95Y-5.65
X3.9681Y-4.1
X3.9681Y-4.2
X3.9681Y-4.3
X3.9681Y-4.4
X3.9681Y-4.5
X4.05Y-5.65
X4.15Y-4.45
X4.15Y-4.55
X4.15Y-4.65
X4.15Y-4.75
X4.15Y-5.35
X4.15Y-5.45
X4.15Y-5.55
X4.15Y-5.65
X4.15Y-5.75
X4.15Y-5.85
X4.15Y-5.95
X4.15Y-6.05
X4.15Y-6.15
X4.25Y-4.45
X4.25Y-4.55
X4.25Y-4.65
X4.25Y-4.75
X4.25Y-5.35
X4.25Y-5.45
X4.25Y-5.55
X4.25Y-5.65
X4.25Y-5.75
X4.25Y-5.85
X4.25Y-5.95
X4.25Y-6.05
X4.25Y-6.15
X4.35Y-3.95
X4.35Y-4.15
X4.35Y-4.25
X4.35Y-4.35
X4.35Y-5.65
X4.45Y-3.85
X4.45Y-3.95
X4.45Y-4.05
X4.45Y-4.15
X4.45Y-4.25
X4.45Y-4.35
X4.45Y-4.45
X4.45Y-4.55
X4.45Y-4.65
X4.45Y-4.75
X4.45Y-4.85
X4.45Y-4.95
X4.45Y-5.05
X4.45Y-5.15
X4.45Y-5.25
X4.45Y-5.35
X4.45Y-5.45
X4.45Y-5.55
X4.45Y-5.65
X4.45Y-5.75
X4.45Y-5.85
X4.45Y-5.95
X4.45Y-6.05
X4.45Y-6.15
X5.125Y-7.0
X5.125Y-7.1
X5.125Y-7.2
X5.125Y-7.3
X5.125Y-7.4
X5.125Y-7.5
X5.125Y-7.6
X5.225Y-7.0
X5.225Y-7.3
X5.225Y-7.4
X5.225Y-7.6
X5.325Y-7.0
X5.325Y-7.3
X5.325Y-7.4
X5.325Y-7.6
X5.425Y-7.0
X5.425Y-7.3
X5.425Y-7.4
X5.425Y-7.6
X5.525Y-7.0
X5.525Y-7.3
X5.525Y-7.4
X5.525Y-7.6
X5.625Y-7.0
X5.625Y-7.3
X5.625Y-7.4
X5.625Y-7.6
X5.725Y-7.0
X5.725Y-7.3
X5.725Y-7.4
X5.725Y-7.6
X5.825Y-7.0
X5.825Y-7.3
X5.825Y-7.4
X5.825Y-7.6
X5.925Y-7.0
X5.925Y-7.5
X5.925Y-7.6
X6.025Y-7.0
X6.025Y-7.5
X6.025Y-7.6
X6.125Y-7.0
X6.125Y-7.5
X6.125Y-7.6
X6.225Y-7.0
X6.225Y-7.6
X6.325Y-7.0
X6.325Y-7.5
X6.325Y-7.6
X6.425Y-7.0
X6.425Y-7.6
X5.0Y-5.4
X5.0Y-5.5
X5.0Y-5.6
X5.0Y-5.7
X5.0Y-5.8
X5.0Y-5.9
X5.0Y-6.0
X5.1Y-5.4
X5.1Y-5.7
X5.1Y-5.8
X5.1Y-6.0
X5.2Y-5.4
X5.2Y-5.7
X5.2Y-5.8
X5.2Y-6.0
X5.3Y-5.4
X5.3Y-5.7
X5.3Y-5.8
X5.3Y-6.0
X5.4Y-5.4
X5.4Y-5.7
X5.4Y-5.8
X5.4Y-6.0
X5.5Y-5.4
X5.5Y-5.7
X5.5Y-5.8
X5.5Y-6.0
X5.6Y-5.4
X5.6Y-5.7
X5.6Y-5.8
X5.6Y-6.0
X5.7Y-5.4
X5.7Y-5.7
X5.7Y-5.8
X5.7Y-6.0
X5.8Y-5.4
X5.8Y-5.9
X5.8Y-6.0
X5.9Y-5.4
X5.9Y-5.9
X5.9Y-6.0
X6.0Y-5.4
X6.0Y-5.9
X6.0Y-6.0
X6.1Y-5.4
X6.1Y-6.0
X6.2Y-5.4
X6.2Y-5.9
X6.2Y-6.0
X6.3Y-5.4
X6.3Y-6.0
X5.0Y-3.8
X5.0Y-3.9
X5.0Y-4.0
X5.0Y-4.1
X5.0Y-4.2
X5.0Y-4.3
X5.0Y-4.4
X5.1Y-3.8
X5.1Y-4.1
X5.1Y-4.2
X5.1Y-4.4
X5.2Y-3.8
X5.2Y-4.1
X5.2Y-4.2
X5.2Y-4.4
X5.3Y-3.8
X5.3Y-4.1
X5.3Y-4.2
X5.3Y-4.4
X5.4Y-3.8
X5.4Y-4.1
X5.4Y-4.2
X5.4Y-4.4
X5.5Y-3.8
X5.5Y-4.1
X5.5Y-4.2
X5.5Y-4.4
X5.6Y-3.8
X5.6Y-4.1
X5.6Y-4.2
X5.6Y-4.4
X5.7Y-3.8
X5.7Y-4.1
X5.7Y-4.2
X5.7Y-4.4
X5.8Y-3.8
X5.8Y-4.3
X5.8Y-4.4
X5.9Y-3.8
X5.9Y-4.3
X5.9Y-4.4
X6.0Y-3.8
X6.0Y-4.3
X6.0Y-4.4
X6.1Y-3.8
X6.1Y-4.4
X6.2Y-3.8
X6.2Y-4.3
X6.2Y-4.4
X6.3Y-3.8
X6.3Y-4.4
T7
X4.5547Y-3.2
X4.85Y-3.2
T8
X3.6Y-3.15
X3.8Y-3.15
X4.0Y-3.15
X4.2Y-3.15
T0
M30
